<svg xmlns="http://www.w3.org/2000/svg" height="656pt" version="1.1" viewBox="0 0 656 656" width="656pt">
<g id="surface1">
<path d="M 633.398438 520.300781 L 22.601562 520.300781 C 10.101562 520.300781 0 530.398438 0 542.898438 L 0 633.398438 C 0 645.898438 10.101562 656 22.601562 656 L 633.398438 656 C 645.898438 656 656 645.898438 656 633.398438 L 656 542.898438 C 656 530.398438 645.898438 520.300781 633.398438 520.300781 Z M 79.199219 622.101562 C 60.5 622.101562 45.300781 606.898438 45.300781 588.199219 C 45.300781 569.5 60.5 554.300781 79.199219 554.300781 C 97.898438 554.300781 113.101562 569.5 113.101562 588.199219 C 113.101562 606.898438 97.898438 622.101562 79.199219 622.101562 Z M 158.300781 588.101562 Z M 158.300781 588.101562 " style=" stroke:none;fill-rule:nonzero;fill:rgb(84.705882%,84.313725%,85.490196%);fill-opacity:1;" />
<path d="M 113.101562 588.101562 C 113.101562 606.824219 97.921875 622 79.199219 622 C 60.476562 622 45.300781 606.824219 45.300781 588.101562 C 45.300781 569.378906 60.476562 554.199219 79.199219 554.199219 C 97.921875 554.199219 113.101562 569.378906 113.101562 588.101562 Z M 113.101562 588.101562 " style=" stroke:none;fill-rule:nonzero;fill:rgb(14.117647%,53.333333%,100%);fill-opacity:1;" />
<path d="M 350.601562 441.101562 L 576.800781 475 L 576.800781 237.5 L 350.601562 237.5 Z M 350.601562 441.101562 " style=" stroke:none;fill-rule:nonzero;fill:rgb(100%,85.490196%,26.666667%);fill-opacity:1;" />
<path d="M 576.800781 0 L 350.601562 45.199219 L 350.601562 203.601562 L 576.800781 203.601562 Z M 576.800781 0 " style=" stroke:none;fill-rule:nonzero;fill:rgb(36.862745%,67.45098%,14.117647%);fill-opacity:1;" />
<path d="M 79.199219 395.898438 L 305.398438 429.800781 L 305.398438 237.5 L 79.199219 237.5 Z M 79.199219 395.898438 " style=" stroke:none;fill-rule:nonzero;fill:rgb(0%,42.745098%,94.117647%);fill-opacity:1;" />
<path d="M 305.398438 56.601562 L 79.199219 101.800781 L 79.199219 203.601562 L 305.398438 203.601562 Z M 305.398438 56.601562 " style=" stroke:none;fill-rule:nonzero;fill:rgb(100%,59.607843%,6.666667%);fill-opacity:1;" />
<path d="M 610.800781 599.398438 L 158.300781 599.398438 C 152.101562 599.398438 147 594.300781 147 588.101562 C 147 581.898438 152.101562 576.800781 158.300781 576.800781 L 610.699219 576.800781 C 616.898438 576.800781 622 581.898438 622 588.101562 C 622 594.300781 617 599.398438 610.800781 599.398438 Z M 610.800781 599.398438 " style=" stroke:none;fill-rule:nonzero;fill:rgb(14.117647%,53.333333%,100%);fill-opacity:1;" />
</g>
</svg>