<svg xmlns="http://www.w3.org/2000/svg" height="464pt" version="1.1" viewBox="-40 0 464 464" width="464pt">
<g id="surface1">
<path d="M 384 384 L 0 384 L 0 464 L 384 464 Z M 224 432 L 48 432 Z M 280 424 Z M 320 424 Z M 320 424 " style=" stroke:none;fill-rule:nonzero;fill:rgb(14.117647%,53.333333%,100%);fill-opacity:1;" />
<path d="M 384 368 L 352 0 L 32 0 L 0 368 L 0 384 L 384 384 Z M 261.984375 168.257812 C 266.257812 167.144531 270.628906 169.707031 271.738281 173.984375 C 272.851562 178.257812 270.289062 182.625 266.011719 183.742188 C 261.738281 184.855469 257.371094 182.289062 256.257812 178.015625 C 255.140625 173.738281 257.707031 169.367188 261.984375 168.257812 Z M 160 288 L 192 288 C 209.671875 288 224 273.671875 224 256 C 224 273.671875 209.671875 288 192 288 L 160 288 C 142.328125 288 128 273.671875 128 256 L 128 160 C 128 142.328125 142.328125 128 160 128 L 192 128 C 209.671875 128 224 142.328125 224 160 C 224 142.328125 209.671875 128 192 128 L 160 128 C 142.328125 128 128 142.328125 128 160 L 128 256 C 128 273.671875 142.328125 288 160 288 Z M 264 248 C 259.582031 248 256 244.417969 256 240 C 256 235.582031 259.582031 232 264 232 C 268.417969 232 272 235.582031 272 240 C 272 244.417969 268.417969 248 264 248 Z M 264 248 " style=" stroke:none;fill-rule:nonzero;fill:rgb(87.843137%,87.843137%,88.627451%);fill-opacity:1;" />
<path d="M 266.015625 183.742188 C 270.289062 182.628906 272.855469 178.261719 271.742188 173.988281 C 270.625 169.710938 266.257812 167.148438 261.984375 168.261719 C 257.707031 169.371094 255.144531 173.742188 256.257812 178.015625 C 257.367188 182.292969 261.738281 184.859375 266.015625 183.742188 Z M 266.015625 183.742188 " style=" stroke:none;fill-rule:nonzero;fill:rgb(87.843137%,87.843137%,88.627451%);fill-opacity:1;" />
<path d="M 272 240 C 272 244.417969 268.417969 248 264 248 C 259.582031 248 256 244.417969 256 240 C 256 235.582031 259.582031 232 264 232 C 268.417969 232 272 235.582031 272 240 Z M 272 240 " style=" stroke:none;fill-rule:nonzero;fill:rgb(87.843137%,87.843137%,88.627451%);fill-opacity:1;" />
<path d="M 232 440 L 40 440 L 40 408 L 56 408 L 56 424 L 216 424 L 216 408 L 232 408 Z M 232 440 " style=" stroke:none;fill-rule:nonzero;fill:rgb(12.941176%,25.098039%,60.392157%);fill-opacity:1;" />
<path d="M 320 416 L 352 416 L 352 432 L 320 432 Z M 320 416 " style=" stroke:none;fill-rule:nonzero;fill:rgb(12.941176%,25.098039%,60.392157%);fill-opacity:1;" />
<path d="M 280 416 L 312 416 L 312 432 L 280 432 Z M 280 416 " style=" stroke:none;fill-rule:nonzero;fill:rgb(12.941176%,25.098039%,60.392157%);fill-opacity:1;" />
<path d="M 192 296 L 160 296 C 137.917969 295.972656 120.027344 278.082031 120 256 L 120 160 C 120.027344 137.917969 137.917969 120.027344 160 120 L 192 120 C 214.082031 120.027344 231.972656 137.917969 232 160 L 216 160 C 216 146.746094 205.253906 136 192 136 L 160 136 C 146.746094 136 136 146.746094 136 160 L 136 256 C 136 269.253906 146.746094 280 160 280 L 192 280 C 205.253906 280 216 269.253906 216 256 L 232 256 C 231.972656 278.082031 214.082031 295.972656 192 296 Z M 192 296 " style=" stroke:none;fill-rule:nonzero;fill:rgb(34.117647%,64.313725%,100%);fill-opacity:1;" />
<path d="M 264 192 C 255.683594 192.011719 248.746094 185.648438 248.039062 177.359375 C 247.332031 169.070312 253.09375 161.625 261.289062 160.226562 C 269.488281 158.828125 277.394531 163.945312 279.472656 172 C 281.667969 180.546875 276.554688 189.261719 268.023438 191.511719 C 266.707031 191.84375 265.355469 192.007812 264 192 Z M 264 192 " style=" stroke:none;fill-rule:nonzero;fill:rgb(34.117647%,64.313725%,100%);fill-opacity:1;" />
<path d="M 264 256 C 255.164062 256 248 248.835938 248 240 C 248 231.164062 255.164062 224 264 224 C 272.835938 224 280 231.164062 280 240 C 280 248.835938 272.835938 256 264 256 Z M 264 240 Z M 264 240 " style=" stroke:none;fill-rule:nonzero;fill:rgb(34.117647%,64.313725%,100%);fill-opacity:1;" />
</g>
</svg>