<svg xmlns="http://www.w3.org/2000/svg" height="464pt" version="1.1" viewBox="0 0 464.05304 464" width="464pt">
<g id="surface1">
<path d="M 208 128.027344 C 208 57.335938 265.308594 0.0273438 336 0.0273438 L 32 0.0273438 L 0 368.027344 L 0 384.027344 L 384 384.027344 L 384 368.027344 L 373.761719 250.347656 C 334.925781 262.316406 292.714844 255.140625 260.015625 231.011719 C 227.320312 206.882812 208.015625 168.664062 208 128.027344 Z M 208 128.027344 " style=" stroke:none;fill-rule:nonzero;fill:rgb(87.843137%,87.843137%,88.627451%);fill-opacity:1;" />
<path d="M 0 464.027344 L 384 464.027344 L 384 384.027344 L 0 384.027344 Z M 352 424.027344 Z M 32 408.027344 L 32 432.027344 L 288 432.027344 L 32 432.027344 Z M 32 408.027344 " style=" stroke:none;fill-rule:nonzero;fill:rgb(14.117647%,53.333333%,100%);fill-opacity:1;" />
<path d="M 336 0.0273438 C 285.6875 0.046875 240.050781 29.542969 219.367188 75.40625 C 198.6875 121.273438 206.789062 175 240.082031 212.722656 C 273.375 250.449219 325.679688 265.167969 373.761719 250.347656 C 434.289062 231.6875 472.070312 171.566406 462.621094 108.933594 C 453.171875 46.304688 399.339844 0 336 0.0273438 Z M 336 176.027344 C 309.492188 176.027344 288 154.535156 288 128.027344 C 288 101.515625 309.492188 80.027344 336 80.027344 C 362.507812 80.027344 384 101.515625 384 128.027344 C 383.972656 154.523438 362.5 176 336 176.027344 Z M 336 176.027344 " style=" stroke:none;fill-rule:nonzero;fill:rgb(100%,85.490196%,66.666667%);fill-opacity:1;" />
<path d="M 336 80.027344 C 309.492188 80.027344 288 101.515625 288 128.027344 C 288 154.535156 309.492188 176.027344 336 176.027344 C 362.507812 176.027344 384 154.535156 384 128.027344 C 383.972656 101.527344 362.5 80.054688 336 80.027344 Z M 336 144.027344 C 327.164062 144.027344 320 136.863281 320 128.027344 C 320 119.191406 327.164062 112.027344 336 112.027344 C 344.835938 112.027344 352 119.191406 352 128.027344 C 352 136.863281 344.835938 144.027344 336 144.027344 Z M 336 144.027344 " style=" stroke:none;fill-rule:nonzero;fill:rgb(14.117647%,53.333333%,100%);fill-opacity:1;" />
<path d="M 352 128.027344 C 352 136.863281 344.835938 144.027344 336 144.027344 C 327.164062 144.027344 320 136.863281 320 128.027344 C 320 119.191406 327.164062 112.027344 336 112.027344 C 344.835938 112.027344 352 119.191406 352 128.027344 Z M 352 128.027344 " style=" stroke:none;fill-rule:nonzero;fill:rgb(87.843137%,87.843137%,88.627451%);fill-opacity:1;" />
<path d="M 296 440.027344 L 24 440.027344 L 24 408.027344 L 40 408.027344 L 40 424.027344 L 280 424.027344 L 280 408.027344 L 296 408.027344 Z M 296 440.027344 " style=" stroke:none;fill-rule:nonzero;fill:rgb(12.941176%,25.098039%,60.392157%);fill-opacity:1;" />
<path d="M 320 416.027344 L 352 416.027344 L 352 432.027344 L 320 432.027344 Z M 320 416.027344 " style=" stroke:none;fill-rule:nonzero;fill:rgb(12.941176%,25.098039%,60.392157%);fill-opacity:1;" />
</g>
</svg>