<svg xmlns="http://www.w3.org/2000/svg" height="512.00085pt" version="1.1" viewBox="0 0 512.00085 512.00085" width="512.00085pt">
<g id="surface1">
<path d="M 256 0 C 114.613281 0 0 114.613281 0 256 C 0 397.386719 114.613281 512 256 512 C 397.386719 512 512 397.386719 512 256 C 512 114.613281 397.386719 0 256 0 Z M 64.875 366.34375 C 125.910156 471.777344 260.769531 507.914062 366.34375 447.125 C 260.769531 507.914062 125.910156 471.777344 64.875 366.34375 Z M 167.722656 256 C 167.722656 207.246094 207.246094 167.726562 256 167.726562 C 304.753906 167.726562 344.273438 207.246094 344.273438 256 C 344.273438 304.753906 304.753906 344.277344 256 344.277344 C 207.246094 344.277344 167.722656 304.753906 167.722656 256 Z M 145.65625 64.875 C 251.230469 4.085938 386.089844 40.222656 447.125 145.65625 C 386.089844 40.222656 251.230469 4.085938 145.65625 64.875 Z M 145.65625 64.875 " style=" stroke:none;fill-rule:nonzero;fill:rgb(100%,85.490196%,66.666667%);fill-opacity:1;" />
<path d="M 344.277344 256 C 344.277344 207.246094 304.753906 167.726562 256 167.726562 C 207.246094 167.726562 167.726562 207.246094 167.726562 256 C 167.726562 304.753906 207.246094 344.277344 256 344.277344 C 304.753906 344.277344 344.277344 304.753906 344.277344 256 Z M 229.519531 256 C 229.519531 241.375 241.375 229.519531 256 229.519531 C 270.625 229.519531 282.484375 241.375 282.484375 256 C 282.484375 270.625 270.625 282.484375 256 282.484375 C 241.375 282.484375 229.519531 270.625 229.519531 256 Z M 229.519531 256 " style=" stroke:none;fill-rule:nonzero;fill:rgb(34.117647%,64.313725%,100%);fill-opacity:1;" />
<path d="M 282.484375 256 C 282.484375 270.625 270.625 282.484375 256 282.484375 C 241.375 282.484375 229.519531 270.625 229.519531 256 C 229.519531 241.375 241.375 229.519531 256 229.519531 C 270.625 229.519531 282.484375 241.375 282.484375 256 Z M 282.484375 256 " style=" stroke:none;fill-rule:nonzero;fill:rgb(87.843137%,87.843137%,88.627451%);fill-opacity:1;" />
<path d="M 256.378906 485.515625 C 174.253906 485.625 98.316406 441.867188 57.230469 370.757812 C 54.820312 366.519531 56.300781 361.132812 60.539062 358.722656 C 64.738281 356.335938 70.074219 357.765625 72.519531 361.929688 C 131.113281 463.144531 260.578125 497.835938 361.929688 439.480469 C 366.136719 437.015625 371.546875 438.425781 374.011719 442.632812 C 376.476562 446.835938 375.066406 452.246094 370.859375 454.710938 C 370.828125 454.730469 370.792969 454.75 370.757812 454.773438 C 336.003906 474.910156 296.546875 485.515625 256.378906 485.515625 Z M 256.378906 485.515625 " style=" stroke:none;fill-rule:nonzero;fill:rgb(100%,89.411765%,75.686275%);fill-opacity:1;" />
<path d="M 447.136719 154.484375 C 443.976562 154.484375 441.0625 152.804688 439.480469 150.070312 C 380.886719 48.855469 251.421875 14.164062 150.070312 72.519531 C 145.832031 74.929688 140.441406 73.445312 138.03125 69.207031 C 135.644531 65.007812 137.074219 59.671875 141.242188 57.230469 C 251.042969 -5.992188 391.292969 31.589844 454.773438 141.242188 C 457.210938 145.464844 455.761719 150.863281 451.539062 153.300781 C 450.199219 154.074219 448.683594 154.480469 447.136719 154.484375 Z M 447.136719 154.484375 " style=" stroke:none;fill-rule:nonzero;fill:rgb(100%,89.411765%,75.686275%);fill-opacity:1;" />
</g>
</svg>