<svg xmlns="http://www.w3.org/2000/svg" height="512.00085pt" version="1.1" viewBox="0 0 512.00085 512.00085" width="512.00085pt">
<g id="surface1">
<path d="M 35.308594 335.449219 L 476.691406 335.449219 L 476.691406 35.308594 L 35.308594 35.308594 Z M 35.308594 335.449219 " style=" stroke:none;fill-rule:nonzero;fill:rgb(14.117647%,53.333333%,100%);fill-opacity:1;" />
<path d="M 494.34375 406.070312 L 17.65625 406.070312 C 7.90625 406.070312 0 413.972656 0 423.722656 L 0 494.34375 C 0 504.097656 7.90625 512 17.65625 512 L 494.34375 512 C 504.097656 512 512 504.097656 512 494.34375 L 512 423.722656 C 512 413.972656 504.097656 406.070312 494.34375 406.070312 Z M 61.792969 485.515625 C 47.167969 485.515625 35.308594 473.660156 35.308594 459.035156 C 35.308594 444.40625 47.167969 432.550781 61.792969 432.550781 C 76.417969 432.550781 88.277344 444.40625 88.277344 459.035156 C 88.277344 473.660156 76.417969 485.515625 61.792969 485.515625 Z M 61.792969 485.515625 " style=" stroke:none;fill-rule:nonzero;fill:rgb(84.705882%,84.313725%,85.490196%);fill-opacity:1;" />
<path d="M 88.277344 459.035156 C 88.277344 473.660156 76.417969 485.515625 61.792969 485.515625 C 47.167969 485.515625 35.308594 473.660156 35.308594 459.035156 C 35.308594 444.410156 47.167969 432.550781 61.792969 432.550781 C 76.417969 432.550781 88.277344 444.410156 88.277344 459.035156 Z M 88.277344 459.035156 " style=" stroke:none;fill-rule:nonzero;fill:rgb(14.117647%,53.333333%,100%);fill-opacity:1;" />
<path d="M 494.34375 0 L 17.65625 0 C 7.90625 0 0 7.90625 0 17.65625 L 0 353.105469 C 0 362.855469 7.90625 370.757812 17.65625 370.757812 L 494.34375 370.757812 C 504.097656 370.757812 512 362.855469 512 353.101562 L 512 17.65625 C 512 7.90625 504.097656 0 494.34375 0 Z M 476.691406 335.449219 L 35.308594 335.449219 L 35.308594 35.308594 L 476.691406 35.308594 Z M 476.691406 335.449219 " style=" stroke:none;fill-rule:nonzero;fill:rgb(87.843137%,87.843137%,88.627451%);fill-opacity:1;" />
<path d="M 476.691406 467.863281 L 123.585938 467.863281 C 118.710938 467.863281 114.757812 463.910156 114.757812 459.035156 C 114.757812 454.160156 118.710938 450.207031 123.585938 450.207031 L 476.691406 450.207031 C 481.566406 450.207031 485.515625 454.160156 485.515625 459.035156 C 485.515625 463.910156 481.566406 467.863281 476.691406 467.863281 Z M 476.691406 467.863281 " style=" stroke:none;fill-rule:nonzero;fill:rgb(14.117647%,53.333333%,100%);fill-opacity:1;" />
<path d="M 88.277344 70.621094 L 105.929688 70.621094 L 105.929688 105.929688 L 88.277344 105.929688 Z M 88.277344 70.621094 " style=" stroke:none;fill-rule:nonzero;fill:rgb(12.941176%,25.098039%,60.392157%);fill-opacity:1;" />
<path d="M 141.242188 70.621094 L 158.898438 70.621094 L 158.898438 105.929688 L 141.242188 105.929688 Z M 141.242188 70.621094 " style=" stroke:none;fill-rule:nonzero;fill:rgb(12.941176%,25.098039%,60.392157%);fill-opacity:1;" />
<path d="M 194.207031 70.621094 L 211.863281 70.621094 L 211.863281 105.929688 L 194.207031 105.929688 Z M 194.207031 70.621094 " style=" stroke:none;fill-rule:nonzero;fill:rgb(12.941176%,25.098039%,60.392157%);fill-opacity:1;" />
<path d="M 247.171875 70.621094 L 264.828125 70.621094 L 264.828125 105.929688 L 247.171875 105.929688 Z M 247.171875 70.621094 " style=" stroke:none;fill-rule:nonzero;fill:rgb(12.941176%,25.098039%,60.392157%);fill-opacity:1;" />
<path d="M 300.136719 70.621094 L 317.792969 70.621094 L 317.792969 105.929688 L 300.136719 105.929688 Z M 300.136719 70.621094 " style=" stroke:none;fill-rule:nonzero;fill:rgb(12.941176%,25.098039%,60.392157%);fill-opacity:1;" />
<path d="M 353.101562 70.621094 L 370.757812 70.621094 L 370.757812 105.929688 L 353.101562 105.929688 Z M 353.101562 70.621094 " style=" stroke:none;fill-rule:nonzero;fill:rgb(12.941176%,25.098039%,60.392157%);fill-opacity:1;" />
<path d="M 406.070312 70.621094 L 423.722656 70.621094 L 423.722656 105.929688 L 406.070312 105.929688 Z M 406.070312 70.621094 " style=" stroke:none;fill-rule:nonzero;fill:rgb(12.941176%,25.098039%,60.392157%);fill-opacity:1;" />
</g>
</svg>