<svg xmlns="http://www.w3.org/2000/svg" height="464pt" version="1.1" viewBox="-31 0 463 464" width="464pt">
<g id="surface1">
<path d="M 0.5 0 L 0.5 464 L 208.5 464 L 208.5 0 Z M 40.5 432 Z M 72.5 432 Z M 104.5 432 Z M 104.5 368 C 95.664062 368 88.5 360.835938 88.5 352 C 88.5 343.164062 95.664062 336 104.5 336 C 113.335938 336 120.5 343.164062 120.5 352 C 120.5 360.835938 113.335938 368 104.5 368 Z M 104.5 304 C 95.664062 304 88.5 296.835938 88.5 288 C 88.5 279.164062 95.664062 272 104.5 272 C 113.335938 272 120.5 279.164062 120.5 288 C 120.5 296.835938 113.335938 304 104.5 304 Z M 136.5 432 Z M 168.5 432 Z M 32.5 160 Z M 32.5 128 Z M 176.5 80 L 32.5 80 L 32.5 48 L 176.5 48 Z M 176.5 80 " style=" stroke:none;fill-rule:nonzero;fill:rgb(14.117647%,53.333333%,100%);fill-opacity:1;" />
<path d="M 120.5 288 C 120.5 296.835938 113.335938 304 104.5 304 C 95.664062 304 88.5 296.835938 88.5 288 C 88.5 279.164062 95.664062 272 104.5 272 C 113.335938 272 120.5 279.164062 120.5 288 Z M 120.5 288 " style=" stroke:none;fill-rule:nonzero;fill:rgb(87.843137%,87.843137%,88.627451%);fill-opacity:1;" />
<path d="M 120.5 352 C 120.5 360.835938 113.335938 368 104.5 368 C 95.664062 368 88.5 360.835938 88.5 352 C 88.5 343.164062 95.664062 336 104.5 336 C 113.335938 336 120.5 343.164062 120.5 352 Z M 120.5 352 " style=" stroke:none;fill-rule:nonzero;fill:rgb(87.843137%,87.843137%,88.627451%);fill-opacity:1;" />
<path d="M 208.5 464 L 400.5 400 L 400.5 64 L 208.5 0 Z M 208.5 464 " style=" stroke:none;fill-rule:nonzero;fill:rgb(87.843137%,87.843137%,88.627451%);fill-opacity:1;" />
<path d="M 32.5 48 L 176.5 48 L 176.5 80 L 32.5 80 Z M 32.5 48 " style=" stroke:none;fill-rule:nonzero;fill:rgb(87.843137%,87.843137%,88.627451%);fill-opacity:1;" />
<path d="M 32.5 120 L 176.5 120 L 176.5 136 L 32.5 136 Z M 32.5 120 " style=" stroke:none;fill-rule:nonzero;fill:rgb(12.941176%,25.098039%,60.392157%);fill-opacity:1;" />
<path d="M 32.5 152 L 176.5 152 L 176.5 168 L 32.5 168 Z M 32.5 152 " style=" stroke:none;fill-rule:nonzero;fill:rgb(12.941176%,25.098039%,60.392157%);fill-opacity:1;" />
<path d="M 32.5 400 L 48.5 400 L 48.5 432 L 32.5 432 Z M 32.5 400 " style=" stroke:none;fill-rule:nonzero;fill:rgb(12.941176%,25.098039%,60.392157%);fill-opacity:1;" />
<path d="M 64.5 400 L 80.5 400 L 80.5 432 L 64.5 432 Z M 64.5 400 " style=" stroke:none;fill-rule:nonzero;fill:rgb(12.941176%,25.098039%,60.392157%);fill-opacity:1;" />
<path d="M 96.5 400 L 112.5 400 L 112.5 432 L 96.5 432 Z M 96.5 400 " style=" stroke:none;fill-rule:nonzero;fill:rgb(12.941176%,25.098039%,60.392157%);fill-opacity:1;" />
<path d="M 128.5 400 L 144.5 400 L 144.5 432 L 128.5 432 Z M 128.5 400 " style=" stroke:none;fill-rule:nonzero;fill:rgb(12.941176%,25.098039%,60.392157%);fill-opacity:1;" />
<path d="M 160.5 400 L 176.5 400 L 176.5 432 L 160.5 432 Z M 160.5 400 " style=" stroke:none;fill-rule:nonzero;fill:rgb(12.941176%,25.098039%,60.392157%);fill-opacity:1;" />
</g>
</svg>