<svg xmlns="http://www.w3.org/2000/svg" height="464pt" version="1.1" viewBox="0 0 464 464" width="464pt">
<g id="surface1">
<path d="M 328 192 L 200 192 C 195.582031 192 192 188.417969 192 184 L 192 136 C 192 131.582031 195.582031 128 200 128 L 287.441406 128 C 295.476562 127.980469 302.988281 131.996094 307.441406 138.6875 L 334.6875 179.558594 C 336.328125 182.019531 336.480469 185.183594 335.078125 187.789062 C 333.679688 190.394531 330.957031 192.011719 328 192 Z M 208 176 L 313.046875 176 L 294.097656 147.558594 C 292.613281 145.335938 290.113281 144 287.441406 144 L 208 144 Z M 208 176 " style=" stroke:none;fill-rule:nonzero;fill:rgb(73.72549%,74.509804%,75.294118%);fill-opacity:1;" />
<path d="M 264 368 C 264 376.835938 256.835938 384 248 384 C 239.164062 384 232 376.835938 232 368 L 232 352 L 208 344 L 208 464 L 448 464 L 448 292.648438 L 264 352 Z M 264 368 " style=" stroke:none;fill-rule:nonzero;fill:rgb(34.117647%,64.313725%,100%);fill-opacity:1;" />
<path d="M 208 176 L 208 344 L 232 352 L 232 320 L 264 320 L 264 352 L 448 292.648438 L 452.238281 291.28125 C 459.191406 289.371094 464.003906 283.046875 464 275.839844 L 464 176 Z M 208 176 " style=" stroke:none;fill-rule:nonzero;fill:rgb(14.117647%,53.333333%,100%);fill-opacity:1;" />
<path d="M 208 368 L 208 0 L 0 0 L 0 464 L 208 464 Z M 40 432 Z M 72 432 Z M 64 368 C 55.164062 368 48 360.835938 48 352 C 48 343.164062 55.164062 336 64 336 C 72.835938 336 80 343.164062 80 352 C 80 360.835938 72.835938 368 64 368 Z M 104 432 Z M 136 432 Z M 144 368 C 135.164062 368 128 360.835938 128 352 C 128 343.164062 135.164062 336 144 336 C 152.835938 336 160 343.164062 160 352 C 160 360.835938 152.835938 368 144 368 Z M 168 432 Z M 32 160 Z M 32 128 Z M 32 128 " style=" stroke:none;fill-rule:nonzero;fill:rgb(87.843137%,87.843137%,88.627451%);fill-opacity:1;" />
<path d="M 80 352 C 80 360.835938 72.835938 368 64 368 C 55.164062 368 48 360.835938 48 352 C 48 343.164062 55.164062 336 64 336 C 72.835938 336 80 343.164062 80 352 Z M 80 352 " style=" stroke:none;fill-rule:nonzero;fill:rgb(14.117647%,53.333333%,100%);fill-opacity:1;" />
<path d="M 160 352 C 160 360.835938 152.835938 368 144 368 C 135.164062 368 128 360.835938 128 352 C 128 343.164062 135.164062 336 144 336 C 152.835938 336 160 343.164062 160 352 Z M 160 352 " style=" stroke:none;fill-rule:nonzero;fill:rgb(14.117647%,53.333333%,100%);fill-opacity:1;" />
<path d="M 248 384 C 256.835938 384 264 376.835938 264 368 L 264 320 L 232 320 L 232 368 C 232 376.835938 239.164062 384 248 384 Z M 248 384 " style=" stroke:none;fill-rule:nonzero;fill:rgb(90.196078%,90.588235%,90.980392%);fill-opacity:1;" />
<path d="M 32 120 L 176 120 L 176 136 L 32 136 Z M 32 120 " style=" stroke:none;fill-rule:nonzero;fill:rgb(12.941176%,25.098039%,60.392157%);fill-opacity:1;" />
<path d="M 32 152 L 176 152 L 176 168 L 32 168 Z M 32 152 " style=" stroke:none;fill-rule:nonzero;fill:rgb(12.941176%,25.098039%,60.392157%);fill-opacity:1;" />
<path d="M 32 400 L 48 400 L 48 432 L 32 432 Z M 32 400 " style=" stroke:none;fill-rule:nonzero;fill:rgb(12.941176%,25.098039%,60.392157%);fill-opacity:1;" />
<path d="M 64 400 L 80 400 L 80 432 L 64 432 Z M 64 400 " style=" stroke:none;fill-rule:nonzero;fill:rgb(12.941176%,25.098039%,60.392157%);fill-opacity:1;" />
<path d="M 96 400 L 112 400 L 112 432 L 96 432 Z M 96 400 " style=" stroke:none;fill-rule:nonzero;fill:rgb(12.941176%,25.098039%,60.392157%);fill-opacity:1;" />
<path d="M 128 400 L 144 400 L 144 432 L 128 432 Z M 128 400 " style=" stroke:none;fill-rule:nonzero;fill:rgb(12.941176%,25.098039%,60.392157%);fill-opacity:1;" />
<path d="M 160 400 L 176 400 L 176 432 L 160 432 Z M 160 400 " style=" stroke:none;fill-rule:nonzero;fill:rgb(12.941176%,25.098039%,60.392157%);fill-opacity:1;" />
</g>
</svg>