<svg xmlns="http://www.w3.org/2000/svg" height="716pt" version="1.1" viewBox="-25 0 716 716.40669" width="716pt">
<g id="surface1">
<path d="M 420.402344 601.601562 C 420.203125 598.898438 420.003906 596.199219 420.003906 593.398438 C 420.003906 596.199219 420.203125 598.898438 420.402344 601.601562 Z M 420.402344 601.601562 " style=" stroke:none;fill-rule:nonzero;fill:rgb(87.843137%,87.843137%,88.627451%);fill-opacity:1;" />
<path d="M 421.101562 576.199219 C 421.503906 573.5 421.804688 570.699219 422.304688 568 C 422.203125 568.699219 422.003906 569.300781 421.902344 570 C 421.503906 572.101562 421.402344 574.199219 421.101562 576.199219 Z M 421.101562 576.199219 " style=" stroke:none;fill-rule:nonzero;fill:rgb(87.843137%,87.843137%,88.627451%);fill-opacity:1;" />
<path d="M 420.503906 581 C 420.304688 583.5 420.203125 585.898438 420.101562 588.300781 C 420.203125 585.898438 420.304688 583.398438 420.503906 581 Z M 420.503906 581 " style=" stroke:none;fill-rule:nonzero;fill:rgb(87.843137%,87.843137%,88.627451%);fill-opacity:1;" />
<path d="M 544.203125 469.101562 C 545.503906 469.101562 546.804688 469.199219 548.101562 469.300781 C 546.902344 469.199219 545.601562 469.101562 544.203125 469.101562 Z M 544.203125 469.101562 " style=" stroke:none;fill-rule:nonzero;fill:rgb(87.843137%,87.843137%,88.627451%);fill-opacity:1;" />
<path d="M 422.402344 617.199219 C 421.601562 613.398438 421.003906 609.5 420.601562 605.5 C 421.003906 609.5 421.601562 613.398438 422.402344 617.199219 Z M 422.402344 617.199219 " style=" stroke:none;fill-rule:nonzero;fill:rgb(87.843137%,87.843137%,88.627451%);fill-opacity:1;" />
<path d="M 425.402344 556.101562 C 424.304688 559.601562 423.402344 563.199219 422.601562 566.800781 C 423.402344 563.199219 424.304688 559.601562 425.402344 556.101562 Z M 425.402344 556.101562 " style=" stroke:none;fill-rule:nonzero;fill:rgb(87.843137%,87.843137%,88.627451%);fill-opacity:1;" />
<path d="M 531.804688 469.699219 C 534.304688 469.5 536.804688 469.398438 539.402344 469.300781 C 537.304688 469.398438 535.304688 469.300781 533.203125 469.5 C 532.804688 469.5 532.203125 469.601562 531.804688 469.699219 Z M 531.804688 469.699219 " style=" stroke:none;fill-rule:nonzero;fill:rgb(87.843137%,87.843137%,88.627451%);fill-opacity:1;" />
<path d="M 528.003906 470.101562 C 525.503906 470.398438 523.003906 470.800781 520.503906 471.199219 C 523.003906 470.800781 525.503906 470.398438 528.003906 470.101562 Z M 528.003906 470.101562 " style=" stroke:none;fill-rule:nonzero;fill:rgb(87.843137%,87.843137%,88.627451%);fill-opacity:1;" />
<path d="M 469.101562 494.101562 L 467.804688 495.101562 Z M 469.101562 494.101562 " style=" stroke:none;fill-rule:nonzero;fill:rgb(87.843137%,87.843137%,88.627451%);fill-opacity:1;" />
<path d="M 580.601562 474.898438 C 579.203125 474.5 577.804688 474 576.402344 473.699219 C 577.703125 474 579.203125 474.5 580.601562 474.898438 Z M 580.601562 474.898438 " style=" stroke:none;fill-rule:nonzero;fill:rgb(87.843137%,87.843137%,88.627451%);fill-opacity:1;" />
<path d="M 570.304688 472.101562 C 568.902344 471.800781 567.402344 471.398438 565.902344 471.199219 C 567.402344 471.5 568.804688 471.800781 570.304688 472.101562 Z M 570.304688 472.101562 " style=" stroke:none;fill-rule:nonzero;fill:rgb(87.843137%,87.843137%,88.627451%);fill-opacity:1;" />
<path d="M 559.503906 470.199219 C 558.101562 470 556.601562 469.800781 555.203125 469.699219 C 556.601562 469.800781 558.101562 470 559.503906 470.199219 Z M 559.503906 470.199219 " style=" stroke:none;fill-rule:nonzero;fill:rgb(87.843137%,87.843137%,88.627451%);fill-opacity:1;" />
<path d="M 504.503906 475.398438 C 503.101562 475.800781 501.804688 476.398438 500.503906 476.898438 C 501.804688 476.398438 503.203125 475.898438 504.503906 475.398438 Z M 504.503906 475.398438 " style=" stroke:none;fill-rule:nonzero;fill:rgb(87.843137%,87.843137%,88.627451%);fill-opacity:1;" />
<path d="M 515.902344 472.300781 C 513.902344 472.800781 511.902344 473.300781 510.003906 473.800781 C 512.003906 473.199219 513.902344 472.699219 515.902344 472.300781 Z M 515.902344 472.300781 " style=" stroke:none;fill-rule:nonzero;fill:rgb(87.843137%,87.843137%,88.627451%);fill-opacity:1;" />
<path d="M 461.601562 500.199219 L 459.503906 502.101562 Z M 461.601562 500.199219 " style=" stroke:none;fill-rule:nonzero;fill:rgb(87.843137%,87.843137%,88.627451%);fill-opacity:1;" />
<path d="M 608.902344 488.101562 C 607.902344 487.5 606.902344 487 606.003906 486.398438 C 607.003906 486.898438 608.003906 487.398438 608.902344 488.101562 Z M 608.902344 488.101562 " style=" stroke:none;fill-rule:nonzero;fill:rgb(87.843137%,87.843137%,88.627451%);fill-opacity:1;" />
<path d="M 429.503906 544.800781 C 428.003906 548.300781 426.703125 551.800781 425.601562 555.5 C 426.804688 551.800781 428.003906 548.300781 429.503906 544.800781 Z M 429.503906 544.800781 " style=" stroke:none;fill-rule:nonzero;fill:rgb(87.843137%,87.843137%,88.627451%);fill-opacity:1;" />
<path d="M 434.703125 533.800781 C 432.804688 537.199219 431.203125 540.699219 429.601562 544.300781 C 431.203125 540.699219 432.902344 537.199219 434.703125 533.800781 Z M 434.703125 533.800781 " style=" stroke:none;fill-rule:nonzero;fill:rgb(87.843137%,87.843137%,88.627451%);fill-opacity:1;" />
<path d="M 599.902344 482.898438 C 598.703125 482.300781 597.402344 481.699219 596.203125 481.101562 C 597.503906 481.699219 598.703125 482.300781 599.902344 482.898438 Z M 599.902344 482.898438 " style=" stroke:none;fill-rule:nonzero;fill:rgb(87.843137%,87.843137%,88.627451%);fill-opacity:1;" />
<path d="M 447.402344 515 C 442.703125 520.800781 438.503906 527.101562 434.804688 533.699219 C 438.402344 527.101562 442.601562 520.800781 447.402344 515 Z M 447.402344 515 " style=" stroke:none;fill-rule:nonzero;fill:rgb(87.843137%,87.843137%,88.627451%);fill-opacity:1;" />
<path d="M 590.503906 478.5 C 589.203125 478 587.804688 477.5 586.503906 476.898438 C 587.804688 477.5 589.101562 478 590.503906 478.5 Z M 590.503906 478.5 " style=" stroke:none;fill-rule:nonzero;fill:rgb(87.843137%,87.843137%,88.627451%);fill-opacity:1;" />
<path d="M 451.203125 510.601562 C 452.203125 509.5 453.203125 508.398438 454.203125 507.300781 C 453.203125 508.300781 452.203125 509.5 451.203125 510.601562 Z M 451.203125 510.601562 " style=" stroke:none;fill-rule:nonzero;fill:rgb(87.843137%,87.843137%,88.627451%);fill-opacity:1;" />
<path d="M 617.402344 493.898438 C 614.703125 491.800781 611.804688 489.898438 608.902344 488.101562 C 607.902344 487.5 606.902344 487 606.003906 486.398438 C 604.003906 485.199219 602.003906 484 599.902344 483 C 598.703125 482.398438 597.402344 481.800781 596.203125 481.199219 C 594.304688 480.300781 592.402344 479.398438 590.402344 478.601562 C 589.101562 478.101562 587.703125 477.601562 586.402344 477 C 584.402344 476.300781 582.503906 475.601562 580.503906 475 C 579.101562 474.601562 577.703125 474.101562 576.304688 473.800781 C 574.304688 473.199219 572.304688 472.800781 570.203125 472.300781 C 568.804688 472 567.304688 471.601562 565.804688 471.398438 C 563.703125 471 561.601562 470.699219 559.402344 470.398438 C 558.003906 470.199219 556.503906 470 555.101562 469.898438 C 552.804688 469.699219 550.402344 469.601562 548.101562 469.5 C 546.804688 469.5 545.503906 469.398438 544.203125 469.300781 C 542.601562 469.300781 541.003906 469.398438 539.402344 469.5 C 536.804688 469.601562 534.304688 469.601562 531.804688 469.898438 C 530.601562 470 529.304688 470.199219 528.003906 470.398438 C 525.503906 470.699219 523.003906 471.101562 520.503906 471.5 C 519.003906 471.800781 517.402344 472.101562 515.902344 472.5 C 513.902344 473 511.902344 473.5 510.003906 474 C 508.003906 474.5 506.304688 475 504.503906 475.699219 C 503.101562 476.101562 501.804688 476.699219 500.503906 477.199219 C 489.304688 481.398438 478.703125 487.199219 469.101562 494.398438 L 467.804688 495.398438 C 465.703125 497.101562 463.601562 498.800781 461.601562 500.601562 L 459.503906 502.5 C 457.703125 504.101562 456.003906 505.800781 454.304688 507.601562 C 453.304688 508.699219 452.304688 509.800781 451.304688 510.898438 C 450.101562 512.300781 448.703125 513.800781 447.503906 515.300781 C 442.804688 521.101562 438.601562 527.398438 434.902344 534 L 434.804688 534.101562 C 432.902344 537.5 431.304688 541 429.703125 544.601562 L 429.503906 545.101562 C 428.003906 548.601562 426.703125 552.101562 425.601562 555.800781 L 425.402344 556.5 C 424.304688 560 423.402344 563.601562 422.601562 567.199219 C 422.503906 567.601562 422.402344 568 422.304688 568.398438 C 421.804688 571.101562 421.402344 573.800781 421.101562 576.601562 C 420.902344 578.199219 420.601562 579.800781 420.503906 581.398438 C 420.304688 583.898438 420.203125 586.300781 420.101562 588.699219 C 420.101562 590.398438 419.902344 592.101562 419.902344 593.699219 C 419.902344 596.5 420.101562 599.199219 420.304688 601.898438 C 420.402344 603.199219 420.402344 604.601562 420.503906 605.898438 C 420.902344 609.898438 421.503906 613.800781 422.304688 617.601562 C 435.902344 684.398438 501.101562 727.5 567.902344 713.898438 C 634.703125 700.300781 677.804688 635.101562 664.203125 568.300781 C 658.203125 538.398438 641.601562 512 617.402344 493.898438 Z M 592.101562 641.300781 L 543.304688 592.5 L 494.503906 641.300781 L 543.304688 592.5 L 494.503906 543.699219 L 543.304688 592.5 L 592.101562 543.699219 L 543.304688 592.5 Z M 592.101562 641.300781 " style=" stroke:none;fill-rule:nonzero;fill:rgb(100%,31.372549%,13.72549%);fill-opacity:1;" />
<path d="M 420.402344 601.601562 C 420.203125 598.898438 420.003906 596.199219 420.003906 593.398438 C 420.003906 593.101562 420.003906 592.800781 420.003906 592.5 C 420.003906 591.101562 420.203125 589.699219 420.203125 588.300781 C 420.304688 585.800781 420.304688 583.398438 420.601562 581 C 420.703125 579.398438 421.003906 577.800781 421.203125 576.199219 C 421.503906 574.199219 421.601562 572.101562 422.003906 570 C 422.101562 569.300781 422.304688 568.699219 422.402344 568 C 422.503906 567.601562 422.601562 567.199219 422.703125 566.800781 C 423.503906 563.199219 424.402344 559.601562 425.503906 556.101562 L 425.703125 555.5 C 426.804688 551.898438 428.203125 548.300781 429.601562 544.800781 L 429.804688 544.300781 C 431.304688 540.699219 433.003906 537.199219 434.902344 533.800781 L 435.003906 533.699219 C 438.601562 527.101562 442.804688 520.898438 447.601562 515 C 448.804688 513.5 450.101562 512 451.402344 510.601562 C 452.402344 509.5 453.402344 508.398438 454.402344 507.300781 C 456.101562 505.5 457.804688 503.898438 459.601562 502.199219 L 461.703125 500.300781 C 463.703125 498.5 465.804688 496.800781 467.902344 495.101562 L 469.203125 494.101562 C 478.804688 486.898438 489.304688 481.101562 500.601562 476.898438 C 501.902344 476.398438 503.304688 475.898438 504.601562 475.398438 C 506.402344 474.800781 508.304688 474.300781 510.101562 473.699219 C 511.902344 473.199219 514.003906 472.601562 516.003906 472.199219 C 517.503906 471.898438 519.101562 471.5 520.601562 471.199219 C 523.101562 470.699219 525.503906 470.398438 528.101562 470.101562 C 529.304688 469.898438 530.601562 469.800781 531.902344 469.601562 C 532.402344 469.601562 532.804688 469.5 533.304688 469.398438 C 535.402344 469.199219 537.402344 469.300781 539.503906 469.199219 C 540.804688 469.199219 542.101562 469 543.402344 469 C 543.703125 469 544.003906 469 544.304688 469 C 545.601562 469 546.902344 469.101562 548.203125 469.199219 C 550.601562 469.300781 552.902344 469.398438 555.203125 469.601562 C 556.601562 469.699219 558.101562 469.898438 559.503906 470.101562 C 561.601562 470.398438 563.804688 470.699219 565.902344 471.101562 C 567.402344 471.398438 568.804688 471.699219 570.304688 472 C 572.304688 472.5 574.402344 473 576.402344 473.5 C 577.804688 473.898438 579.203125 474.300781 580.601562 474.699219 C 582.601562 475.300781 584.503906 476 586.503906 476.699219 C 587.804688 477.199219 589.203125 477.699219 590.503906 478.300781 C 592.503906 479.101562 594.402344 480 596.304688 480.898438 C 597.503906 481.5 598.804688 482 600.003906 482.699219 C 602.101562 483.800781 604.101562 484.898438 606.101562 486.101562 C 607.101562 486.699219 608.101562 487.199219 609.003906 487.800781 C 611.902344 489.601562 614.804688 491.601562 617.503906 493.601562 L 617.503906 24.699219 C 617.503906 11.101562 606.402344 0 592.804688 0 L 24.902344 0 C 11.304688 0 0.203125 11.101562 0.203125 24.699219 L 0.203125 592.5 C 0.203125 606.101562 11.304688 617.199219 24.902344 617.199219 L 422.402344 617.199219 C 421.601562 613.398438 421.003906 609.5 420.601562 605.5 C 420.503906 604.199219 420.503906 602.898438 420.402344 601.601562 Z M 61.902344 543.101562 Z M 333.503906 543.101562 Z M 382.902344 444.398438 L 234.804688 444.398438 L 234.804688 395 L 185.402344 395 L 185.402344 345.601562 L 111.304688 345.601562 L 111.304688 98.800781 L 506.304688 98.800781 L 506.304688 345.699219 L 432.203125 345.699219 L 432.203125 395 L 382.804688 395 L 382.804688 444.398438 Z M 382.902344 444.398438 " style=" stroke:none;fill-rule:nonzero;fill:rgb(87.843137%,87.843137%,88.627451%);fill-opacity:1;" />
<path d="M 500.503906 476.898438 C 489.304688 481.101562 478.703125 486.898438 469.101562 494.101562 C 478.703125 486.898438 489.304688 481.101562 500.503906 476.898438 Z M 500.503906 476.898438 " style=" stroke:none;fill-rule:nonzero;fill:rgb(87.843137%,87.843137%,88.627451%);fill-opacity:1;" />
<path d="M 576.304688 473.601562 C 574.304688 473 572.304688 472.601562 570.203125 472.101562 C 572.304688 472.601562 574.304688 473.101562 576.304688 473.601562 Z M 576.304688 473.601562 " style=" stroke:none;fill-rule:nonzero;fill:rgb(87.843137%,87.843137%,88.627451%);fill-opacity:1;" />
<path d="M 510.003906 473.800781 C 508.203125 474.300781 506.304688 474.800781 504.503906 475.5 C 506.304688 474.800781 508.203125 474.300781 510.003906 473.800781 Z M 510.003906 473.800781 " style=" stroke:none;fill-rule:nonzero;fill:rgb(87.843137%,87.843137%,88.627451%);fill-opacity:1;" />
<path d="M 531.804688 469.699219 C 530.601562 469.800781 529.304688 470 528.003906 470.199219 C 529.304688 470 530.503906 469.800781 531.804688 469.699219 Z M 531.804688 469.699219 " style=" stroke:none;fill-rule:nonzero;fill:rgb(87.843137%,87.843137%,88.627451%);fill-opacity:1;" />
<path d="M 420.402344 601.601562 C 420.503906 602.898438 420.503906 604.300781 420.601562 605.601562 C 420.503906 604.199219 420.503906 602.898438 420.402344 601.601562 Z M 420.402344 601.601562 " style=" stroke:none;fill-rule:nonzero;fill:rgb(87.843137%,87.843137%,88.627451%);fill-opacity:1;" />
<path d="M 565.902344 471.199219 C 563.804688 470.800781 561.703125 470.5 559.503906 470.199219 C 561.601562 470.5 563.804688 470.800781 565.902344 471.199219 Z M 565.902344 471.199219 " style=" stroke:none;fill-rule:nonzero;fill:rgb(87.843137%,87.843137%,88.627451%);fill-opacity:1;" />
<path d="M 555.203125 469.699219 C 552.902344 469.5 550.503906 469.398438 548.203125 469.300781 C 550.503906 469.398438 552.902344 469.5 555.203125 469.699219 Z M 555.203125 469.699219 " style=" stroke:none;fill-rule:nonzero;fill:rgb(87.843137%,87.843137%,88.627451%);fill-opacity:1;" />
<path d="M 606.003906 486.398438 C 604.003906 485.199219 602.003906 484 599.902344 483 C 602.003906 484 604.003906 485.101562 606.003906 486.398438 Z M 606.003906 486.398438 " style=" stroke:none;fill-rule:nonzero;fill:rgb(87.843137%,87.843137%,88.627451%);fill-opacity:1;" />
<path d="M 429.703125 544.300781 L 429.503906 544.800781 Z M 429.703125 544.300781 " style=" stroke:none;fill-rule:nonzero;fill:rgb(87.843137%,87.843137%,88.627451%);fill-opacity:1;" />
<path d="M 419.902344 593.398438 C 419.902344 591.699219 420.003906 590 420.101562 588.398438 C 420.101562 589.800781 419.902344 591.199219 419.902344 592.601562 C 419.902344 592.800781 419.902344 593.101562 419.902344 593.398438 Z M 419.902344 593.398438 " style=" stroke:none;fill-rule:nonzero;fill:rgb(87.843137%,87.843137%,88.627451%);fill-opacity:1;" />
<path d="M 596.304688 481.199219 C 594.402344 480.300781 592.503906 479.398438 590.503906 478.601562 C 592.402344 479.300781 594.402344 480.199219 596.304688 481.199219 Z M 596.304688 481.199219 " style=" stroke:none;fill-rule:nonzero;fill:rgb(87.843137%,87.843137%,88.627451%);fill-opacity:1;" />
<path d="M 586.503906 477 C 584.503906 476.300781 582.601562 475.601562 580.601562 475 C 582.503906 475.5 584.503906 476.199219 586.503906 477 Z M 586.503906 477 " style=" stroke:none;fill-rule:nonzero;fill:rgb(87.843137%,87.843137%,88.627451%);fill-opacity:1;" />
<path d="M 451.203125 510.601562 C 450.003906 512 448.601562 513.5 447.402344 515 C 448.601562 513.5 449.902344 512 451.203125 510.601562 Z M 451.203125 510.601562 " style=" stroke:none;fill-rule:nonzero;fill:rgb(87.843137%,87.843137%,88.627451%);fill-opacity:1;" />
<path d="M 467.804688 495.101562 C 465.703125 496.800781 463.601562 498.5 461.601562 500.300781 C 463.601562 498.5 465.703125 496.699219 467.804688 495.101562 Z M 467.804688 495.101562 " style=" stroke:none;fill-rule:nonzero;fill:rgb(87.843137%,87.843137%,88.627451%);fill-opacity:1;" />
<path d="M 434.804688 533.699219 L 434.703125 533.800781 Z M 434.804688 533.699219 " style=" stroke:none;fill-rule:nonzero;fill:rgb(87.843137%,87.843137%,88.627451%);fill-opacity:1;" />
<path d="M 422.601562 566.800781 C 422.503906 567.199219 422.402344 567.601562 422.304688 568 C 422.402344 567.601562 422.601562 567.199219 422.601562 566.800781 Z M 422.601562 566.800781 " style=" stroke:none;fill-rule:nonzero;fill:rgb(87.843137%,87.843137%,88.627451%);fill-opacity:1;" />
<path d="M 617.402344 493.898438 C 614.703125 491.800781 611.804688 489.898438 608.902344 488.101562 C 611.804688 489.898438 614.703125 491.800781 617.402344 493.898438 Z M 617.402344 493.898438 " style=" stroke:none;fill-rule:nonzero;fill:rgb(87.843137%,87.843137%,88.627451%);fill-opacity:1;" />
<path d="M 425.601562 555.5 L 425.402344 556.199219 Z M 425.601562 555.5 " style=" stroke:none;fill-rule:nonzero;fill:rgb(87.843137%,87.843137%,88.627451%);fill-opacity:1;" />
<path d="M 454.304688 507.300781 C 456.003906 505.601562 457.703125 503.898438 459.503906 502.199219 C 457.703125 503.800781 455.902344 505.5 454.304688 507.300781 Z M 454.304688 507.300781 " style=" stroke:none;fill-rule:nonzero;fill:rgb(87.843137%,87.843137%,88.627451%);fill-opacity:1;" />
<path d="M 539.402344 469.300781 C 541.003906 469.300781 542.601562 469.101562 544.203125 469.101562 C 543.902344 469.101562 543.601562 469.101562 543.304688 469.101562 C 542.003906 469.101562 540.703125 469.199219 539.402344 469.300781 Z M 539.402344 469.300781 " style=" stroke:none;fill-rule:nonzero;fill:rgb(87.843137%,87.843137%,88.627451%);fill-opacity:1;" />
<path d="M 520.503906 471.300781 C 518.902344 471.601562 517.402344 471.898438 515.902344 472.300781 C 517.402344 471.898438 519.003906 471.5 520.503906 471.300781 Z M 520.503906 471.300781 " style=" stroke:none;fill-rule:nonzero;fill:rgb(87.843137%,87.843137%,88.627451%);fill-opacity:1;" />
<path d="M 421.101562 576.199219 C 420.902344 577.800781 420.601562 579.398438 420.503906 581 C 420.601562 579.398438 420.902344 577.800781 421.101562 576.199219 Z M 421.101562 576.199219 " style=" stroke:none;fill-rule:nonzero;fill:rgb(87.843137%,87.843137%,88.627451%);fill-opacity:1;" />
<path d="M 432.304688 345.601562 L 506.304688 345.601562 L 506.304688 98.800781 L 456.902344 98.800781 L 456.902344 197.5 L 456.902344 98.800781 L 407.601562 98.800781 L 407.601562 197.5 L 407.601562 98.800781 L 358.203125 98.800781 L 358.203125 197.5 L 358.203125 98.800781 L 308.804688 98.800781 L 308.804688 197.5 L 308.804688 98.800781 L 259.402344 98.800781 L 259.402344 197.5 L 259.402344 98.800781 L 210.101562 98.800781 L 210.101562 197.5 L 210.101562 98.800781 L 160.703125 98.800781 L 160.703125 197.5 L 160.703125 98.800781 L 111.304688 98.800781 L 111.304688 345.601562 L 185.402344 345.601562 L 185.402344 395 L 234.804688 395 L 234.804688 444.398438 L 382.902344 444.398438 L 382.902344 395 L 432.304688 395 Z M 432.304688 345.601562 " style=" stroke:none;fill-rule:nonzero;fill:rgb(100%,85.490196%,26.666667%);fill-opacity:1;" />
<path d="M 148.304688 98.800781 L 173.003906 98.800781 L 173.003906 197.601562 L 148.304688 197.601562 Z M 148.304688 98.800781 " style=" stroke:none;fill-rule:nonzero;fill:rgb(100%,59.607843%,6.666667%);fill-opacity:1;" />
<path d="M 197.703125 98.800781 L 222.402344 98.800781 L 222.402344 197.601562 L 197.703125 197.601562 Z M 197.703125 98.800781 " style=" stroke:none;fill-rule:nonzero;fill:rgb(100%,59.607843%,6.666667%);fill-opacity:1;" />
<path d="M 247.101562 98.800781 L 271.804688 98.800781 L 271.804688 197.601562 L 247.101562 197.601562 Z M 247.101562 98.800781 " style=" stroke:none;fill-rule:nonzero;fill:rgb(100%,59.607843%,6.666667%);fill-opacity:1;" />
<path d="M 296.503906 98.800781 L 321.203125 98.800781 L 321.203125 197.601562 L 296.503906 197.601562 Z M 296.503906 98.800781 " style=" stroke:none;fill-rule:nonzero;fill:rgb(100%,59.607843%,6.666667%);fill-opacity:1;" />
<path d="M 345.804688 98.800781 L 370.503906 98.800781 L 370.503906 197.601562 L 345.804688 197.601562 Z M 345.804688 98.800781 " style=" stroke:none;fill-rule:nonzero;fill:rgb(100%,59.607843%,6.666667%);fill-opacity:1;" />
<path d="M 395.203125 98.800781 L 419.902344 98.800781 L 419.902344 197.601562 L 395.203125 197.601562 Z M 395.203125 98.800781 " style=" stroke:none;fill-rule:nonzero;fill:rgb(100%,59.607843%,6.666667%);fill-opacity:1;" />
<path d="M 444.601562 98.800781 L 469.304688 98.800781 L 469.304688 197.601562 L 444.601562 197.601562 Z M 444.601562 98.800781 " style=" stroke:none;fill-rule:nonzero;fill:rgb(100%,59.607843%,6.666667%);fill-opacity:1;" />
<path d="M 61.902344 530.800781 L 308.804688 530.800781 L 308.804688 555.5 L 61.902344 555.5 Z M 61.902344 530.800781 " style=" stroke:none;fill-rule:nonzero;fill:rgb(94.509804%,94.901961%,94.901961%);fill-opacity:1;" />
<path d="M 333.503906 530.800781 L 382.902344 530.800781 L 382.902344 555.5 L 333.503906 555.5 Z M 333.503906 530.800781 " style=" stroke:none;fill-rule:nonzero;fill:rgb(94.509804%,94.901961%,94.901961%);fill-opacity:1;" />
<path d="M 592.101562 653.601562 C 588.804688 653.601562 585.703125 652.300781 583.402344 650 L 485.902344 552.5 C 481.003906 547.800781 480.902344 539.898438 485.601562 535 C 490.304688 530.101562 498.203125 530 503.101562 534.699219 C 503.203125 534.800781 503.304688 534.898438 503.402344 535 L 600.902344 632.5 C 605.703125 637.300781 605.703125 645.101562 600.902344 650 C 598.503906 652.300781 595.402344 653.601562 592.101562 653.601562 Z M 592.101562 653.601562 " style=" stroke:none;fill-rule:nonzero;fill:rgb(94.509804%,94.901961%,94.901961%);fill-opacity:1;" />
<path d="M 494.601562 653.601562 C 487.804688 653.601562 482.304688 648.101562 482.304688 641.300781 C 482.304688 638 483.601562 634.898438 485.902344 632.601562 L 583.402344 535.101562 C 588.101562 530.199219 596.003906 530.101562 600.902344 534.800781 C 605.804688 539.5 605.902344 547.398438 601.203125 552.300781 C 601.101562 552.398438 601.003906 552.5 600.902344 552.601562 L 503.304688 650 C 501.003906 652.300781 497.902344 653.601562 494.601562 653.601562 Z M 494.601562 653.601562 " style=" stroke:none;fill-rule:nonzero;fill:rgb(94.509804%,94.901961%,94.901961%);fill-opacity:1;" />
</g>
</svg>