<svg xmlns="http://www.w3.org/2000/svg" height="775pt" version="1.1" viewBox="-26 0 775 775.70421" width="775pt">
<g id="surface1">
<path d="M 489.253906 553.101562 C 490.351562 551.898438 491.453125 550.699219 492.550781 549.5 C 491.453125 550.601562 490.351562 551.898438 489.253906 553.101562 Z M 489.253906 553.101562 " style=" stroke:none;fill-rule:nonzero;fill:rgb(87.843137%,87.843137%,88.627451%);fill-opacity:1;" />
<path d="M 576.550781 508.699219 C 579.253906 508.398438 582.050781 508.398438 584.753906 508.300781 C 582.550781 508.398438 580.253906 508.300781 578.050781 508.5 C 577.652344 508.601562 577.050781 508.699219 576.550781 508.699219 Z M 576.550781 508.699219 " style=" stroke:none;fill-rule:nonzero;fill:rgb(87.843137%,87.843137%,88.627451%);fill-opacity:1;" />
<path d="M 457.953125 668.601562 C 457.152344 664.5 456.453125 660.199219 456.050781 655.898438 C 456.550781 660.300781 457.152344 664.5 457.953125 668.601562 Z M 457.953125 668.601562 " style=" stroke:none;fill-rule:nonzero;fill:rgb(87.843137%,87.843137%,88.627451%);fill-opacity:1;" />
<path d="M 590.050781 508.101562 C 591.453125 508.101562 592.851562 508.199219 594.351562 508.300781 C 592.851562 508.199219 591.453125 508.101562 590.050781 508.101562 Z M 590.050781 508.101562 " style=" stroke:none;fill-rule:nonzero;fill:rgb(87.843137%,87.843137%,88.627451%);fill-opacity:1;" />
<path d="M 455.851562 651.699219 C 455.652344 648.800781 455.453125 645.800781 455.453125 642.800781 C 455.351562 645.800781 455.550781 648.699219 455.851562 651.699219 Z M 455.851562 651.699219 " style=" stroke:none;fill-rule:nonzero;fill:rgb(87.843137%,87.843137%,88.627451%);fill-opacity:1;" />
<path d="M 455.953125 629.398438 C 455.753906 632.101562 455.652344 634.800781 455.550781 637.300781 C 455.652344 634.699219 455.652344 632 455.953125 629.398438 Z M 455.953125 629.398438 " style=" stroke:none;fill-rule:nonzero;fill:rgb(87.843137%,87.843137%,88.627451%);fill-opacity:1;" />
<path d="M 461.253906 602.398438 C 460.050781 606.199219 459.050781 610.101562 458.253906 614 C 459.050781 610.101562 460.050781 606.199219 461.253906 602.398438 Z M 461.253906 602.398438 " style=" stroke:none;fill-rule:nonzero;fill:rgb(87.843137%,87.843137%,88.627451%);fill-opacity:1;" />
<path d="M 456.652344 624.199219 C 457.050781 621.199219 457.453125 618.199219 457.953125 615.300781 C 457.851562 616 457.652344 616.800781 457.453125 617.5 C 457.050781 619.800781 456.851562 622 456.652344 624.199219 Z M 456.652344 624.199219 " style=" stroke:none;fill-rule:nonzero;fill:rgb(87.843137%,87.843137%,88.627451%);fill-opacity:1;" />
<path d="M 660.152344 528.601562 C 659.152344 527.898438 658.050781 527.398438 656.953125 526.699219 C 658.050781 527.398438 659.152344 528 660.152344 528.601562 Z M 660.152344 528.601562 " style=" stroke:none;fill-rule:nonzero;fill:rgb(87.843137%,87.843137%,88.627451%);fill-opacity:1;" />
<path d="M 629.453125 514.398438 C 627.953125 513.898438 626.351562 513.5 624.851562 513.101562 C 626.351562 513.398438 627.851562 513.898438 629.453125 514.398438 Z M 629.453125 514.398438 " style=" stroke:none;fill-rule:nonzero;fill:rgb(87.843137%,87.843137%,88.627451%);fill-opacity:1;" />
<path d="M 650.453125 523.101562 C 649.152344 522.398438 647.753906 521.800781 646.453125 521.199219 C 647.753906 521.800781 649.152344 522.398438 650.453125 523.101562 Z M 650.453125 523.101562 " style=" stroke:none;fill-rule:nonzero;fill:rgb(87.843137%,87.843137%,88.627451%);fill-opacity:1;" />
<path d="M 640.152344 518.300781 C 638.753906 517.699219 637.253906 517.199219 635.851562 516.601562 C 637.253906 517.199219 638.753906 517.699219 640.152344 518.300781 Z M 640.152344 518.300781 " style=" stroke:none;fill-rule:nonzero;fill:rgb(87.843137%,87.843137%,88.627451%);fill-opacity:1;" />
<path d="M 485.050781 557.800781 C 479.953125 564.101562 475.351562 570.898438 471.453125 578 C 475.351562 570.898438 479.953125 564.199219 485.050781 557.800781 Z M 485.050781 557.800781 " style=" stroke:none;fill-rule:nonzero;fill:rgb(87.843137%,87.843137%,88.627451%);fill-opacity:1;" />
<path d="M 500.453125 541.898438 L 498.152344 544 Z M 500.453125 541.898438 " style=" stroke:none;fill-rule:nonzero;fill:rgb(87.843137%,87.843137%,88.627451%);fill-opacity:1;" />
<path d="M 508.652344 535.199219 L 507.253906 536.300781 Z M 508.652344 535.199219 " style=" stroke:none;fill-rule:nonzero;fill:rgb(87.843137%,87.843137%,88.627451%);fill-opacity:1;" />
<path d="M 465.753906 590.101562 C 464.152344 593.898438 462.753906 597.699219 461.550781 601.699219 C 462.753906 597.699219 464.152344 593.898438 465.753906 590.101562 Z M 465.753906 590.101562 " style=" stroke:none;fill-rule:nonzero;fill:rgb(87.843137%,87.843137%,88.627451%);fill-opacity:1;" />
<path d="M 618.253906 511.398438 C 616.652344 511 615.152344 510.699219 613.550781 510.398438 C 615.050781 510.800781 616.652344 511 618.253906 511.398438 Z M 618.253906 511.398438 " style=" stroke:none;fill-rule:nonzero;fill:rgb(87.843137%,87.843137%,88.627451%);fill-opacity:1;" />
<path d="M 572.453125 509.199219 C 569.753906 509.5 567.050781 509.898438 564.351562 510.398438 C 567.050781 510 569.753906 509.601562 572.453125 509.199219 Z M 572.453125 509.199219 " style=" stroke:none;fill-rule:nonzero;fill:rgb(87.843137%,87.843137%,88.627451%);fill-opacity:1;" />
<path d="M 606.550781 509.300781 C 604.953125 509.101562 603.453125 508.898438 601.851562 508.699219 C 603.453125 508.898438 605.050781 509.101562 606.550781 509.300781 Z M 606.550781 509.300781 " style=" stroke:none;fill-rule:nonzero;fill:rgb(87.843137%,87.843137%,88.627451%);fill-opacity:1;" />
<path d="M 471.351562 578.199219 C 469.351562 581.898438 467.550781 585.699219 465.851562 589.601562 C 467.550781 585.699219 469.351562 581.898438 471.351562 578.199219 Z M 471.351562 578.199219 " style=" stroke:none;fill-rule:nonzero;fill:rgb(87.843137%,87.843137%,88.627451%);fill-opacity:1;" />
<path d="M 546.953125 515 C 545.453125 515.5 544.050781 516 542.652344 516.601562 C 544.050781 516 545.550781 515.398438 546.953125 515 Z M 546.953125 515 " style=" stroke:none;fill-rule:nonzero;fill:rgb(87.843137%,87.843137%,88.627451%);fill-opacity:1;" />
<path d="M 559.351562 511.5 C 557.152344 512 555.050781 512.5 552.953125 513.101562 C 555.050781 512.601562 557.152344 512 559.351562 511.5 Z M 559.351562 511.5 " style=" stroke:none;fill-rule:nonzero;fill:rgb(87.843137%,87.843137%,88.627451%);fill-opacity:1;" />
<path d="M 669.351562 535 C 666.351562 532.800781 663.351562 530.699219 660.152344 528.699219 C 659.152344 528 658.050781 527.5 656.953125 526.800781 C 654.753906 525.5 652.652344 524.199219 650.351562 523.101562 C 649.050781 522.398438 647.652344 521.800781 646.351562 521.199219 C 644.253906 520.199219 642.152344 519.199219 640.050781 518.300781 C 638.652344 517.699219 637.152344 517.199219 635.753906 516.601562 C 633.652344 515.800781 631.550781 515.101562 629.351562 514.398438 C 627.851562 513.898438 626.253906 513.5 624.753906 513.101562 C 622.550781 512.5 620.351562 512 618.152344 511.5 C 616.550781 511.101562 615.050781 510.800781 613.453125 510.5 C 611.152344 510.101562 608.851562 509.800781 606.550781 509.398438 C 604.953125 509.199219 603.453125 509 601.851562 508.800781 C 599.351562 508.601562 596.753906 508.398438 594.253906 508.300781 C 592.851562 508.300781 591.453125 508.101562 589.953125 508.101562 C 588.253906 508.101562 586.453125 508.199219 584.753906 508.300781 C 581.953125 508.398438 579.253906 508.5 576.550781 508.699219 C 575.253906 508.800781 573.851562 509 572.453125 509.199219 C 569.753906 509.5 567.050781 509.898438 564.351562 510.398438 C 562.652344 510.699219 561.050781 511.101562 559.351562 511.5 C 557.152344 512 555.050781 512.601562 552.953125 513.101562 C 550.851562 513.699219 548.953125 514.199219 547.050781 514.898438 C 545.550781 515.398438 544.152344 515.898438 542.753906 516.5 C 530.550781 521 519.152344 527.300781 508.753906 535.101562 L 507.351562 536.199219 C 505.050781 538 502.753906 539.898438 500.550781 541.800781 L 498.253906 543.898438 C 496.351562 545.699219 494.453125 547.5 492.652344 549.398438 C 491.550781 550.601562 490.453125 551.800781 489.351562 553 C 488.050781 554.601562 486.550781 556.101562 485.152344 557.800781 C 480.050781 564.101562 475.453125 570.898438 471.550781 578 L 471.453125 578.101562 C 469.453125 581.800781 467.652344 585.601562 465.953125 589.5 L 465.753906 590 C 464.152344 593.800781 462.753906 597.601562 461.550781 601.601562 L 461.351562 602.300781 C 460.152344 606.101562 459.253906 610 458.351562 613.898438 C 458.253906 614.300781 458.152344 614.800781 458.050781 615.199219 C 457.453125 618.101562 457.152344 621.101562 456.753906 624.101562 C 456.550781 625.800781 456.253906 627.601562 456.050781 629.300781 C 455.851562 632 455.753906 634.699219 455.652344 637.199219 C 455.652344 639 455.453125 640.898438 455.453125 642.699219 C 455.453125 645.699219 455.652344 648.601562 455.851562 651.601562 C 455.953125 653 455.953125 654.5 456.152344 655.898438 C 456.652344 660.199219 457.253906 664.398438 458.050781 668.601562 C 472.851562 741 543.453125 787.699219 615.851562 773 C 688.253906 758.199219 734.953125 687.601562 720.253906 615.199219 C 713.550781 583.199219 695.550781 554.601562 669.351562 535 Z M 562.351562 695.398438 L 518.953125 652 L 562.351562 695.398438 L 662.453125 595.300781 Z M 562.351562 695.398438 " style=" stroke:none;fill-rule:nonzero;fill:rgb(56.862745%,86.27451%,35.294118%);fill-opacity:1;" />
<path d="M 455.851562 651.699219 C 455.652344 648.800781 455.453125 645.800781 455.453125 642.800781 C 455.453125 642.5 455.453125 642.199219 455.453125 641.898438 C 455.453125 640.398438 455.652344 638.898438 455.652344 637.398438 C 455.753906 634.699219 455.851562 632.101562 456.050781 629.5 C 456.253906 627.699219 456.453125 626 456.753906 624.300781 C 457.050781 622.101562 457.253906 619.898438 457.652344 617.601562 C 457.753906 616.898438 457.953125 616.101562 458.152344 615.398438 C 458.253906 615 458.351562 614.5 458.453125 614.101562 C 459.253906 610.199219 460.253906 606.300781 461.453125 602.5 L 461.652344 601.898438 C 462.851562 598 464.351562 594.101562 465.851562 590.300781 L 466.050781 589.800781 C 467.753906 585.898438 469.550781 582.101562 471.550781 578.398438 L 471.652344 578.300781 C 475.550781 571.199219 480.152344 564.398438 485.253906 558.101562 C 486.550781 556.5 488.050781 554.898438 489.453125 553.300781 C 490.550781 552.101562 491.652344 550.898438 492.753906 549.699219 C 494.550781 547.800781 496.453125 546 498.351562 544.199219 L 500.652344 542.101562 C 502.851562 540.199219 505.050781 538.300781 507.453125 536.5 L 508.851562 535.398438 C 519.253906 527.601562 530.652344 521.300781 542.851562 516.800781 C 544.253906 516.300781 545.753906 515.699219 547.152344 515.199219 C 549.152344 514.5 551.152344 514 553.050781 513.398438 C 554.953125 512.800781 557.351562 512.199219 559.453125 511.800781 C 561.152344 511.398438 562.753906 511.101562 564.453125 510.699219 C 567.152344 510.199219 569.851562 509.800781 572.550781 509.5 C 573.851562 509.300781 575.253906 509.101562 576.652344 509 C 577.152344 509 577.652344 508.898438 578.152344 508.800781 C 580.453125 508.601562 582.652344 508.601562 584.851562 508.601562 C 586.253906 508.601562 587.652344 508.398438 589.152344 508.398438 C 589.453125 508.398438 589.753906 508.398438 590.050781 508.398438 C 591.453125 508.398438 592.851562 508.5 594.351562 508.601562 C 596.953125 508.699219 599.453125 508.800781 601.953125 509.101562 C 603.550781 509.199219 605.050781 509.5 606.652344 509.699219 C 608.953125 510 611.253906 510.300781 613.550781 510.800781 C 615.152344 511.101562 616.753906 511.398438 618.253906 511.800781 C 620.453125 512.300781 622.652344 512.800781 624.851562 513.398438 C 626.453125 513.800781 627.953125 514.300781 629.453125 514.699219 C 631.652344 515.398438 633.753906 516.101562 635.851562 516.898438 C 637.351562 517.398438 638.753906 518 640.152344 518.601562 C 642.253906 519.5 644.351562 520.5 646.453125 521.5 C 647.753906 522.101562 649.152344 522.699219 650.453125 523.398438 C 652.652344 524.601562 654.851562 525.800781 657.050781 527.101562 C 658.152344 527.699219 659.152344 528.300781 660.253906 529 C 663.453125 531 666.453125 533.101562 669.453125 535.300781 L 669.453125 26.800781 C 669.453125 12 657.453125 0 642.652344 0 L 27.152344 0 C 12.351562 0 0.351562 12 0.351562 26.800781 L 0.351562 642.199219 C 0.351562 657 12.351562 669 27.152344 669 L 457.953125 669 C 457.152344 664.898438 456.453125 660.601562 456.050781 656.300781 C 455.953125 654.5 455.953125 653.101562 455.851562 651.699219 Z M 67.351562 588.398438 Z M 361.652344 588.398438 Z M 415.152344 481.300781 L 254.652344 481.300781 L 254.652344 427.800781 L 201.152344 427.800781 L 201.152344 374.300781 L 120.851562 374.300781 L 120.851562 106.699219 L 548.953125 106.699219 L 548.953125 374.300781 L 468.652344 374.300781 L 468.652344 427.800781 L 415.152344 427.800781 Z M 415.152344 481.300781 " style=" stroke:none;fill-rule:nonzero;fill:rgb(87.843137%,87.843137%,88.627451%);fill-opacity:1;" />
<path d="M 458.253906 614 C 458.152344 614.398438 458.050781 614.898438 457.953125 615.300781 C 458.050781 614.898438 458.152344 614.5 458.253906 614 Z M 458.253906 614 " style=" stroke:none;fill-rule:nonzero;fill:rgb(87.843137%,87.843137%,88.627451%);fill-opacity:1;" />
<path d="M 461.453125 601.699219 L 461.253906 602.398438 Z M 461.453125 601.699219 " style=" stroke:none;fill-rule:nonzero;fill:rgb(87.843137%,87.843137%,88.627451%);fill-opacity:1;" />
<path d="M 492.550781 549.5 C 494.351562 547.601562 496.253906 545.800781 498.152344 544 C 496.253906 545.800781 494.351562 547.601562 492.550781 549.5 Z M 492.550781 549.5 " style=" stroke:none;fill-rule:nonzero;fill:rgb(87.843137%,87.843137%,88.627451%);fill-opacity:1;" />
<path d="M 455.351562 642.800781 C 455.351562 641 455.453125 639.101562 455.550781 637.300781 C 455.550781 638.800781 455.351562 640.300781 455.351562 641.800781 C 455.351562 642.199219 455.351562 642.5 455.351562 642.800781 Z M 455.351562 642.800781 " style=" stroke:none;fill-rule:nonzero;fill:rgb(87.843137%,87.843137%,88.627451%);fill-opacity:1;" />
<path d="M 455.851562 651.699219 C 455.953125 653.101562 455.953125 654.601562 456.152344 656 C 455.953125 654.5 455.953125 653.101562 455.851562 651.699219 Z M 455.851562 651.699219 " style=" stroke:none;fill-rule:nonzero;fill:rgb(87.843137%,87.843137%,88.627451%);fill-opacity:1;" />
<path d="M 456.652344 624.199219 C 456.453125 625.898438 456.152344 627.601562 455.953125 629.398438 C 456.050781 627.699219 456.351562 625.898438 456.652344 624.199219 Z M 456.652344 624.199219 " style=" stroke:none;fill-rule:nonzero;fill:rgb(87.843137%,87.843137%,88.627451%);fill-opacity:1;" />
<path d="M 624.851562 513 C 622.652344 512.398438 620.453125 511.898438 618.253906 511.398438 C 620.453125 511.898438 622.652344 512.398438 624.851562 513 Z M 624.851562 513 " style=" stroke:none;fill-rule:nonzero;fill:rgb(87.843137%,87.843137%,88.627451%);fill-opacity:1;" />
<path d="M 669.351562 535 C 666.351562 532.800781 663.351562 530.699219 660.152344 528.699219 C 663.351562 530.601562 666.351562 532.699219 669.351562 535 Z M 669.351562 535 " style=" stroke:none;fill-rule:nonzero;fill:rgb(87.843137%,87.843137%,88.627451%);fill-opacity:1;" />
<path d="M 635.753906 516.601562 C 633.652344 515.800781 631.550781 515.101562 629.351562 514.398438 C 631.550781 515.101562 633.652344 515.800781 635.753906 516.601562 Z M 635.753906 516.601562 " style=" stroke:none;fill-rule:nonzero;fill:rgb(87.843137%,87.843137%,88.627451%);fill-opacity:1;" />
<path d="M 601.953125 508.800781 C 599.453125 508.601562 596.851562 508.5 594.351562 508.300781 C 596.851562 508.398438 599.453125 508.5 601.953125 508.800781 Z M 601.953125 508.800781 " style=" stroke:none;fill-rule:nonzero;fill:rgb(87.843137%,87.843137%,88.627451%);fill-opacity:1;" />
<path d="M 613.550781 510.398438 C 611.253906 510 608.953125 509.699219 606.652344 509.300781 C 608.953125 509.601562 611.253906 510 613.550781 510.398438 Z M 613.550781 510.398438 " style=" stroke:none;fill-rule:nonzero;fill:rgb(87.843137%,87.843137%,88.627451%);fill-opacity:1;" />
<path d="M 656.953125 526.800781 C 654.753906 525.5 652.652344 524.199219 650.351562 523.101562 C 652.652344 524.199219 654.851562 525.5 656.953125 526.800781 Z M 656.953125 526.800781 " style=" stroke:none;fill-rule:nonzero;fill:rgb(87.843137%,87.843137%,88.627451%);fill-opacity:1;" />
<path d="M 646.453125 521.199219 C 644.351562 520.199219 642.253906 519.199219 640.152344 518.300781 C 642.253906 519.199219 644.351562 520.101562 646.453125 521.199219 Z M 646.453125 521.199219 " style=" stroke:none;fill-rule:nonzero;fill:rgb(87.843137%,87.843137%,88.627451%);fill-opacity:1;" />
<path d="M 564.351562 510.5 C 562.652344 510.800781 561.050781 511.199219 559.351562 511.601562 C 560.953125 511.101562 562.652344 510.800781 564.351562 510.5 Z M 564.351562 510.5 " style=" stroke:none;fill-rule:nonzero;fill:rgb(87.843137%,87.843137%,88.627451%);fill-opacity:1;" />
<path d="M 507.253906 536.199219 C 504.953125 538 502.652344 539.898438 500.453125 541.800781 C 502.652344 539.898438 504.953125 538 507.253906 536.199219 Z M 507.253906 536.199219 " style=" stroke:none;fill-rule:nonzero;fill:rgb(87.843137%,87.843137%,88.627451%);fill-opacity:1;" />
<path d="M 542.652344 516.601562 C 530.453125 521.101562 519.050781 527.398438 508.652344 535.199219 C 519.050781 527.398438 530.453125 521.101562 542.652344 516.601562 Z M 542.652344 516.601562 " style=" stroke:none;fill-rule:nonzero;fill:rgb(87.843137%,87.843137%,88.627451%);fill-opacity:1;" />
<path d="M 471.453125 578.101562 L 471.351562 578.199219 Z M 471.453125 578.101562 " style=" stroke:none;fill-rule:nonzero;fill:rgb(87.843137%,87.843137%,88.627451%);fill-opacity:1;" />
<path d="M 552.953125 513.199219 C 550.953125 513.800781 548.953125 514.300781 547.050781 515 C 548.953125 514.300781 550.953125 513.699219 552.953125 513.199219 Z M 552.953125 513.199219 " style=" stroke:none;fill-rule:nonzero;fill:rgb(87.843137%,87.843137%,88.627451%);fill-opacity:1;" />
<path d="M 576.550781 508.699219 C 575.253906 508.800781 573.851562 509 572.453125 509.199219 C 573.851562 509 575.253906 508.800781 576.550781 508.699219 Z M 576.550781 508.699219 " style=" stroke:none;fill-rule:nonzero;fill:rgb(87.843137%,87.843137%,88.627451%);fill-opacity:1;" />
<path d="M 465.953125 589.601562 L 465.753906 590.101562 Z M 465.953125 589.601562 " style=" stroke:none;fill-rule:nonzero;fill:rgb(87.843137%,87.843137%,88.627451%);fill-opacity:1;" />
<path d="M 489.253906 553.101562 C 487.953125 554.699219 486.453125 556.199219 485.050781 557.898438 C 486.453125 556.199219 487.851562 554.601562 489.253906 553.101562 Z M 489.253906 553.101562 " style=" stroke:none;fill-rule:nonzero;fill:rgb(87.843137%,87.843137%,88.627451%);fill-opacity:1;" />
<path d="M 584.851562 508.300781 C 586.550781 508.300781 588.351562 508.101562 590.050781 508.101562 C 589.753906 508.101562 589.453125 508.101562 589.152344 508.101562 C 587.652344 508.101562 586.253906 508.300781 584.851562 508.300781 Z M 584.851562 508.300781 " style=" stroke:none;fill-rule:nonzero;fill:rgb(87.843137%,87.843137%,88.627451%);fill-opacity:1;" />
<path d="M 468.652344 374.300781 L 548.953125 374.300781 L 548.953125 106.699219 L 495.453125 106.699219 L 495.453125 213.800781 L 495.453125 106.699219 L 441.953125 106.699219 L 441.953125 213.800781 L 441.953125 106.699219 L 388.453125 106.699219 L 388.453125 213.800781 L 388.453125 106.699219 L 334.851562 106.699219 L 334.851562 213.800781 L 334.851562 106.699219 L 281.351562 106.699219 L 281.351562 213.800781 L 281.351562 106.699219 L 227.851562 106.699219 L 227.851562 213.800781 L 227.851562 106.699219 L 174.351562 106.699219 L 174.351562 213.800781 L 174.351562 106.699219 L 120.851562 106.699219 L 120.851562 374.300781 L 201.152344 374.300781 L 201.152344 427.800781 L 254.652344 427.800781 L 254.652344 481.300781 L 415.152344 481.300781 L 415.152344 427.800781 L 468.652344 427.800781 Z M 468.652344 374.300781 " style=" stroke:none;fill-rule:nonzero;fill:rgb(100%,85.490196%,26.666667%);fill-opacity:1;" />
<path d="M 160.953125 106.699219 L 187.753906 106.699219 L 187.753906 213.699219 L 160.953125 213.699219 Z M 160.953125 106.699219 " style=" stroke:none;fill-rule:nonzero;fill:rgb(100%,59.607843%,6.666667%);fill-opacity:1;" />
<path d="M 214.453125 106.699219 L 241.253906 106.699219 L 241.253906 213.699219 L 214.453125 213.699219 Z M 214.453125 106.699219 " style=" stroke:none;fill-rule:nonzero;fill:rgb(100%,59.607843%,6.666667%);fill-opacity:1;" />
<path d="M 268.050781 106.699219 L 294.851562 106.699219 L 294.851562 213.699219 L 268.050781 213.699219 Z M 268.050781 106.699219 " style=" stroke:none;fill-rule:nonzero;fill:rgb(100%,59.607843%,6.666667%);fill-opacity:1;" />
<path d="M 321.550781 106.699219 L 348.351562 106.699219 L 348.351562 213.699219 L 321.550781 213.699219 Z M 321.550781 106.699219 " style=" stroke:none;fill-rule:nonzero;fill:rgb(100%,59.607843%,6.666667%);fill-opacity:1;" />
<path d="M 375.050781 106.699219 L 401.851562 106.699219 L 401.851562 213.699219 L 375.050781 213.699219 Z M 375.050781 106.699219 " style=" stroke:none;fill-rule:nonzero;fill:rgb(100%,59.607843%,6.666667%);fill-opacity:1;" />
<path d="M 428.550781 106.699219 L 455.351562 106.699219 L 455.351562 213.699219 L 428.550781 213.699219 Z M 428.550781 106.699219 " style=" stroke:none;fill-rule:nonzero;fill:rgb(100%,59.607843%,6.666667%);fill-opacity:1;" />
<path d="M 482.050781 106.699219 L 508.851562 106.699219 L 508.851562 213.699219 L 482.050781 213.699219 Z M 482.050781 106.699219 " style=" stroke:none;fill-rule:nonzero;fill:rgb(100%,59.607843%,6.666667%);fill-opacity:1;" />
<path d="M 562.351562 708.800781 C 558.851562 708.800781 555.351562 707.398438 552.851562 704.898438 L 509.453125 661.5 C 504.351562 656.199219 504.453125 647.699219 509.753906 642.601562 C 514.953125 637.601562 523.152344 637.601562 528.351562 642.601562 L 562.253906 676.5 L 652.953125 585.800781 C 658.253906 580.699219 666.753906 580.800781 671.851562 586.101562 C 676.851562 591.300781 676.851562 599.5 671.851562 604.699219 L 571.753906 704.800781 C 569.253906 707.398438 565.851562 708.800781 562.351562 708.800781 Z M 562.351562 708.800781 " style=" stroke:none;fill-rule:nonzero;fill:rgb(94.509804%,94.901961%,94.901961%);fill-opacity:1;" />
<path d="M 67.351562 575 L 334.953125 575 L 334.953125 601.800781 L 67.351562 601.800781 Z M 67.351562 575 " style=" stroke:none;fill-rule:nonzero;fill:rgb(94.509804%,94.901961%,94.901961%);fill-opacity:1;" />
<path d="M 361.652344 575 L 415.152344 575 L 415.152344 601.800781 L 361.652344 601.800781 Z M 361.652344 575 " style=" stroke:none;fill-rule:nonzero;fill:rgb(94.509804%,94.901961%,94.901961%);fill-opacity:1;" />
</g>
</svg>