<svg xmlns="http://www.w3.org/2000/svg" height="464pt" version="1.1" viewBox="-40 0 464 464" width="464pt">
<g id="surface1">
<path d="M 384 384 L 0 384 L 0 464 L 384 464 Z M 280 424 Z M 320 424 Z M 320 424 " style=" stroke:none;fill-rule:nonzero;fill:rgb(34.117647%,64.313725%,100%);fill-opacity:1;" />
<path d="M 384 368 L 352 0 L 32 0 L 0 368 L 0 384 L 384 384 Z M 192 264 C 121.304688 264 64 228.183594 64 184 C 64 139.816406 121.304688 104 192 104 C 262.695312 104 320 139.816406 320 184 C 320 228.183594 262.695312 264 192 264 Z M 192 264 " style=" stroke:none;fill-rule:nonzero;fill:rgb(87.843137%,87.843137%,88.627451%);fill-opacity:1;" />
<path d="M 192 104 C 121.304688 104 64 139.816406 64 184 L 184 184 C 184 179.582031 187.582031 176 192 176 C 196.417969 176 200 179.582031 200 184 C 200 188.417969 196.417969 192 192 192 C 187.582031 192 184 188.417969 184 184 L 64 184 C 64 228.183594 121.304688 264 192 264 C 262.695312 264 320 228.183594 320 184 C 320 139.816406 262.695312 104 192 104 Z M 192 104 " style=" stroke:none;fill-rule:nonzero;fill:rgb(14.117647%,53.333333%,100%);fill-opacity:1;" />
<path d="M 192 192 C 196.417969 192 200 188.417969 200 184 C 200 179.582031 196.417969 176 192 176 C 187.582031 176 184 179.582031 184 184 C 184 188.417969 187.582031 192 192 192 Z M 192 192 " style=" stroke:none;fill-rule:nonzero;fill:rgb(87.843137%,87.843137%,88.627451%);fill-opacity:1;" />
<path d="M 320 416 L 352 416 L 352 432 L 320 432 Z M 320 416 " style=" stroke:none;fill-rule:nonzero;fill:rgb(12.941176%,25.098039%,60.392157%);fill-opacity:1;" />
<path d="M 280 416 L 312 416 L 312 432 L 280 432 Z M 280 416 " style=" stroke:none;fill-rule:nonzero;fill:rgb(12.941176%,25.098039%,60.392157%);fill-opacity:1;" />
<path d="M 192 200 C 183.164062 200 176 192.835938 176 184 C 176 175.164062 183.164062 168 192 168 C 200.835938 168 208 175.164062 208 184 C 208 192.835938 200.835938 200 192 200 Z M 192 184 Z M 192 184 " style=" stroke:none;fill-rule:nonzero;fill:rgb(12.941176%,25.098039%,60.392157%);fill-opacity:1;" />
<path d="M 64 176 L 192 176 L 192 192 L 64 192 Z M 64 176 " style=" stroke:none;fill-rule:nonzero;fill:rgb(12.941176%,25.098039%,60.392157%);fill-opacity:1;" />
</g>
</svg>