<svg xmlns="http://www.w3.org/2000/svg" height="511pt" version="1.1" viewBox="-44 1 511 511.99994" width="511pt">
<g id="surface1">
<path d="M 18.15625 512 L 406.570312 512 C 416.320312 512 424.222656 504.09375 424.222656 494.34375 L 424.222656 450.207031 L 397.828125 417.773438 C 392.609375 411.367188 392.535156 402.199219 397.644531 395.707031 L 424.222656 361.929688 L 424.222656 17.65625 C 424.222656 7.90625 416.320312 0 406.570312 0 L 18.15625 0 C 8.402344 0 0.5 7.90625 0.5 17.65625 L 0.5 361.929688 L 26.984375 394.65625 C 32.175781 401.082031 32.214844 410.25 27.078125 416.722656 L 0.5 450.207031 L 0.5 494.34375 C 0.5 504.097656 8.402344 512 18.15625 512 Z M 380.085938 476.691406 C 375.210938 476.691406 371.257812 472.738281 371.257812 467.863281 C 371.257812 462.988281 375.210938 459.035156 380.085938 459.035156 C 384.960938 459.035156 388.914062 462.988281 388.914062 467.863281 C 388.914062 472.738281 384.960938 476.691406 380.085938 476.691406 Z M 380.085938 35.308594 C 384.960938 35.308594 388.914062 39.261719 388.914062 44.136719 C 388.914062 49.011719 384.960938 52.964844 380.085938 52.964844 C 375.210938 52.964844 371.257812 49.011719 371.257812 44.136719 C 371.257812 39.261719 375.210938 35.308594 380.085938 35.308594 Z M 44.636719 52.964844 C 39.761719 52.964844 35.808594 49.011719 35.808594 44.136719 C 35.808594 39.261719 39.761719 35.3125 44.636719 35.3125 C 49.511719 35.3125 53.464844 39.261719 53.464844 44.136719 C 53.464844 49.011719 49.511719 52.964844 44.636719 52.964844 Z M 89.304688 448.351562 L 141.917969 354.25 C 64.410156 315.566406 32.9375 221.375 71.621094 143.867188 C 110.304688 66.359375 204.496094 34.886719 282.003906 73.570312 C 359.511719 112.253906 390.984375 206.445312 352.300781 283.953125 C 318.277344 352.125 240.183594 385.988281 167.164062 364.226562 L 154.375 459.035156 L 153.394531 466.273438 C 152.007812 475.859375 143.109375 482.507812 133.523438 481.121094 C 132.902344 481.03125 132.285156 480.90625 131.679688 480.75 L 100.957031 473.070312 C 91.527344 470.757812 85.753906 461.238281 88.066406 451.804688 C 88.359375 450.613281 88.773438 449.457031 89.304688 448.351562 Z M 89.304688 448.351562 " style=" stroke:none;fill-rule:nonzero;fill:rgb(87.843137%,87.843137%,88.627451%);fill-opacity:1;" />
<path d="M 167.164062 364.226562 C 251.527344 389.5 340.40625 341.59375 365.679688 257.230469 C 390.953125 172.867188 343.050781 83.988281 258.683594 58.714844 C 174.320312 33.445312 85.441406 81.347656 60.167969 165.710938 C 37.890625 240.078125 72.40625 319.683594 141.917969 354.25 L 177.050781 291.308594 Z M 317.773438 152.867188 L 287.191406 170.523438 Z M 311.742188 269.242188 L 281.164062 251.585938 Z M 252.085938 280.664062 L 269.742188 311.242188 Z M 88.777344 211.863281 C 88.777344 205.957031 89.195312 200.054688 90.027344 194.207031 C 89.195312 200.054688 88.777344 205.957031 88.777344 211.863281 Z M 96.773438 168.113281 C 115.007812 120.097656 161 88.332031 212.359375 88.277344 C 161 88.332031 115.011719 120.097656 96.773438 168.113281 Z M 159.398438 211.863281 C 159.398438 182.609375 183.109375 158.898438 212.363281 158.898438 C 241.613281 158.898438 265.328125 182.609375 265.328125 211.863281 C 265.328125 241.113281 241.613281 264.828125 212.363281 264.828125 C 183.109375 264.828125 159.398438 241.113281 159.398438 211.863281 Z M 159.398438 211.863281 " style=" stroke:none;fill-rule:nonzero;fill:rgb(53.72549%,53.333333%,56.470588%);fill-opacity:1;" />
<path d="M 53.464844 44.136719 C 53.464844 49.011719 49.511719 52.964844 44.636719 52.964844 C 39.761719 52.964844 35.808594 49.011719 35.808594 44.136719 C 35.808594 39.261719 39.761719 35.3125 44.636719 35.3125 C 49.511719 35.3125 53.464844 39.261719 53.464844 44.136719 Z M 53.464844 44.136719 " style=" stroke:none;fill-rule:nonzero;fill:rgb(87.843137%,87.843137%,88.627451%);fill-opacity:1;" />
<path d="M 388.914062 44.136719 C 388.914062 49.011719 384.960938 52.964844 380.085938 52.964844 C 375.210938 52.964844 371.257812 49.011719 371.257812 44.136719 C 371.257812 39.261719 375.210938 35.3125 380.085938 35.3125 C 384.960938 35.3125 388.914062 39.261719 388.914062 44.136719 Z M 388.914062 44.136719 " style=" stroke:none;fill-rule:nonzero;fill:rgb(87.843137%,87.843137%,88.627451%);fill-opacity:1;" />
<path d="M 388.914062 467.863281 C 388.914062 472.738281 384.960938 476.691406 380.085938 476.691406 C 375.210938 476.691406 371.257812 472.738281 371.257812 467.863281 C 371.257812 462.988281 375.210938 459.035156 380.085938 459.035156 C 384.960938 459.035156 388.914062 462.988281 388.914062 467.863281 Z M 388.914062 467.863281 " style=" stroke:none;fill-rule:nonzero;fill:rgb(87.843137%,87.843137%,88.627451%);fill-opacity:1;" />
<path d="M 100.957031 473.070312 L 131.675781 480.75 C 141.0625 483.15625 150.621094 477.5 153.023438 468.117188 C 153.179688 467.507812 153.304688 466.894531 153.394531 466.273438 L 154.371094 459.035156 L 167.164062 364.226562 L 177.050781 291.308594 L 141.917969 354.25 L 89.304688 448.351562 C 85.085938 457.101562 88.757812 467.613281 97.503906 471.832031 C 98.609375 472.363281 99.765625 472.777344 100.957031 473.070312 Z M 100.957031 473.070312 " style=" stroke:none;fill-rule:nonzero;fill:rgb(14.117647%,53.333333%,100%);fill-opacity:1;" />
<path d="M 265.328125 211.863281 C 265.328125 182.609375 241.613281 158.898438 212.363281 158.898438 C 183.109375 158.898438 159.398438 182.609375 159.398438 211.863281 C 159.398438 241.113281 183.109375 264.828125 212.363281 264.828125 C 241.613281 264.828125 265.328125 241.113281 265.328125 211.863281 Z M 194.707031 211.863281 C 194.707031 202.113281 202.613281 194.207031 212.363281 194.207031 C 222.113281 194.207031 230.019531 202.113281 230.019531 211.863281 C 230.019531 221.613281 222.113281 229.519531 212.363281 229.519531 C 202.613281 229.519531 194.707031 221.613281 194.707031 211.863281 Z M 194.707031 211.863281 " style=" stroke:none;fill-rule:nonzero;fill:rgb(14.117647%,53.333333%,100%);fill-opacity:1;" />
<path d="M 230.019531 211.863281 C 230.019531 221.613281 222.113281 229.519531 212.363281 229.519531 C 202.609375 229.519531 194.707031 221.613281 194.707031 211.863281 C 194.707031 202.109375 202.609375 194.207031 212.363281 194.207031 C 222.113281 194.207031 230.019531 202.109375 230.019531 211.863281 Z M 230.019531 211.863281 " style=" stroke:none;fill-rule:nonzero;fill:rgb(87.843137%,87.843137%,88.627451%);fill-opacity:1;" />
<path d="M 96.773438 176.941406 C 91.898438 176.9375 87.949219 172.980469 87.953125 168.105469 C 87.953125 167.035156 88.148438 165.976562 88.527344 164.980469 C 108.203125 113.648438 157.390625 79.675781 212.359375 79.449219 C 217.238281 79.449219 221.1875 83.402344 221.1875 88.277344 C 221.1875 93.152344 217.234375 97.101562 212.359375 97.101562 C 164.707031 97.300781 122.074219 126.753906 105.027344 171.253906 C 103.722656 174.679688 100.4375 176.941406 96.773438 176.941406 Z M 96.773438 176.941406 " style=" stroke:none;fill-rule:nonzero;fill:rgb(42.745098%,43.137255%,44.313725%);fill-opacity:1;" />
<path d="M 88.777344 220.691406 C 83.898438 220.691406 79.949219 216.738281 79.949219 211.863281 C 79.953125 205.535156 80.402344 199.21875 81.289062 192.953125 C 81.980469 188.125 86.457031 184.769531 91.285156 185.460938 C 96.117188 186.15625 99.46875 190.632812 98.777344 195.460938 C 97.996094 200.894531 97.605469 206.375 97.601562 211.863281 C 97.601562 216.738281 93.652344 220.691406 88.777344 220.691406 Z M 88.777344 220.691406 " style=" stroke:none;fill-rule:nonzero;fill:rgb(42.745098%,43.137255%,44.313725%);fill-opacity:1;" />
<path d="M 44.636719 61.792969 C 34.886719 61.792969 26.980469 53.886719 26.980469 44.136719 C 26.980469 34.386719 34.886719 26.484375 44.636719 26.484375 C 54.386719 26.484375 62.292969 34.386719 62.292969 44.136719 C 62.292969 53.890625 54.386719 61.792969 44.636719 61.792969 Z M 44.636719 61.792969 " style=" stroke:none;fill-rule:nonzero;fill:rgb(50.196078%,50.980392%,52.156863%);fill-opacity:1;" />
<path d="M 380.085938 61.792969 C 370.335938 61.792969 362.429688 53.886719 362.429688 44.136719 C 362.429688 34.386719 370.335938 26.484375 380.085938 26.484375 C 389.835938 26.484375 397.742188 34.386719 397.742188 44.136719 C 397.742188 53.890625 389.835938 61.792969 380.085938 61.792969 Z M 380.085938 61.792969 " style=" stroke:none;fill-rule:nonzero;fill:rgb(50.196078%,50.980392%,52.156863%);fill-opacity:1;" />
<path d="M 380.085938 485.515625 C 370.335938 485.515625 362.429688 477.613281 362.429688 467.863281 C 362.429688 458.109375 370.335938 450.207031 380.085938 450.207031 C 389.835938 450.207031 397.742188 458.109375 397.742188 467.863281 C 397.742188 477.613281 389.835938 485.515625 380.085938 485.515625 Z M 380.085938 485.515625 " style=" stroke:none;fill-rule:nonzero;fill:rgb(50.196078%,50.980392%,52.156863%);fill-opacity:1;" />
<path d="M 327.121094 220.691406 L 291.808594 220.691406 C 286.933594 220.691406 282.984375 216.738281 282.984375 211.863281 C 282.984375 206.988281 286.9375 203.035156 291.808594 203.035156 L 327.121094 203.035156 C 331.996094 203.035156 335.949219 206.988281 335.949219 211.863281 C 335.949219 216.738281 331.996094 220.691406 327.121094 220.691406 Z M 327.121094 220.691406 " style=" stroke:none;fill-rule:nonzero;fill:rgb(42.745098%,43.137255%,44.313725%);fill-opacity:1;" />
<path d="M 287.210938 179.351562 C 282.335938 179.351562 278.382812 175.398438 278.382812 170.523438 C 278.382812 167.367188 280.066406 164.453125 282.796875 162.878906 L 313.367188 145.222656 C 317.574219 142.753906 322.980469 144.167969 325.445312 148.375 C 327.914062 152.578125 326.503906 157.988281 322.296875 160.453125 C 322.261719 160.472656 322.226562 160.492188 322.195312 160.511719 L 291.625 178.167969 C 290.28125 178.941406 288.761719 179.351562 287.210938 179.351562 Z M 287.210938 179.351562 " style=" stroke:none;fill-rule:nonzero;fill:rgb(42.745098%,43.137255%,44.313725%);fill-opacity:1;" />
<path d="M 311.742188 278.070312 C 310.191406 278.074219 308.671875 277.664062 307.328125 276.886719 L 276.742188 259.230469 C 272.535156 256.765625 271.125 251.355469 273.589844 247.152344 C 276.03125 242.984375 281.371094 241.554688 285.570312 243.941406 L 316.15625 261.597656 C 320.378906 264.035156 321.824219 269.433594 319.386719 273.65625 C 317.8125 276.386719 314.898438 278.070312 311.742188 278.070312 Z M 311.742188 278.070312 " style=" stroke:none;fill-rule:nonzero;fill:rgb(42.745098%,43.137255%,44.313725%);fill-opacity:1;" />
<path d="M 269.742188 320.070312 C 266.582031 320.074219 263.667969 318.390625 262.085938 315.65625 L 244.433594 285.078125 C 241.964844 280.871094 243.375 275.464844 247.582031 272.996094 C 251.785156 270.53125 257.195312 271.941406 259.660156 276.148438 C 259.683594 276.183594 259.703125 276.214844 259.722656 276.25 L 277.378906 306.828125 C 279.816406 311.050781 278.367188 316.449219 274.144531 318.886719 C 272.804688 319.660156 271.289062 320.070312 269.742188 320.070312 Z M 269.742188 320.070312 " style=" stroke:none;fill-rule:nonzero;fill:rgb(42.745098%,43.137255%,44.313725%);fill-opacity:1;" />
</g>
</svg>