<svg xmlns="http://www.w3.org/2000/svg" height="511pt" version="1.1" viewBox="-4 1 511 511.99993" width="511pt">
<g id="surface1">
<path d="M 486.464844 199.59375 L 17.855469 199.59375 C 8.269531 199.59375 0.5 207.363281 0.5 216.949219 L 0.5 494.644531 C 0.5 504.230469 8.269531 512 17.855469 512 L 486.464844 512 C 496.050781 512 503.824219 504.230469 503.824219 494.644531 L 503.824219 216.949219 C 503.824219 207.363281 496.050781 199.59375 486.464844 199.59375 Z M 399.6875 303.730469 L 399.6875 338.441406 L 364.976562 338.441406 L 364.976562 303.730469 Z M 234.804688 373.152344 L 234.804688 407.863281 L 200.09375 407.863281 L 200.09375 373.152344 Z M 95.957031 407.863281 L 61.246094 407.863281 L 61.246094 373.152344 L 95.957031 373.152344 Z M 104.636719 303.730469 L 139.347656 303.730469 L 139.347656 338.441406 L 104.636719 338.441406 Z M 165.382812 477.289062 L 130.671875 477.289062 L 130.671875 442.574219 L 165.382812 442.574219 Z M 165.382812 407.863281 L 130.671875 407.863281 L 130.671875 373.152344 L 165.382812 373.152344 Z M 304.230469 477.289062 L 200.09375 477.289062 L 200.09375 442.574219 L 304.230469 442.574219 Z M 304.230469 407.863281 L 269.515625 407.863281 L 269.515625 373.152344 L 304.230469 373.152344 Z M 373.652344 477.289062 L 338.941406 477.289062 L 338.941406 442.574219 L 373.652344 442.574219 Z M 373.652344 407.863281 L 338.941406 407.863281 L 338.941406 373.152344 L 373.652344 373.152344 Z M 469.109375 338.441406 L 469.109375 407.863281 L 399.6875 407.863281 L 399.6875 373.152344 L 434.398438 373.152344 L 434.398438 338.441406 Z M 469.109375 338.441406 " style=" stroke:none;fill-rule:nonzero;fill:rgb(87.843137%,87.843137%,88.627451%);fill-opacity:1;" />
<path d="M 130.671875 373.152344 L 165.382812 373.152344 L 165.382812 407.863281 L 130.671875 407.863281 Z M 130.671875 373.152344 " style=" stroke:none;fill-rule:nonzero;fill:rgb(67.45098%,67.058824%,69.411765%);fill-opacity:1;" />
<path d="M 61.246094 373.152344 L 95.957031 373.152344 L 95.957031 407.863281 L 61.246094 407.863281 Z M 61.246094 373.152344 " style=" stroke:none;fill-rule:nonzero;fill:rgb(67.45098%,67.058824%,69.411765%);fill-opacity:1;" />
<path d="M 200.09375 373.152344 L 234.804688 373.152344 L 234.804688 407.863281 L 200.09375 407.863281 Z M 200.09375 373.152344 " style=" stroke:none;fill-rule:nonzero;fill:rgb(67.45098%,67.058824%,69.411765%);fill-opacity:1;" />
<path d="M 269.515625 373.152344 L 304.230469 373.152344 L 304.230469 407.863281 L 269.515625 407.863281 Z M 269.515625 373.152344 " style=" stroke:none;fill-rule:nonzero;fill:rgb(67.45098%,67.058824%,69.411765%);fill-opacity:1;" />
<path d="M 338.941406 373.152344 L 373.652344 373.152344 L 373.652344 407.863281 L 338.941406 407.863281 Z M 338.941406 373.152344 " style=" stroke:none;fill-rule:nonzero;fill:rgb(67.45098%,67.058824%,69.411765%);fill-opacity:1;" />
<path d="M 104.636719 303.730469 L 139.347656 303.730469 L 139.347656 338.441406 L 104.636719 338.441406 Z M 104.636719 303.730469 " style=" stroke:none;fill-rule:nonzero;fill:rgb(67.45098%,67.058824%,69.411765%);fill-opacity:1;" />
<path d="M 364.976562 303.730469 L 399.6875 303.730469 L 399.6875 338.441406 L 364.976562 338.441406 Z M 364.976562 303.730469 " style=" stroke:none;fill-rule:nonzero;fill:rgb(67.45098%,67.058824%,69.411765%);fill-opacity:1;" />
<path d="M 434.398438 373.152344 L 399.6875 373.152344 L 399.6875 407.863281 L 469.109375 407.863281 L 469.109375 338.441406 L 434.398438 338.441406 Z M 434.398438 373.152344 " style=" stroke:none;fill-rule:nonzero;fill:rgb(67.45098%,67.058824%,69.411765%);fill-opacity:1;" />
<path d="M 130.671875 442.574219 L 165.382812 442.574219 L 165.382812 477.289062 L 130.671875 477.289062 Z M 130.671875 442.574219 " style=" stroke:none;fill-rule:nonzero;fill:rgb(67.45098%,67.058824%,69.411765%);fill-opacity:1;" />
<path d="M 338.941406 442.574219 L 373.652344 442.574219 L 373.652344 477.289062 L 338.941406 477.289062 Z M 338.941406 442.574219 " style=" stroke:none;fill-rule:nonzero;fill:rgb(67.45098%,67.058824%,69.411765%);fill-opacity:1;" />
<path d="M 200.09375 442.574219 L 304.230469 442.574219 L 304.230469 477.289062 L 200.09375 477.289062 Z M 200.09375 442.574219 " style=" stroke:none;fill-rule:nonzero;fill:rgb(67.45098%,67.058824%,69.411765%);fill-opacity:1;" />
<path d="M 174.058594 303.730469 L 191.414062 303.730469 L 191.414062 338.441406 L 174.058594 338.441406 Z M 174.058594 303.730469 " style=" stroke:none;fill-rule:nonzero;fill:rgb(34.117647%,64.313725%,100%);fill-opacity:1;" />
<path d="M 208.773438 303.730469 L 226.128906 303.730469 L 226.128906 338.441406 L 208.773438 338.441406 Z M 208.773438 303.730469 " style=" stroke:none;fill-rule:nonzero;fill:rgb(34.117647%,64.313725%,100%);fill-opacity:1;" />
<path d="M 243.484375 303.730469 L 260.839844 303.730469 L 260.839844 338.441406 L 243.484375 338.441406 Z M 243.484375 303.730469 " style=" stroke:none;fill-rule:nonzero;fill:rgb(34.117647%,64.313725%,100%);fill-opacity:1;" />
<path d="M 278.195312 303.730469 L 295.550781 303.730469 L 295.550781 338.441406 L 278.195312 338.441406 Z M 278.195312 303.730469 " style=" stroke:none;fill-rule:nonzero;fill:rgb(34.117647%,64.313725%,100%);fill-opacity:1;" />
<path d="M 312.90625 303.730469 L 330.261719 303.730469 L 330.261719 338.441406 L 312.90625 338.441406 Z M 312.90625 303.730469 " style=" stroke:none;fill-rule:nonzero;fill:rgb(34.117647%,64.313725%,100%);fill-opacity:1;" />
<path d="M 78.601562 242.984375 L 425.71875 242.984375 L 425.71875 260.339844 L 78.601562 260.339844 Z M 78.601562 242.984375 " style=" stroke:none;fill-rule:nonzero;fill:rgb(12.941176%,25.098039%,60.392157%);fill-opacity:1;" />
<path d="M 260.839844 199.59375 L 243.484375 199.59375 L 243.484375 147.527344 C 243.453125 123.574219 224.046875 104.164062 200.09375 104.136719 L 156.703125 104.136719 C 123.171875 104.097656 95.996094 76.921875 95.957031 43.390625 L 95.957031 0 L 113.3125 0 L 113.3125 43.390625 C 113.34375 67.34375 132.753906 86.75 156.703125 86.78125 L 200.09375 86.78125 C 233.628906 86.820312 260.800781 113.992188 260.839844 147.527344 Z M 260.839844 199.59375 " style=" stroke:none;fill-rule:nonzero;fill:rgb(12.941176%,25.098039%,60.392157%);fill-opacity:1;" />
</g>
</svg>