<svg xmlns="http://www.w3.org/2000/svg" height="512.00085pt" version="1.1" viewBox="0 0 512.00085 512.00085" width="512.00085pt">
<g id="surface1">
<path d="M 44.136719 317.792969 L 0 459.035156 L 512 459.035156 L 467.863281 317.792969 Z M 44.136719 317.792969 " style=" stroke:none;fill-rule:nonzero;fill:rgb(67.45098%,67.058824%,69.411765%);fill-opacity:1;" />
<path d="M 467.863281 17.65625 C 467.863281 7.90625 459.957031 0 450.207031 0 L 61.792969 0 C 52.042969 0 44.136719 7.90625 44.136719 17.65625 L 44.136719 317.792969 L 467.863281 317.792969 Z M 441.378906 282.484375 L 70.621094 282.484375 L 70.621094 26.484375 L 441.378906 26.484375 Z M 441.378906 282.484375 " style=" stroke:none;fill-rule:nonzero;fill:rgb(87.843137%,87.843137%,88.627451%);fill-opacity:1;" />
<path d="M 0 494.34375 C 0 504.097656 7.90625 512 17.65625 512 L 494.34375 512 C 504.097656 512 512 504.097656 512 494.34375 L 512 459.035156 L 0 459.035156 Z M 0 494.34375 " style=" stroke:none;fill-rule:nonzero;fill:rgb(34.117647%,33.72549%,36.078431%);fill-opacity:1;" />
<path d="M 70.621094 26.484375 L 441.378906 26.484375 L 441.378906 282.484375 L 70.621094 282.484375 Z M 70.621094 26.484375 " style=" stroke:none;fill-rule:nonzero;fill:rgb(14.117647%,53.333333%,100%);fill-opacity:1;" />
<path d="M 79.449219 344.277344 L 114.757812 344.277344 L 114.757812 361.929688 L 79.449219 361.929688 Z M 79.449219 344.277344 " style=" stroke:none;fill-rule:nonzero;fill:rgb(94.509804%,94.901961%,94.901961%);fill-opacity:1;" />
<path d="M 132.414062 344.277344 L 167.722656 344.277344 L 167.722656 361.929688 L 132.414062 361.929688 Z M 132.414062 344.277344 " style=" stroke:none;fill-rule:nonzero;fill:rgb(94.509804%,94.901961%,94.901961%);fill-opacity:1;" />
<path d="M 185.378906 344.277344 L 220.691406 344.277344 L 220.691406 361.929688 L 185.378906 361.929688 Z M 185.378906 344.277344 " style=" stroke:none;fill-rule:nonzero;fill:rgb(94.509804%,94.901961%,94.901961%);fill-opacity:1;" />
<path d="M 238.34375 344.277344 L 273.65625 344.277344 L 273.65625 361.929688 L 238.34375 361.929688 Z M 238.34375 344.277344 " style=" stroke:none;fill-rule:nonzero;fill:rgb(94.509804%,94.901961%,94.901961%);fill-opacity:1;" />
<path d="M 291.308594 344.277344 L 326.621094 344.277344 L 326.621094 361.929688 L 291.308594 361.929688 Z M 291.308594 344.277344 " style=" stroke:none;fill-rule:nonzero;fill:rgb(94.509804%,94.901961%,94.901961%);fill-opacity:1;" />
<path d="M 344.277344 344.277344 L 379.585938 344.277344 L 379.585938 361.929688 L 344.277344 361.929688 Z M 344.277344 344.277344 " style=" stroke:none;fill-rule:nonzero;fill:rgb(94.509804%,94.901961%,94.901961%);fill-opacity:1;" />
<path d="M 397.242188 344.277344 L 432.550781 344.277344 L 432.550781 361.929688 L 397.242188 361.929688 Z M 397.242188 344.277344 " style=" stroke:none;fill-rule:nonzero;fill:rgb(94.509804%,94.901961%,94.901961%);fill-opacity:1;" />
<path d="M 79.449219 379.585938 L 114.757812 379.585938 L 114.757812 397.242188 L 79.449219 397.242188 Z M 79.449219 379.585938 " style=" stroke:none;fill-rule:nonzero;fill:rgb(94.509804%,94.901961%,94.901961%);fill-opacity:1;" />
<path d="M 132.414062 379.585938 L 167.722656 379.585938 L 167.722656 397.242188 L 132.414062 397.242188 Z M 132.414062 379.585938 " style=" stroke:none;fill-rule:nonzero;fill:rgb(94.509804%,94.901961%,94.901961%);fill-opacity:1;" />
<path d="M 185.378906 379.585938 L 220.691406 379.585938 L 220.691406 397.242188 L 185.378906 397.242188 Z M 185.378906 379.585938 " style=" stroke:none;fill-rule:nonzero;fill:rgb(94.509804%,94.901961%,94.901961%);fill-opacity:1;" />
<path d="M 238.34375 379.585938 L 273.65625 379.585938 L 273.65625 397.242188 L 238.34375 397.242188 Z M 238.34375 379.585938 " style=" stroke:none;fill-rule:nonzero;fill:rgb(94.509804%,94.901961%,94.901961%);fill-opacity:1;" />
<path d="M 291.308594 379.585938 L 326.621094 379.585938 L 326.621094 397.242188 L 291.308594 397.242188 Z M 291.308594 379.585938 " style=" stroke:none;fill-rule:nonzero;fill:rgb(94.509804%,94.901961%,94.901961%);fill-opacity:1;" />
<path d="M 344.277344 379.585938 L 379.585938 379.585938 L 379.585938 397.242188 L 344.277344 397.242188 Z M 344.277344 379.585938 " style=" stroke:none;fill-rule:nonzero;fill:rgb(94.509804%,94.901961%,94.901961%);fill-opacity:1;" />
<path d="M 397.242188 379.585938 L 432.550781 379.585938 L 432.550781 397.242188 L 397.242188 397.242188 Z M 397.242188 379.585938 " style=" stroke:none;fill-rule:nonzero;fill:rgb(94.509804%,94.901961%,94.901961%);fill-opacity:1;" />
<path d="M 185.378906 414.898438 L 326.621094 414.898438 L 326.621094 432.550781 L 185.378906 432.550781 Z M 185.378906 414.898438 " style=" stroke:none;fill-rule:nonzero;fill:rgb(94.509804%,94.901961%,94.901961%);fill-opacity:1;" />
<path d="M 344.277344 414.898438 L 379.585938 414.898438 L 379.585938 432.550781 L 344.277344 432.550781 Z M 344.277344 414.898438 " style=" stroke:none;fill-rule:nonzero;fill:rgb(94.509804%,94.901961%,94.901961%);fill-opacity:1;" />
<path d="M 132.414062 414.898438 L 167.722656 414.898438 L 167.722656 432.550781 L 132.414062 432.550781 Z M 132.414062 414.898438 " style=" stroke:none;fill-rule:nonzero;fill:rgb(94.509804%,94.901961%,94.901961%);fill-opacity:1;" />
</g>
</svg>