<svg xmlns="http://www.w3.org/2000/svg" height="464pt" version="1.1" viewBox="-40 0 464 464" width="464pt">
<g id="surface1">
<path d="M 384 384 L 0 384 L 0 464 L 384 464 Z M 224 432 L 48 432 Z M 280 424 Z M 320 424 Z M 320 424 " style=" stroke:none;fill-rule:nonzero;fill:rgb(34.117647%,64.313725%,100%);fill-opacity:1;" />
<path d="M 384 368 L 352 0 L 32 0 L 0 368 L 0 384 L 384 384 Z M 296 272 L 88 272 L 56 112 L 136 176 L 192 80 L 247.894531 176 L 328 112 Z M 296 272 " style=" stroke:none;fill-rule:nonzero;fill:rgb(87.843137%,87.843137%,88.627451%);fill-opacity:1;" />
<path d="M 192 80 L 136 176 L 56 112 L 88 272 L 296 272 L 328 112 L 247.894531 176 Z M 88 240 Z M 88 240 " style=" stroke:none;fill-rule:nonzero;fill:rgb(100%,68.627451%,27.45098%);fill-opacity:1;" />
<path d="M 232 440 L 40 440 L 40 408 L 56 408 L 56 424 L 216 424 L 216 408 L 232 408 Z M 232 440 " style=" stroke:none;fill-rule:nonzero;fill:rgb(12.941176%,25.098039%,60.392157%);fill-opacity:1;" />
<path d="M 320 416 L 352 416 L 352 432 L 320 432 Z M 320 416 " style=" stroke:none;fill-rule:nonzero;fill:rgb(12.941176%,25.098039%,60.392157%);fill-opacity:1;" />
<path d="M 280 416 L 312 416 L 312 432 L 280 432 Z M 280 416 " style=" stroke:none;fill-rule:nonzero;fill:rgb(12.941176%,25.098039%,60.392157%);fill-opacity:1;" />
<path d="M 296 248 L 280 248 L 280 232 L 296 232 Z M 264 248 L 248 248 L 248 232 L 264 232 Z M 232 248 L 216 248 L 216 232 L 232 232 Z M 200 248 L 184 248 L 184 232 L 200 232 Z M 168 248 L 152 248 L 152 232 L 168 232 Z M 136 248 L 120 248 L 120 232 L 136 232 Z M 104 248 L 88 248 L 88 232 L 104 232 Z M 104 248 " style=" stroke:none;fill-rule:nonzero;fill:rgb(94.901961%,39.607843%,13.333333%);fill-opacity:1;" />
</g>
</svg>