<svg xmlns="http://www.w3.org/2000/svg" height="511pt" version="1.1" viewBox="1 -97 511.99994 511" width="511pt">
<g id="surface1">
<path d="M 44.136719 318.292969 L 185.378906 318.292969 L 185.378906 300.636719 C 185.410156 290.898438 193.296875 283.011719 203.035156 282.980469 C 212.753906 283.054688 220.617188 290.917969 220.691406 300.636719 L 220.691406 318.292969 L 467.863281 318.292969 L 467.863281 247.671875 L 44.136719 247.671875 Z M 44.136719 318.292969 " style=" stroke:none;fill-rule:nonzero;fill:rgb(100%,65.490196%,20%);fill-opacity:1;" />
<path d="M 494.34375 0.5 L 17.65625 0.5 C 7.90625 0.5 0 8.402344 0 18.15625 L 0 88.777344 C 9.75 88.777344 17.65625 96.679688 17.65625 106.429688 C 17.65625 116.179688 9.75 124.085938 0 124.085938 L 0 247.671875 L 512 247.671875 L 512 124.085938 C 502.25 124.085938 494.34375 116.179688 494.34375 106.429688 C 494.34375 96.679688 502.25 88.773438 512 88.773438 L 512 18.152344 C 512 8.402344 504.097656 0.5 494.34375 0.5 Z M 132.414062 194.707031 L 61.792969 194.707031 L 61.792969 53.464844 L 132.414062 53.464844 Z M 238.34375 194.707031 L 167.722656 194.707031 L 167.722656 53.464844 L 238.34375 53.464844 Z M 344.277344 194.707031 L 273.65625 194.707031 L 273.65625 53.464844 L 344.277344 53.464844 Z M 450.207031 194.707031 L 379.585938 194.707031 L 379.585938 53.464844 L 450.207031 53.464844 Z M 450.207031 194.707031 " style=" stroke:none;fill-rule:nonzero;fill:rgb(36.862745%,67.45098%,14.117647%);fill-opacity:1;" />
<path d="M 167.722656 53.464844 L 238.34375 53.464844 L 238.34375 194.707031 L 167.722656 194.707031 Z M 167.722656 53.464844 " style=" stroke:none;fill-rule:nonzero;fill:rgb(100%,71.372549%,33.333333%);fill-opacity:1;" />
<path d="M 273.65625 53.464844 L 344.277344 53.464844 L 344.277344 194.707031 L 273.65625 194.707031 Z M 273.65625 53.464844 " style=" stroke:none;fill-rule:nonzero;fill:rgb(100%,71.372549%,33.333333%);fill-opacity:1;" />
<path d="M 61.792969 53.464844 L 132.414062 53.464844 L 132.414062 194.707031 L 61.792969 194.707031 Z M 61.792969 53.464844 " style=" stroke:none;fill-rule:nonzero;fill:rgb(100%,71.372549%,33.333333%);fill-opacity:1;" />
<path d="M 379.585938 53.464844 L 450.207031 53.464844 L 450.207031 194.707031 L 379.585938 194.707031 Z M 379.585938 53.464844 " style=" stroke:none;fill-rule:nonzero;fill:rgb(100%,71.372549%,33.333333%);fill-opacity:1;" />
<path d="M 70.621094 274.15625 L 88.277344 274.15625 L 88.277344 309.464844 L 70.621094 309.464844 Z M 70.621094 274.15625 " style=" stroke:none;fill-rule:nonzero;fill:rgb(100%,85.490196%,26.666667%);fill-opacity:1;" />
<path d="M 105.929688 274.15625 L 123.585938 274.15625 L 123.585938 309.464844 L 105.929688 309.464844 Z M 105.929688 274.15625 " style=" stroke:none;fill-rule:nonzero;fill:rgb(100%,85.490196%,26.666667%);fill-opacity:1;" />
<path d="M 141.242188 274.15625 L 158.898438 274.15625 L 158.898438 309.464844 L 141.242188 309.464844 Z M 141.242188 274.15625 " style=" stroke:none;fill-rule:nonzero;fill:rgb(100%,85.490196%,26.666667%);fill-opacity:1;" />
<path d="M 247.171875 274.15625 L 264.828125 274.15625 L 264.828125 309.464844 L 247.171875 309.464844 Z M 247.171875 274.15625 " style=" stroke:none;fill-rule:nonzero;fill:rgb(100%,85.490196%,26.666667%);fill-opacity:1;" />
<path d="M 282.484375 274.15625 L 300.140625 274.15625 L 300.140625 309.464844 L 282.484375 309.464844 Z M 282.484375 274.15625 " style=" stroke:none;fill-rule:nonzero;fill:rgb(100%,85.490196%,26.666667%);fill-opacity:1;" />
<path d="M 317.792969 274.15625 L 335.449219 274.15625 L 335.449219 309.464844 L 317.792969 309.464844 Z M 317.792969 274.15625 " style=" stroke:none;fill-rule:nonzero;fill:rgb(100%,85.490196%,26.666667%);fill-opacity:1;" />
<path d="M 353.101562 274.15625 L 370.757812 274.15625 L 370.757812 309.464844 L 353.101562 309.464844 Z M 353.101562 274.15625 " style=" stroke:none;fill-rule:nonzero;fill:rgb(100%,85.490196%,26.666667%);fill-opacity:1;" />
<path d="M 388.414062 274.15625 L 406.070312 274.15625 L 406.070312 309.464844 L 388.414062 309.464844 Z M 388.414062 274.15625 " style=" stroke:none;fill-rule:nonzero;fill:rgb(100%,85.490196%,26.666667%);fill-opacity:1;" />
<path d="M 423.722656 274.15625 L 441.378906 274.15625 L 441.378906 309.464844 L 423.722656 309.464844 Z M 423.722656 274.15625 " style=" stroke:none;fill-rule:nonzero;fill:rgb(100%,85.490196%,26.666667%);fill-opacity:1;" />
</g>
</svg>