<svg xmlns="http://www.w3.org/2000/svg" height="511pt" version="1.1" viewBox="1 -4 511.99994 511" width="511pt">
<g id="surface1">
<path d="M 432.550781 53.464844 L 432.550781 0.5 L 326.621094 0.5 L 326.621094 53.464844 Z M 432.550781 53.464844 " style=" stroke:none;fill-rule:nonzero;fill:rgb(0%,36.862745%,80.784314%);fill-opacity:1;" />
<path d="M 432.550781 53.464844 L 326.621094 53.464844 L 326.621094 26.984375 L 291.308594 26.984375 L 291.308594 44.636719 L 256 44.636719 L 256 26.984375 L 220.691406 26.984375 L 220.691406 53.464844 L 150.070312 53.464844 L 150.070312 26.984375 L 0 26.984375 L 0 503.671875 L 512 503.671875 L 512 26.984375 L 432.550781 26.984375 Z M 44.136719 468.363281 C 39.261719 468.363281 35.3125 464.410156 35.3125 459.535156 C 35.3125 454.660156 39.261719 450.707031 44.136719 450.707031 C 49.011719 450.707031 52.964844 454.660156 52.964844 459.535156 C 52.964844 464.410156 49.011719 468.363281 44.136719 468.363281 Z M 44.136719 79.949219 C 39.261719 79.949219 35.3125 75.996094 35.3125 71.121094 C 35.3125 66.246094 39.261719 62.292969 44.136719 62.292969 C 49.011719 62.292969 52.964844 66.246094 52.964844 71.121094 C 52.964844 75.996094 49.011719 79.949219 44.136719 79.949219 Z M 123.585938 424.222656 C 108.960938 424.222656 97.105469 412.367188 97.105469 397.742188 C 97.105469 383.117188 108.960938 371.257812 123.585938 371.257812 C 138.210938 371.257812 150.070312 383.117188 150.070312 397.742188 C 150.070312 412.367188 138.210938 424.222656 123.585938 424.222656 Z M 150.070312 300.636719 L 97.105469 300.636719 L 97.105469 124.085938 L 150.070312 124.085938 Z M 308.964844 309.464844 C 308.964844 319.214844 301.0625 327.121094 291.308594 327.121094 C 281.558594 327.121094 273.65625 319.214844 273.65625 309.464844 C 273.65625 299.714844 281.558594 291.808594 291.308594 291.808594 C 301.0625 291.808594 308.964844 299.714844 308.964844 309.464844 Z M 238.34375 309.464844 C 238.34375 319.214844 230.441406 327.121094 220.691406 327.121094 C 210.9375 327.121094 203.035156 319.214844 203.035156 309.464844 C 203.035156 299.714844 210.9375 291.808594 220.691406 291.808594 C 230.441406 291.808594 238.34375 299.714844 238.34375 309.464844 Z M 467.863281 468.363281 C 462.988281 468.363281 459.035156 464.410156 459.035156 459.535156 C 459.035156 454.660156 462.988281 450.707031 467.863281 450.707031 C 472.738281 450.707031 476.691406 454.660156 476.691406 459.535156 C 476.691406 464.410156 472.738281 468.363281 467.863281 468.363281 Z M 467.863281 62.292969 C 472.738281 62.292969 476.691406 66.246094 476.691406 71.121094 C 476.691406 75.996094 472.738281 79.949219 467.863281 79.949219 C 462.988281 79.949219 459.035156 75.996094 459.035156 71.121094 C 459.035156 66.246094 462.988281 62.292969 467.863281 62.292969 Z M 450.207031 247.671875 L 326.621094 247.671875 L 326.621094 124.085938 L 450.207031 124.085938 Z M 450.207031 247.671875 " style=" stroke:none;fill-rule:nonzero;fill:rgb(87.843137%,87.843137%,88.627451%);fill-opacity:1;" />
<path d="M 291.308594 44.636719 L 291.308594 9.328125 L 256 9.328125 L 256 44.636719 Z M 291.308594 44.636719 " style=" stroke:none;fill-rule:nonzero;fill:rgb(0%,36.862745%,80.784314%);fill-opacity:1;" />
<path d="M 220.691406 53.464844 L 220.691406 0.5 L 150.070312 0.5 L 150.070312 53.464844 Z M 220.691406 53.464844 " style=" stroke:none;fill-rule:nonzero;fill:rgb(14.117647%,53.333333%,100%);fill-opacity:1;" />
<path d="M 52.964844 71.121094 C 52.964844 75.996094 49.011719 79.949219 44.136719 79.949219 C 39.261719 79.949219 35.3125 75.996094 35.3125 71.121094 C 35.3125 66.246094 39.261719 62.292969 44.136719 62.292969 C 49.011719 62.292969 52.964844 66.246094 52.964844 71.121094 Z M 52.964844 71.121094 " style=" stroke:none;fill-rule:nonzero;fill:rgb(87.843137%,87.843137%,88.627451%);fill-opacity:1;" />
<path d="M 52.964844 459.535156 C 52.964844 464.410156 49.011719 468.363281 44.136719 468.363281 C 39.261719 468.363281 35.3125 464.410156 35.3125 459.535156 C 35.3125 454.660156 39.261719 450.707031 44.136719 450.707031 C 49.011719 450.707031 52.964844 454.660156 52.964844 459.535156 Z M 52.964844 459.535156 " style=" stroke:none;fill-rule:nonzero;fill:rgb(87.843137%,87.843137%,88.627451%);fill-opacity:1;" />
<path d="M 476.691406 459.535156 C 476.691406 464.410156 472.738281 468.363281 467.863281 468.363281 C 462.988281 468.363281 459.035156 464.410156 459.035156 459.535156 C 459.035156 454.660156 462.988281 450.707031 467.863281 450.707031 C 472.738281 450.707031 476.691406 454.660156 476.691406 459.535156 Z M 476.691406 459.535156 " style=" stroke:none;fill-rule:nonzero;fill:rgb(87.843137%,87.843137%,88.627451%);fill-opacity:1;" />
<path d="M 476.691406 71.121094 C 476.691406 75.996094 472.738281 79.949219 467.863281 79.949219 C 462.988281 79.949219 459.035156 75.996094 459.035156 71.121094 C 459.035156 66.246094 462.988281 62.292969 467.863281 62.292969 C 472.738281 62.292969 476.691406 66.246094 476.691406 71.121094 Z M 476.691406 71.121094 " style=" stroke:none;fill-rule:nonzero;fill:rgb(87.843137%,87.843137%,88.627451%);fill-opacity:1;" />
<path d="M 326.621094 247.671875 L 450.207031 247.671875 L 450.207031 124.085938 L 326.621094 124.085938 Z M 353.101562 150.570312 L 423.722656 150.570312 L 423.722656 221.1875 L 353.101562 221.1875 Z M 353.101562 150.570312 " style=" stroke:none;fill-rule:nonzero;fill:rgb(36.862745%,67.45098%,14.117647%);fill-opacity:1;" />
<path d="M 353.101562 150.570312 L 423.722656 150.570312 L 423.722656 221.1875 L 353.101562 221.1875 Z M 353.101562 150.570312 " style=" stroke:none;fill-rule:nonzero;fill:rgb(56.862745%,80%,1.568627%);fill-opacity:1;" />
<path d="M 97.105469 300.636719 L 123.585938 300.636719 L 123.585938 150.570312 L 123.585938 300.636719 L 150.070312 300.636719 L 150.070312 124.085938 L 97.105469 124.085938 Z M 97.105469 300.636719 " style=" stroke:none;fill-rule:nonzero;fill:rgb(100%,68.627451%,27.45098%);fill-opacity:1;" />
<path d="M 150.070312 397.742188 C 150.070312 412.367188 138.210938 424.222656 123.585938 424.222656 C 108.960938 424.222656 97.105469 412.367188 97.105469 397.742188 C 97.105469 383.117188 108.960938 371.257812 123.585938 371.257812 C 138.210938 371.257812 150.070312 383.117188 150.070312 397.742188 Z M 150.070312 397.742188 " style=" stroke:none;fill-rule:nonzero;fill:rgb(100%,68.627451%,27.45098%);fill-opacity:1;" />
<path d="M 238.34375 309.464844 C 238.34375 319.214844 230.441406 327.121094 220.691406 327.121094 C 210.9375 327.121094 203.035156 319.214844 203.035156 309.464844 C 203.035156 299.714844 210.9375 291.808594 220.691406 291.808594 C 230.441406 291.808594 238.34375 299.714844 238.34375 309.464844 Z M 238.34375 309.464844 " style=" stroke:none;fill-rule:nonzero;fill:rgb(100%,71.372549%,33.333333%);fill-opacity:1;" />
<path d="M 308.964844 309.464844 C 308.964844 319.214844 301.0625 327.121094 291.308594 327.121094 C 281.558594 327.121094 273.65625 319.214844 273.65625 309.464844 C 273.65625 299.714844 281.558594 291.808594 291.308594 291.808594 C 301.0625 291.808594 308.964844 299.714844 308.964844 309.464844 Z M 308.964844 309.464844 " style=" stroke:none;fill-rule:nonzero;fill:rgb(100%,71.372549%,33.333333%);fill-opacity:1;" />
<path d="M 44.136719 88.777344 C 34.386719 88.777344 26.484375 80.871094 26.484375 71.121094 C 26.484375 61.371094 34.386719 53.464844 44.136719 53.464844 C 53.890625 53.464844 61.792969 61.371094 61.792969 71.121094 C 61.792969 80.871094 53.890625 88.777344 44.136719 88.777344 Z M 44.136719 88.777344 " style=" stroke:none;fill-rule:nonzero;fill:rgb(34.509804%,34.901961%,35.686275%);fill-opacity:1;" />
<path d="M 44.136719 477.191406 C 34.386719 477.191406 26.484375 469.285156 26.484375 459.535156 C 26.484375 449.785156 34.386719 441.878906 44.136719 441.878906 C 53.890625 441.878906 61.792969 449.785156 61.792969 459.535156 C 61.792969 469.285156 53.890625 477.191406 44.136719 477.191406 Z M 44.136719 477.191406 " style=" stroke:none;fill-rule:nonzero;fill:rgb(34.509804%,34.901961%,35.686275%);fill-opacity:1;" />
<path d="M 467.863281 477.191406 C 458.113281 477.191406 450.207031 469.285156 450.207031 459.535156 C 450.207031 449.785156 458.113281 441.878906 467.863281 441.878906 C 477.613281 441.878906 485.519531 449.785156 485.519531 459.535156 C 485.515625 469.285156 477.613281 477.191406 467.863281 477.191406 Z M 467.863281 477.191406 " style=" stroke:none;fill-rule:nonzero;fill:rgb(34.509804%,34.901961%,35.686275%);fill-opacity:1;" />
<path d="M 467.863281 88.777344 C 458.113281 88.777344 450.207031 80.871094 450.207031 71.121094 C 450.207031 61.371094 458.113281 53.464844 467.863281 53.464844 C 477.613281 53.464844 485.519531 61.371094 485.519531 71.121094 C 485.519531 80.871094 477.613281 88.777344 467.863281 88.777344 Z M 467.863281 88.777344 " style=" stroke:none;fill-rule:nonzero;fill:rgb(34.509804%,34.901961%,35.686275%);fill-opacity:1;" />
<path d="M 459.035156 256.5 L 317.792969 256.5 L 317.792969 115.257812 L 459.035156 115.257812 Z M 335.449219 238.84375 L 441.378906 238.84375 L 441.378906 132.914062 L 335.449219 132.914062 Z M 335.449219 238.84375 " style=" stroke:none;fill-rule:nonzero;fill:rgb(73.72549%,74.509804%,75.294118%);fill-opacity:1;" />
<path d="M 247.171875 124.085938 L 282.480469 124.085938 L 282.480469 141.742188 L 247.171875 141.742188 Z M 247.171875 124.085938 " style=" stroke:none;fill-rule:nonzero;fill:rgb(73.72549%,74.509804%,75.294118%);fill-opacity:1;" />
<path d="M 247.171875 159.398438 L 282.480469 159.398438 L 282.480469 177.050781 L 247.171875 177.050781 Z M 247.171875 159.398438 " style=" stroke:none;fill-rule:nonzero;fill:rgb(73.72549%,74.509804%,75.294118%);fill-opacity:1;" />
<path d="M 247.171875 194.707031 L 282.480469 194.707031 L 282.480469 212.363281 L 247.171875 212.363281 Z M 247.171875 194.707031 " style=" stroke:none;fill-rule:nonzero;fill:rgb(73.72549%,74.509804%,75.294118%);fill-opacity:1;" />
<path d="M 247.171875 230.015625 L 282.480469 230.015625 L 282.480469 247.671875 L 247.171875 247.671875 Z M 247.171875 230.015625 " style=" stroke:none;fill-rule:nonzero;fill:rgb(73.72549%,74.509804%,75.294118%);fill-opacity:1;" />
<path d="M 194.207031 124.085938 L 229.515625 124.085938 L 229.515625 141.742188 L 194.207031 141.742188 Z M 194.207031 124.085938 " style=" stroke:none;fill-rule:nonzero;fill:rgb(73.72549%,74.509804%,75.294118%);fill-opacity:1;" />
<path d="M 194.207031 159.398438 L 229.515625 159.398438 L 229.515625 177.050781 L 194.207031 177.050781 Z M 194.207031 159.398438 " style=" stroke:none;fill-rule:nonzero;fill:rgb(73.72549%,74.509804%,75.294118%);fill-opacity:1;" />
<path d="M 194.207031 194.707031 L 229.515625 194.707031 L 229.515625 212.363281 L 194.207031 212.363281 Z M 194.207031 194.707031 " style=" stroke:none;fill-rule:nonzero;fill:rgb(73.72549%,74.509804%,75.294118%);fill-opacity:1;" />
<path d="M 194.207031 230.015625 L 229.515625 230.015625 L 229.515625 247.671875 L 194.207031 247.671875 Z M 194.207031 230.015625 " style=" stroke:none;fill-rule:nonzero;fill:rgb(73.72549%,74.509804%,75.294118%);fill-opacity:1;" />
<path d="M 114.757812 141.742188 L 132.414062 141.742188 L 132.414062 282.980469 L 114.757812 282.980469 Z M 114.757812 141.742188 " style=" stroke:none;fill-rule:nonzero;fill:rgb(94.509804%,94.901961%,94.901961%);fill-opacity:1;" />
<path d="M 291.308594 380.085938 L 467.863281 380.085938 L 467.863281 397.742188 L 291.308594 397.742188 Z M 291.308594 380.085938 " style=" stroke:none;fill-rule:nonzero;fill:rgb(100%,59.607843%,6.666667%);fill-opacity:1;" />
<path d="M 185.378906 406.570312 L 361.929688 406.570312 L 361.929688 424.222656 L 185.378906 424.222656 Z M 185.378906 406.570312 " style=" stroke:none;fill-rule:nonzero;fill:rgb(100%,59.607843%,6.666667%);fill-opacity:1;" />
<path d="M 185.378906 380.085938 L 273.65625 380.085938 L 273.65625 397.742188 L 185.378906 397.742188 Z M 185.378906 380.085938 " style=" stroke:none;fill-rule:nonzero;fill:rgb(100%,59.607843%,6.666667%);fill-opacity:1;" />
<path d="M 379.585938 406.570312 L 467.863281 406.570312 L 467.863281 424.222656 L 379.585938 424.222656 Z M 379.585938 406.570312 " style=" stroke:none;fill-rule:nonzero;fill:rgb(100%,59.607843%,6.666667%);fill-opacity:1;" />
<path d="M 52.964844 150.570312 L 70.621094 150.570312 L 70.621094 274.15625 L 52.964844 274.15625 Z M 52.964844 150.570312 " style=" stroke:none;fill-rule:nonzero;fill:rgb(100%,59.607843%,6.666667%);fill-opacity:1;" />
<path d="M 344.277344 291.808594 L 361.929688 291.808594 L 361.929688 309.464844 L 344.277344 309.464844 Z M 344.277344 291.808594 " style=" stroke:none;fill-rule:nonzero;fill:rgb(57.647059%,58.431373%,59.607843%);fill-opacity:1;" />
<path d="M 344.277344 318.292969 L 361.929688 318.292969 L 361.929688 335.949219 L 344.277344 335.949219 Z M 344.277344 318.292969 " style=" stroke:none;fill-rule:nonzero;fill:rgb(57.647059%,58.431373%,59.607843%);fill-opacity:1;" />
<path d="M 370.757812 291.808594 L 388.414062 291.808594 L 388.414062 309.464844 L 370.757812 309.464844 Z M 370.757812 291.808594 " style=" stroke:none;fill-rule:nonzero;fill:rgb(57.647059%,58.431373%,59.607843%);fill-opacity:1;" />
<path d="M 370.757812 318.292969 L 388.414062 318.292969 L 388.414062 335.949219 L 370.757812 335.949219 Z M 370.757812 318.292969 " style=" stroke:none;fill-rule:nonzero;fill:rgb(57.647059%,58.431373%,59.607843%);fill-opacity:1;" />
<path d="M 397.242188 291.808594 L 414.898438 291.808594 L 414.898438 309.464844 L 397.242188 309.464844 Z M 397.242188 291.808594 " style=" stroke:none;fill-rule:nonzero;fill:rgb(57.647059%,58.431373%,59.607843%);fill-opacity:1;" />
<path d="M 397.242188 318.292969 L 414.898438 318.292969 L 414.898438 335.949219 L 397.242188 335.949219 Z M 397.242188 318.292969 " style=" stroke:none;fill-rule:nonzero;fill:rgb(57.647059%,58.431373%,59.607843%);fill-opacity:1;" />
<path d="M 423.722656 291.808594 L 441.378906 291.808594 L 441.378906 309.464844 L 423.722656 309.464844 Z M 423.722656 291.808594 " style=" stroke:none;fill-rule:nonzero;fill:rgb(57.647059%,58.431373%,59.607843%);fill-opacity:1;" />
<path d="M 423.722656 318.292969 L 441.378906 318.292969 L 441.378906 335.949219 L 423.722656 335.949219 Z M 423.722656 318.292969 " style=" stroke:none;fill-rule:nonzero;fill:rgb(57.647059%,58.431373%,59.607843%);fill-opacity:1;" />
<path d="M 52.964844 115.257812 L 70.621094 115.257812 L 70.621094 132.914062 L 52.964844 132.914062 Z M 52.964844 115.257812 " style=" stroke:none;fill-rule:nonzero;fill:rgb(100%,59.607843%,6.666667%);fill-opacity:1;" />
<path d="M 52.964844 291.808594 L 70.621094 291.808594 L 70.621094 309.464844 L 52.964844 309.464844 Z M 52.964844 291.808594 " style=" stroke:none;fill-rule:nonzero;fill:rgb(100%,59.607843%,6.666667%);fill-opacity:1;" />
</g>
</svg>