<svg xmlns="http://www.w3.org/2000/svg" height="511pt" version="1.1" viewBox="-30 1 511 511.9988" width="511pt">
<g id="surface1">
<path d="M 159.386719 111.316406 L 50.578125 220.125 C -16.191406 286.894531 -16.191406 395.152344 50.578125 461.921875 C 117.347656 528.691406 225.601562 528.691406 292.375 461.921875 L 389.09375 365.199219 L 280.285156 256.390625 L 268.195312 268.484375 C 261.515625 275.164062 250.6875 275.164062 244.011719 268.484375 C 237.332031 261.808594 237.332031 250.980469 244.011719 244.300781 L 256.109375 232.210938 L 153.34375 129.445312 L 256.109375 232.210938 L 328.644531 159.675781 C 335.332031 153.023438 346.132812 153.023438 352.820312 159.675781 C 359.429688 166.378906 359.429688 177.148438 352.820312 183.851562 L 280.285156 256.390625 L 389.09375 365.199219 L 401.183594 353.109375 C 467.660156 286.046875 467.1875 177.792969 400.125 111.3125 C 333.476562 45.25 226.035156 45.25 159.386719 111.316406 Z M 185.9375 452.199219 L 177.082031 419.175781 Z M 93.320312 335.414062 L 60.296875 326.558594 Z M 93.320312 370.816406 L 60.296875 379.664062 Z M 86.847656 425.648438 L 111.023438 401.472656 Z M 132.832031 452.199219 L 141.679688 419.175781 Z M 132.832031 452.199219 " style=" stroke:none;fill-rule:nonzero;fill:rgb(14.117647%,53.333333%,100%);fill-opacity:1;" />
<path d="M 357.78125 171.761719 C 357.835938 167.226562 356.046875 162.867188 352.820312 159.675781 C 346.136719 153.023438 335.332031 153.023438 328.644531 159.675781 L 256.109375 232.210938 L 244.011719 244.300781 C 237.332031 250.980469 237.332031 261.808594 244.011719 268.484375 C 250.691406 275.164062 261.519531 275.164062 268.195312 268.484375 L 280.285156 256.390625 L 352.820312 183.851562 C 356.046875 180.660156 357.835938 176.300781 357.78125 171.761719 Z M 357.78125 171.761719 " style=" stroke:none;fill-rule:nonzero;fill:rgb(87.843137%,87.843137%,88.627451%);fill-opacity:1;" />
<path d="M 86.839844 434.207031 C 82.117188 434.207031 78.292969 430.375 78.292969 425.65625 C 78.292969 423.390625 79.195312 421.214844 80.796875 419.613281 L 104.980469 395.429688 C 108.378906 392.148438 113.789062 392.242188 117.070312 395.636719 C 120.269531 398.953125 120.269531 404.203125 117.070312 407.515625 L 92.882812 431.703125 C 91.28125 433.304688 89.109375 434.207031 86.839844 434.207031 Z M 86.839844 434.207031 " style=" stroke:none;fill-rule:nonzero;fill:rgb(12.941176%,25.098039%,60.392157%);fill-opacity:1;" />
<path d="M 60.289062 388.210938 C 55.566406 388.210938 51.742188 384.378906 51.742188 379.660156 C 51.746094 375.789062 54.34375 372.40625 58.082031 371.40625 L 91.105469 362.558594 C 95.632812 361.210938 100.390625 363.789062 101.738281 368.3125 C 103.082031 372.839844 100.507812 377.601562 95.980469 378.945312 C 95.832031 378.988281 95.683594 379.027344 95.535156 379.066406 L 62.511719 387.921875 C 61.785156 388.113281 61.039062 388.210938 60.289062 388.210938 Z M 60.289062 388.210938 " style=" stroke:none;fill-rule:nonzero;fill:rgb(12.941176%,25.098039%,60.392157%);fill-opacity:1;" />
<path d="M 93.371094 343.964844 C 92.621094 343.964844 91.875 343.867188 91.148438 343.671875 L 58.125 334.816406 C 53.5625 333.59375 50.855469 328.90625 52.082031 324.34375 C 53.304688 319.785156 57.992188 317.078125 62.554688 318.300781 L 95.578125 327.15625 C 100.136719 328.378906 102.847656 333.066406 101.625 337.625 C 100.625 341.363281 97.238281 343.960938 93.371094 343.964844 Z M 93.371094 343.964844 " style=" stroke:none;fill-rule:nonzero;fill:rgb(12.941176%,25.098039%,60.392157%);fill-opacity:1;" />
<path d="M 132.839844 460.75 C 132.089844 460.75 131.34375 460.652344 130.617188 460.460938 C 126.058594 459.238281 123.351562 454.550781 124.574219 449.988281 L 133.429688 416.964844 C 134.53125 412.371094 139.144531 409.539062 143.738281 410.640625 C 148.328125 411.742188 151.160156 416.355469 150.058594 420.945312 C 150.023438 421.09375 149.984375 421.246094 149.9375 421.390625 L 141.089844 454.414062 C 140.089844 458.148438 136.707031 460.746094 132.839844 460.75 Z M 132.839844 460.75 " style=" stroke:none;fill-rule:nonzero;fill:rgb(12.941176%,25.098039%,60.392157%);fill-opacity:1;" />
<path d="M 185.929688 460.75 C 182.0625 460.746094 178.679688 458.148438 177.679688 454.414062 L 168.824219 421.390625 C 167.601562 416.832031 170.304688 412.140625 174.867188 410.917969 C 179.429688 409.695312 184.117188 412.402344 185.339844 416.964844 L 194.195312 449.988281 C 195.417969 454.546875 192.714844 459.234375 188.152344 460.460938 C 187.425781 460.652344 186.679688 460.75 185.929688 460.75 Z M 185.929688 460.75 " style=" stroke:none;fill-rule:nonzero;fill:rgb(12.941176%,25.098039%,60.392157%);fill-opacity:1;" />
<path d="M 401.183594 119.863281 C 396.460938 119.863281 392.632812 116.035156 392.636719 111.3125 C 392.636719 109.046875 393.535156 106.875 395.140625 105.269531 L 401.183594 99.226562 C 411.199219 89.214844 411.199219 72.972656 401.183594 62.957031 L 395.148438 56.910156 C 381.796875 43.558594 381.796875 21.914062 395.148438 8.558594 L 401.183594 2.507812 C 404.519531 -0.832031 409.933594 -0.835938 413.273438 2.503906 C 416.613281 5.839844 416.617188 11.253906 413.28125 14.59375 L 407.234375 20.648438 C 400.5625 27.324219 400.5625 38.144531 407.234375 44.824219 L 413.28125 50.867188 C 429.945312 67.570312 429.945312 94.613281 413.28125 111.316406 L 407.234375 117.359375 C 405.628906 118.964844 403.453125 119.863281 401.183594 119.863281 Z M 401.183594 119.863281 " style=" stroke:none;fill-rule:nonzero;fill:rgb(12.941176%,25.098039%,60.392157%);fill-opacity:1;" />
</g>
</svg>