<svg xmlns="http://www.w3.org/2000/svg" height="751pt" version="1.1" viewBox="0 -64 751.6 751" width="751pt">
<g id="surface1">
<path d="M 181.398438 233.601562 L 181.398438 389.101562 L 129.601562 389.101562 L 129.601562 518.699219 L 285.101562 518.699219 L 285.101562 466.898438 L 388.800781 466.898438 L 388.800781 518.699219 L 751.601562 518.699219 L 751.601562 104 L 129.601562 104 L 129.601562 233.601562 Z M 479.5 259.5 L 518.398438 259.5 L 518.398438 181.699219 L 673.800781 181.699219 L 673.800781 337.199219 L 518.199219 337.199219 L 518.199219 259.398438 L 479.5 259.398438 Z M 401.699219 363.101562 Z M 401.699219 311.300781 Z M 375.800781 181.699219 C 383 181.699219 388.800781 187.5 388.800781 194.699219 C 388.800781 201.898438 383 207.699219 375.800781 207.699219 C 368.601562 207.699219 362.800781 201.898438 362.800781 194.699219 C 362.800781 187.5 368.601562 181.699219 375.800781 181.699219 Z M 298.101562 181.699219 C 305.300781 181.699219 311.101562 187.5 311.101562 194.699219 C 311.101562 201.898438 305.300781 207.699219 298.101562 207.699219 C 290.898438 207.699219 285.101562 201.898438 285.101562 194.699219 C 285.101562 187.5 290.898438 181.699219 298.101562 181.699219 Z M 427.601562 259.5 Z M 375.800781 311.300781 Z M 375.800781 363.101562 Z M 375.800781 363.101562 " style=" stroke:none;fill-rule:nonzero;fill:rgb(86.27451%,95.686275%,79.215686%);fill-opacity:1;" />
<path d="M 77.800781 622.300781 L 129.601562 622.300781 L 129.601562 26.199219 C 129.601562 11.898438 118 0.300781 103.699219 0.300781 L 0 0.300781 L 0 52.101562 L 77.800781 52.101562 Z M 77.800781 622.300781 " style=" stroke:none;fill-rule:nonzero;fill:rgb(47.058824%,46.27451%,50.196078%);fill-opacity:1;" />
<path d="M 518.300781 337.199219 L 673.800781 337.199219 L 673.800781 181.699219 L 518.300781 181.699219 Z M 570.199219 233.601562 L 622 233.601562 L 622 285.398438 L 570.199219 285.398438 Z M 570.199219 233.601562 " style=" stroke:none;fill-rule:nonzero;fill:rgb(30.588235%,56.470588%,11.764706%);fill-opacity:1;" />
<path d="M 570.199219 233.601562 L 622 233.601562 L 622 285.398438 L 570.199219 285.398438 Z M 570.199219 233.601562 " style=" stroke:none;fill-rule:nonzero;fill:rgb(100%,68.627451%,27.45098%);fill-opacity:1;" />
<path d="M 311.101562 194.699219 C 311.101562 201.878906 305.28125 207.699219 298.101562 207.699219 C 290.921875 207.699219 285.101562 201.878906 285.101562 194.699219 C 285.101562 187.519531 290.921875 181.699219 298.101562 181.699219 C 305.28125 181.699219 311.101562 187.519531 311.101562 194.699219 Z M 311.101562 194.699219 " style=" stroke:none;fill-rule:nonzero;fill:rgb(87.843137%,87.843137%,88.627451%);fill-opacity:1;" />
<path d="M 388.800781 194.699219 C 388.800781 201.878906 382.980469 207.699219 375.800781 207.699219 C 368.621094 207.699219 362.800781 201.878906 362.800781 194.699219 C 362.800781 187.519531 368.621094 181.699219 375.800781 181.699219 C 382.980469 181.699219 388.800781 187.519531 388.800781 194.699219 Z M 388.800781 194.699219 " style=" stroke:none;fill-rule:nonzero;fill:rgb(87.843137%,87.843137%,88.627451%);fill-opacity:1;" />
<path d="M 427.601562 453.800781 L 453.5 453.800781 L 453.5 518.601562 L 427.601562 518.601562 Z M 427.601562 453.800781 " style=" stroke:none;fill-rule:nonzero;fill:rgb(100%,59.607843%,6.666667%);fill-opacity:1;" />
<path d="M 479.5 453.800781 L 505.398438 453.800781 L 505.398438 518.601562 L 479.5 518.601562 Z M 479.5 453.800781 " style=" stroke:none;fill-rule:nonzero;fill:rgb(100%,59.607843%,6.666667%);fill-opacity:1;" />
<path d="M 544.300781 142.800781 L 570.199219 142.800781 L 570.199219 181.699219 L 544.300781 181.699219 Z M 544.300781 142.800781 " style=" stroke:none;fill-rule:nonzero;fill:rgb(42.745098%,43.137255%,44.313725%);fill-opacity:1;" />
<path d="M 583.101562 142.800781 L 609 142.800781 L 609 181.699219 L 583.101562 181.699219 Z M 583.101562 142.800781 " style=" stroke:none;fill-rule:nonzero;fill:rgb(42.745098%,43.137255%,44.313725%);fill-opacity:1;" />
<path d="M 622 142.800781 L 647.898438 142.800781 L 647.898438 181.699219 L 622 181.699219 Z M 622 142.800781 " style=" stroke:none;fill-rule:nonzero;fill:rgb(42.745098%,43.137255%,44.313725%);fill-opacity:1;" />
<path d="M 544.300781 337.199219 L 570.199219 337.199219 L 570.199219 376.101562 L 544.300781 376.101562 Z M 544.300781 337.199219 " style=" stroke:none;fill-rule:nonzero;fill:rgb(42.745098%,43.137255%,44.313725%);fill-opacity:1;" />
<path d="M 583.101562 337.199219 L 609 337.199219 L 609 376.101562 L 583.101562 376.101562 Z M 583.101562 337.199219 " style=" stroke:none;fill-rule:nonzero;fill:rgb(42.745098%,43.137255%,44.313725%);fill-opacity:1;" />
<path d="M 622 337.199219 L 647.898438 337.199219 L 647.898438 376.101562 L 622 376.101562 Z M 622 337.199219 " style=" stroke:none;fill-rule:nonzero;fill:rgb(42.745098%,43.137255%,44.313725%);fill-opacity:1;" />
<path d="M 531.300781 453.800781 L 557.199219 453.800781 L 557.199219 518.601562 L 531.300781 518.601562 Z M 531.300781 453.800781 " style=" stroke:none;fill-rule:nonzero;fill:rgb(100%,59.607843%,6.666667%);fill-opacity:1;" />
<path d="M 583.101562 453.800781 L 609 453.800781 L 609 518.601562 L 583.101562 518.601562 Z M 583.101562 453.800781 " style=" stroke:none;fill-rule:nonzero;fill:rgb(100%,59.607843%,6.666667%);fill-opacity:1;" />
<path d="M 635 453.800781 L 660.898438 453.800781 L 660.898438 518.601562 L 635 518.601562 Z M 635 453.800781 " style=" stroke:none;fill-rule:nonzero;fill:rgb(100%,59.607843%,6.666667%);fill-opacity:1;" />
<path d="M 686.800781 453.800781 L 712.699219 453.800781 L 712.699219 518.601562 L 686.800781 518.601562 Z M 686.800781 453.800781 " style=" stroke:none;fill-rule:nonzero;fill:rgb(100%,59.607843%,6.666667%);fill-opacity:1;" />
<path d="M 673.800781 207.601562 L 712.699219 207.601562 L 712.699219 233.5 L 673.800781 233.5 Z M 673.800781 207.601562 " style=" stroke:none;fill-rule:nonzero;fill:rgb(42.745098%,43.137255%,44.313725%);fill-opacity:1;" />
<path d="M 673.800781 246.5 L 712.699219 246.5 L 712.699219 272.398438 L 673.800781 272.398438 Z M 673.800781 246.5 " style=" stroke:none;fill-rule:nonzero;fill:rgb(42.745098%,43.137255%,44.313725%);fill-opacity:1;" />
<path d="M 673.800781 285.398438 L 712.699219 285.398438 L 712.699219 311.300781 L 673.800781 311.300781 Z M 673.800781 285.398438 " style=" stroke:none;fill-rule:nonzero;fill:rgb(42.745098%,43.137255%,44.313725%);fill-opacity:1;" />
<path d="M 479.5 207.601562 L 518.398438 207.601562 L 518.398438 233.5 L 479.5 233.5 Z M 479.5 207.601562 " style=" stroke:none;fill-rule:nonzero;fill:rgb(42.745098%,43.137255%,44.313725%);fill-opacity:1;" />
<path d="M 479.5 246.5 L 518.398438 246.5 L 518.398438 272.398438 L 479.5 272.398438 Z M 479.5 246.5 " style=" stroke:none;fill-rule:nonzero;fill:rgb(42.745098%,43.137255%,44.313725%);fill-opacity:1;" />
<path d="M 479.5 285.398438 L 518.398438 285.398438 L 518.398438 311.300781 L 479.5 311.300781 Z M 479.5 285.398438 " style=" stroke:none;fill-rule:nonzero;fill:rgb(42.745098%,43.137255%,44.313725%);fill-opacity:1;" />
<path d="M 298.101562 220.601562 C 283.800781 220.601562 272.199219 209 272.199219 194.699219 C 272.199219 180.398438 283.800781 168.800781 298.101562 168.800781 C 312.398438 168.800781 324 180.398438 324 194.699219 C 324 209 312.398438 220.601562 298.101562 220.601562 Z M 298.101562 194.699219 Z M 298.101562 194.699219 " style=" stroke:none;fill-rule:nonzero;fill:rgb(0%,63.137255%,29.411765%);fill-opacity:1;" />
<path d="M 272.101562 246.5 L 427.601562 246.5 L 427.601562 272.398438 L 272.101562 272.398438 Z M 272.101562 246.5 " style=" stroke:none;fill-rule:nonzero;fill:rgb(50.196078%,50.980392%,52.156863%);fill-opacity:1;" />
<path d="M 272.101562 298.300781 L 375.800781 298.300781 L 375.800781 324.199219 L 272.101562 324.199219 Z M 272.101562 298.300781 " style=" stroke:none;fill-rule:nonzero;fill:rgb(50.196078%,50.980392%,52.156863%);fill-opacity:1;" />
<path d="M 272.101562 350.199219 L 375.800781 350.199219 L 375.800781 376.101562 L 272.101562 376.101562 Z M 272.101562 350.199219 " style=" stroke:none;fill-rule:nonzero;fill:rgb(50.196078%,50.980392%,52.156863%);fill-opacity:1;" />
<path d="M 375.800781 220.601562 C 361.5 220.601562 349.898438 209 349.898438 194.699219 C 349.898438 180.398438 361.5 168.800781 375.800781 168.800781 C 390.101562 168.800781 401.699219 180.398438 401.699219 194.699219 C 401.699219 209 390.101562 220.601562 375.800781 220.601562 Z M 375.800781 194.699219 Z M 375.800781 194.699219 " style=" stroke:none;fill-rule:nonzero;fill:rgb(0%,63.137255%,29.411765%);fill-opacity:1;" />
<path d="M 401.699219 298.300781 L 427.601562 298.300781 L 427.601562 324.199219 L 401.699219 324.199219 Z M 401.699219 298.300781 " style=" stroke:none;fill-rule:nonzero;fill:rgb(50.196078%,50.980392%,52.156863%);fill-opacity:1;" />
<path d="M 401.699219 350.199219 L 427.601562 350.199219 L 427.601562 376.101562 L 401.699219 376.101562 Z M 401.699219 350.199219 " style=" stroke:none;fill-rule:nonzero;fill:rgb(50.196078%,50.980392%,52.156863%);fill-opacity:1;" />
</g>
</svg>