<svg xmlns="http://www.w3.org/2000/svg" height="464pt" version="1.1" viewBox="0 0 464 464.00418" width="464pt">
<g id="surface1">
<path d="M 432.003906 0 L 32.003906 0 C 14.328125 0 0.00390625 14.328125 0.00390625 32 L 0.00390625 80 C 0.00390625 97.671875 14.328125 112 32.003906 112 L 432.003906 112 C 449.675781 112 464.003906 97.671875 464.003906 80 L 464.003906 32 C 464.003906 14.328125 449.675781 0 432.003906 0 Z M 56.003906 80 C 42.746094 80 32.003906 69.253906 32.003906 56 C 32.003906 42.746094 42.746094 32 56.003906 32 C 69.257812 32 80.003906 42.746094 80.003906 56 C 80.003906 69.253906 69.257812 80 56.003906 80 Z M 112.003906 56 Z M 256.003906 72 Z M 288.003906 72 Z M 320.003906 72 Z M 352.003906 72 Z M 384.003906 72 Z M 416.003906 72 Z M 416.003906 72 " style=" stroke:none;fill-rule:nonzero;fill:rgb(87.843137%,87.843137%,88.627451%);fill-opacity:1;" />
<path d="M 80.003906 56 C 80.003906 69.253906 69.257812 80 56.003906 80 C 42.746094 80 32.003906 69.253906 32.003906 56 C 32.003906 42.746094 42.746094 32 56.003906 32 C 69.257812 32 80.003906 42.746094 80.003906 56 Z M 80.003906 56 " style=" stroke:none;fill-rule:nonzero;fill:rgb(14.117647%,53.333333%,100%);fill-opacity:1;" />
<path d="M 0.00390625 144 L 0.00390625 192 C 0.00390625 209.671875 14.328125 224 32.003906 224 L 432.003906 224 C 449.675781 224 464.003906 209.671875 464.003906 192 L 464.003906 144 C 464.003906 126.328125 449.675781 112 432.003906 112 L 32.003906 112 C 14.328125 112 0.00390625 126.328125 0.00390625 144 Z M 416.003906 152 Z M 384.003906 152 Z M 352.003906 152 Z M 320.003906 152 Z M 288.003906 152 Z M 256.003906 152 Z M 208.003906 168 Z M 56.003906 144 C 69.257812 144 80.003906 154.746094 80.003906 168 C 80.003906 181.253906 69.257812 192 56.003906 192 C 42.746094 192 32.003906 181.253906 32.003906 168 C 32.003906 154.746094 42.746094 144 56.003906 144 Z M 56.003906 144 " style=" stroke:none;fill-rule:nonzero;fill:rgb(84.705882%,84.313725%,85.490196%);fill-opacity:1;" />
<path d="M 80.003906 168 C 80.003906 181.253906 69.257812 192 56.003906 192 C 42.746094 192 32.003906 181.253906 32.003906 168 C 32.003906 154.746094 42.746094 144 56.003906 144 C 69.257812 144 80.003906 154.746094 80.003906 168 Z M 80.003906 168 " style=" stroke:none;fill-rule:nonzero;fill:rgb(14.117647%,53.333333%,100%);fill-opacity:1;" />
<path d="M 0.00390625 256 L 0.00390625 304 C 0.00390625 321.671875 14.328125 336 32.003906 336 L 432.003906 336 C 449.675781 336 464.003906 321.671875 464.003906 304 L 464.003906 256 C 464.003906 238.328125 449.675781 224 432.003906 224 L 32.003906 224 C 14.328125 224 0.00390625 238.328125 0.00390625 256 Z M 416.003906 264 Z M 384.003906 264 Z M 352.003906 264 Z M 320.003906 264 Z M 288.003906 264 Z M 256.003906 264 Z M 208.003906 280 Z M 56.003906 256 C 69.257812 256 80.003906 266.746094 80.003906 280 C 80.003906 293.253906 69.257812 304 56.003906 304 C 42.746094 304 32.003906 293.253906 32.003906 280 C 32.003906 266.746094 42.746094 256 56.003906 256 Z M 56.003906 256 " style=" stroke:none;fill-rule:nonzero;fill:rgb(77.647059%,77.254902%,79.215686%);fill-opacity:1;" />
<path d="M 80.003906 280 C 80.003906 293.253906 69.257812 304 56.003906 304 C 42.746094 304 32.003906 293.253906 32.003906 280 C 32.003906 266.746094 42.746094 256 56.003906 256 C 69.257812 256 80.003906 266.746094 80.003906 280 Z M 80.003906 280 " style=" stroke:none;fill-rule:nonzero;fill:rgb(14.117647%,53.333333%,100%);fill-opacity:1;" />
<path d="M 216.003906 387.28125 C 226.21875 382.90625 237.785156 382.90625 248.003906 387.28125 L 248.003906 336 L 216.003906 336 Z M 216.003906 387.28125 " style=" stroke:none;fill-rule:nonzero;fill:rgb(90.196078%,90.588235%,90.980392%);fill-opacity:1;" />
<path d="M 268.722656 440 L 464.003906 440 L 464.003906 408 L 268.640625 408 C 270.863281 413.039062 272.007812 418.492188 272.003906 424 C 271.996094 429.5 270.882812 434.941406 268.722656 440 Z M 268.722656 440 " style=" stroke:none;fill-rule:nonzero;fill:rgb(90.196078%,90.588235%,90.980392%);fill-opacity:1;" />
<path d="M 216.003906 387.28125 C 206.777344 391.371094 199.417969 398.761719 195.363281 408 C 193.140625 413.039062 191.996094 418.492188 192.003906 424 C 192.007812 429.5 193.121094 434.941406 195.28125 440 C 201.667969 454.582031 216.082031 464.003906 232.003906 464.003906 C 247.921875 464.003906 262.335938 454.582031 268.722656 440 C 270.882812 434.941406 271.996094 429.5 272.003906 424 C 272.007812 418.492188 270.863281 413.039062 268.640625 408 C 264.589844 398.761719 257.226562 391.371094 248.003906 387.28125 C 237.785156 382.90625 226.21875 382.90625 216.003906 387.28125 Z M 216.003906 387.28125 " style=" stroke:none;fill-rule:nonzero;fill:rgb(90.196078%,90.588235%,90.980392%);fill-opacity:1;" />
<path d="M 195.363281 408 L 0.00390625 408 L 0.00390625 440 L 195.28125 440 C 193.121094 434.941406 192.007812 429.5 192.003906 424 C 191.996094 418.492188 193.140625 413.039062 195.363281 408 Z M 195.363281 408 " style=" stroke:none;fill-rule:nonzero;fill:rgb(90.196078%,90.588235%,90.980392%);fill-opacity:1;" />
<path d="M 208.003906 64 L 112.003906 64 C 107.582031 64 104.003906 60.417969 104.003906 56 C 104.003906 51.582031 107.582031 48 112.003906 48 L 208.003906 48 C 212.421875 48 216.003906 51.582031 216.003906 56 C 216.003906 60.417969 212.421875 64 208.003906 64 Z M 208.003906 64 " style=" stroke:none;fill-rule:nonzero;fill:rgb(34.117647%,64.313725%,100%);fill-opacity:1;" />
<path d="M 208.003906 176 L 112.003906 176 C 107.582031 176 104.003906 172.417969 104.003906 168 C 104.003906 163.582031 107.582031 160 112.003906 160 L 208.003906 160 C 212.421875 160 216.003906 163.582031 216.003906 168 C 216.003906 172.417969 212.421875 176 208.003906 176 Z M 208.003906 176 " style=" stroke:none;fill-rule:nonzero;fill:rgb(34.117647%,64.313725%,100%);fill-opacity:1;" />
<path d="M 248.003906 40 L 264.003906 40 L 264.003906 72 L 248.003906 72 Z M 248.003906 40 " style=" stroke:none;fill-rule:nonzero;fill:rgb(12.941176%,25.098039%,60.392157%);fill-opacity:1;" />
<path d="M 280.003906 40 L 296.003906 40 L 296.003906 72 L 280.003906 72 Z M 280.003906 40 " style=" stroke:none;fill-rule:nonzero;fill:rgb(12.941176%,25.098039%,60.392157%);fill-opacity:1;" />
<path d="M 312.003906 40 L 328.003906 40 L 328.003906 72 L 312.003906 72 Z M 312.003906 40 " style=" stroke:none;fill-rule:nonzero;fill:rgb(12.941176%,25.098039%,60.392157%);fill-opacity:1;" />
<path d="M 344.003906 40 L 360.003906 40 L 360.003906 72 L 344.003906 72 Z M 344.003906 40 " style=" stroke:none;fill-rule:nonzero;fill:rgb(12.941176%,25.098039%,60.392157%);fill-opacity:1;" />
<path d="M 376.003906 40 L 392.003906 40 L 392.003906 72 L 376.003906 72 Z M 376.003906 40 " style=" stroke:none;fill-rule:nonzero;fill:rgb(12.941176%,25.098039%,60.392157%);fill-opacity:1;" />
<path d="M 408.003906 40 L 424.003906 40 L 424.003906 72 L 408.003906 72 Z M 408.003906 40 " style=" stroke:none;fill-rule:nonzero;fill:rgb(12.941176%,25.098039%,60.392157%);fill-opacity:1;" />
<path d="M 248.003906 152 L 264.003906 152 L 264.003906 184 L 248.003906 184 Z M 248.003906 152 " style=" stroke:none;fill-rule:nonzero;fill:rgb(12.941176%,25.098039%,60.392157%);fill-opacity:1;" />
<path d="M 280.003906 152 L 296.003906 152 L 296.003906 184 L 280.003906 184 Z M 280.003906 152 " style=" stroke:none;fill-rule:nonzero;fill:rgb(12.941176%,25.098039%,60.392157%);fill-opacity:1;" />
<path d="M 312.003906 152 L 328.003906 152 L 328.003906 184 L 312.003906 184 Z M 312.003906 152 " style=" stroke:none;fill-rule:nonzero;fill:rgb(12.941176%,25.098039%,60.392157%);fill-opacity:1;" />
<path d="M 344.003906 152 L 360.003906 152 L 360.003906 184 L 344.003906 184 Z M 344.003906 152 " style=" stroke:none;fill-rule:nonzero;fill:rgb(12.941176%,25.098039%,60.392157%);fill-opacity:1;" />
<path d="M 376.003906 152 L 392.003906 152 L 392.003906 184 L 376.003906 184 Z M 376.003906 152 " style=" stroke:none;fill-rule:nonzero;fill:rgb(12.941176%,25.098039%,60.392157%);fill-opacity:1;" />
<path d="M 408.003906 152 L 424.003906 152 L 424.003906 184 L 408.003906 184 Z M 408.003906 152 " style=" stroke:none;fill-rule:nonzero;fill:rgb(12.941176%,25.098039%,60.392157%);fill-opacity:1;" />
<path d="M 208.003906 288 L 112.003906 288 C 107.582031 288 104.003906 284.417969 104.003906 280 C 104.003906 275.582031 107.582031 272 112.003906 272 L 208.003906 272 C 212.421875 272 216.003906 275.582031 216.003906 280 C 216.003906 284.417969 212.421875 288 208.003906 288 Z M 208.003906 288 " style=" stroke:none;fill-rule:nonzero;fill:rgb(34.117647%,64.313725%,100%);fill-opacity:1;" />
<path d="M 248.003906 264 L 264.003906 264 L 264.003906 296 L 248.003906 296 Z M 248.003906 264 " style=" stroke:none;fill-rule:nonzero;fill:rgb(12.941176%,25.098039%,60.392157%);fill-opacity:1;" />
<path d="M 280.003906 264 L 296.003906 264 L 296.003906 296 L 280.003906 296 Z M 280.003906 264 " style=" stroke:none;fill-rule:nonzero;fill:rgb(12.941176%,25.098039%,60.392157%);fill-opacity:1;" />
<path d="M 312.003906 264 L 328.003906 264 L 328.003906 296 L 312.003906 296 Z M 312.003906 264 " style=" stroke:none;fill-rule:nonzero;fill:rgb(12.941176%,25.098039%,60.392157%);fill-opacity:1;" />
<path d="M 344.003906 264 L 360.003906 264 L 360.003906 296 L 344.003906 296 Z M 344.003906 264 " style=" stroke:none;fill-rule:nonzero;fill:rgb(12.941176%,25.098039%,60.392157%);fill-opacity:1;" />
<path d="M 376.003906 264 L 392.003906 264 L 392.003906 296 L 376.003906 296 Z M 376.003906 264 " style=" stroke:none;fill-rule:nonzero;fill:rgb(12.941176%,25.098039%,60.392157%);fill-opacity:1;" />
<path d="M 408.003906 264 L 424.003906 264 L 424.003906 296 L 408.003906 296 Z M 408.003906 264 " style=" stroke:none;fill-rule:nonzero;fill:rgb(12.941176%,25.098039%,60.392157%);fill-opacity:1;" />
</g>
</svg>