<svg xmlns="http://www.w3.org/2000/svg" height="762pt" version="1.1" viewBox="0 -47 762.6 762" width="762pt">
<g id="surface1">
<path d="M 736.300781 90.742188 L 687 90.742188 L 659 143.339844 L 710 143.339844 L 710 616.640625 L 131.5 616.640625 L 131.5 143.339844 L 585.898438 143.339844 L 618.601562 90.742188 L 26.300781 90.742188 C 11.800781 90.742188 0 102.542969 0 117.042969 L 0 642.941406 C 0 657.441406 11.800781 669.242188 26.300781 669.242188 L 736.300781 669.242188 C 750.800781 669.242188 762.601562 657.441406 762.601562 642.941406 L 762.601562 117.042969 C 762.601562 102.542969 750.800781 90.839844 736.300781 90.742188 Z M 39.398438 511.542969 Z M 39.398438 458.941406 Z M 65.699219 406.339844 C 51.199219 406.339844 39.398438 394.542969 39.398438 380.042969 C 39.398438 365.542969 51.199219 353.742188 65.699219 353.742188 C 80.199219 353.742188 92 365.542969 92 380.042969 C 92 394.542969 80.300781 406.339844 65.699219 406.339844 Z M 39.398438 301.140625 Z M 39.398438 248.542969 Z M 39.398438 248.542969 " style=" stroke:none;fill-rule:nonzero;fill:rgb(42.745098%,43.137255%,44.313725%);fill-opacity:1;" />
<path d="M 512.300781 440.441406 L 512.300781 440.542969 L 427.300781 482.542969 L 421.199219 387.941406 L 421.300781 387.941406 L 472 326.140625 L 585.898438 143.339844 L 131.5 143.339844 L 131.5 616.742188 L 710 616.742188 L 710 143.339844 L 659 143.339844 L 540.398438 365.542969 Z M 512.300781 440.441406 " style=" stroke:none;fill-rule:nonzero;fill:rgb(57.647059%,58.431373%,59.607843%);fill-opacity:1;" />
<path d="M 92 380.042969 C 92 394.566406 80.226562 406.339844 65.699219 406.339844 C 51.175781 406.339844 39.398438 394.566406 39.398438 380.042969 C 39.398438 365.515625 51.175781 353.742188 65.699219 353.742188 C 80.226562 353.742188 92 365.515625 92 380.042969 Z M 92 380.042969 " style=" stroke:none;fill-rule:nonzero;fill:rgb(42.745098%,43.137255%,44.313725%);fill-opacity:1;" />
<path d="M 714.199219 39.742188 L 687 90.742188 L 659 143.339844 L 540.398438 365.542969 L 512.300781 440.542969 L 427.300781 482.441406 L 421.300781 387.941406 L 472.101562 326.140625 L 585.898438 143.339844 L 618.601562 90.742188 L 667.300781 12.640625 C 674.800781 0.640625 690.398438 -3.257812 702.699219 3.839844 L 704.300781 4.742188 C 716.5 11.839844 720.898438 27.339844 714.199219 39.742188 Z M 714.199219 39.742188 " style=" stroke:none;fill-rule:nonzero;fill:rgb(34.117647%,33.72549%,36.078431%);fill-opacity:1;" />
<path d="M 65.699219 419.542969 C 43.898438 419.542969 26.300781 401.839844 26.300781 380.140625 C 26.300781 358.339844 44 340.742188 65.699219 340.742188 C 87.398438 340.742188 105.101562 358.441406 105.101562 380.140625 C 105.199219 401.839844 87.5 419.542969 65.699219 419.542969 Z M 65.699219 366.941406 C 58.398438 366.941406 52.601562 372.839844 52.601562 380.042969 C 52.601562 387.339844 58.5 393.140625 65.699219 393.140625 C 72.898438 393.140625 78.800781 387.242188 78.800781 380.042969 C 78.898438 372.742188 73 366.941406 65.699219 366.941406 Z M 65.699219 366.941406 " style=" stroke:none;fill-rule:nonzero;fill:rgb(34.509804%,34.901961%,35.686275%);fill-opacity:1;" />
<path d="M 39.398438 288.042969 L 92 288.042969 L 92 314.339844 L 39.398438 314.339844 Z M 39.398438 288.042969 " style=" stroke:none;fill-rule:nonzero;fill:rgb(34.509804%,34.901961%,35.686275%);fill-opacity:1;" />
<path d="M 39.398438 235.441406 L 92 235.441406 L 92 261.742188 L 39.398438 261.742188 Z M 39.398438 235.441406 " style=" stroke:none;fill-rule:nonzero;fill:rgb(34.509804%,34.901961%,35.686275%);fill-opacity:1;" />
<path d="M 39.398438 498.339844 L 92 498.339844 L 92 524.640625 L 39.398438 524.640625 Z M 39.398438 498.339844 " style=" stroke:none;fill-rule:nonzero;fill:rgb(34.509804%,34.901961%,35.686275%);fill-opacity:1;" />
<path d="M 39.398438 445.742188 L 92 445.742188 L 92 472.042969 L 39.398438 472.042969 Z M 39.398438 445.742188 " style=" stroke:none;fill-rule:nonzero;fill:rgb(34.509804%,34.901961%,35.686275%);fill-opacity:1;" />
<path d="M 486.5 393.242188 C 479.199219 393.242188 473.398438 387.339844 473.398438 380.042969 C 473.398438 377.742188 474 375.441406 475.199219 373.441406 L 527.800781 282.339844 C 531.5 276.042969 539.5 273.941406 545.800781 277.640625 C 552 281.242188 554.101562 289.242188 550.601562 295.441406 L 498 386.542969 C 495.5 390.742188 491.199219 393.242188 486.5 393.242188 Z M 486.5 393.242188 " style=" stroke:none;fill-rule:nonzero;fill:rgb(42.745098%,43.137255%,44.313725%);fill-opacity:1;" />
</g>
</svg>