<svg xmlns="http://www.w3.org/2000/svg" height="511.99998pt" version="1.1" viewBox="1 1 511.99998 511.99998" width="511.99998pt">
<g id="surface1">
<path d="M 460.800781 85.332031 C 460.800781 66.480469 445.519531 51.199219 426.667969 51.199219 L 85.332031 51.199219 C 66.480469 51.199219 51.199219 66.480469 51.199219 85.332031 L 51.199219 426.667969 C 51.199219 445.515625 66.480469 460.800781 85.332031 460.800781 L 426.667969 460.800781 C 445.515625 460.800781 460.800781 445.515625 460.800781 426.667969 Z M 409.601562 409.601562 L 102.398438 409.601562 L 102.398438 102.398438 L 409.601562 102.398438 Z M 409.601562 409.601562 " style=" stroke:none;fill-rule:nonzero;fill:rgb(30.588235%,56.470588%,11.764706%);fill-opacity:1;" />
<path d="M 102.398438 409.601562 L 409.601562 409.601562 L 409.601562 102.398438 L 102.398438 102.398438 Z M 170.667969 153.601562 C 180.09375 153.601562 187.734375 161.242188 187.734375 170.667969 C 187.734375 180.09375 180.09375 187.734375 170.667969 187.734375 C 161.242188 187.734375 153.601562 180.09375 153.601562 170.667969 C 153.601562 161.242188 161.242188 153.601562 170.667969 153.601562 Z M 170.667969 153.601562 " style=" stroke:none;fill-rule:nonzero;fill:rgb(36.862745%,67.45098%,14.117647%);fill-opacity:1;" />
<path d="M 187.734375 170.667969 C 187.734375 180.09375 180.09375 187.734375 170.667969 187.734375 C 161.242188 187.734375 153.601562 180.09375 153.601562 170.667969 C 153.601562 161.242188 161.242188 153.601562 170.667969 153.601562 C 180.09375 153.601562 187.734375 161.242188 187.734375 170.667969 Z M 187.734375 170.667969 " style=" stroke:none;fill-rule:nonzero;fill:rgb(30.588235%,56.470588%,11.764706%);fill-opacity:1;" />
<path d="M 221.867188 0 L 238.933594 0 L 238.933594 51.199219 L 221.867188 51.199219 Z M 221.867188 0 " style=" stroke:none;fill-rule:nonzero;fill:rgb(100%,59.607843%,6.666667%);fill-opacity:1;" />
<path d="M 273.066406 0 L 290.132812 0 L 290.132812 51.199219 L 273.066406 51.199219 Z M 273.066406 0 " style=" stroke:none;fill-rule:nonzero;fill:rgb(100%,59.607843%,6.666667%);fill-opacity:1;" />
<path d="M 324.265625 0 L 341.332031 0 L 341.332031 51.199219 L 324.265625 51.199219 Z M 324.265625 0 " style=" stroke:none;fill-rule:nonzero;fill:rgb(100%,59.607843%,6.666667%);fill-opacity:1;" />
<path d="M 375.46875 0 L 392.535156 0 L 392.535156 51.199219 L 375.46875 51.199219 Z M 375.46875 0 " style=" stroke:none;fill-rule:nonzero;fill:rgb(100%,59.607843%,6.666667%);fill-opacity:1;" />
<path d="M 119.46875 0 L 136.535156 0 L 136.535156 51.199219 L 119.46875 51.199219 Z M 119.46875 0 " style=" stroke:none;fill-rule:nonzero;fill:rgb(100%,59.607843%,6.666667%);fill-opacity:1;" />
<path d="M 170.667969 0 L 187.734375 0 L 187.734375 51.199219 L 170.667969 51.199219 Z M 170.667969 0 " style=" stroke:none;fill-rule:nonzero;fill:rgb(100%,59.607843%,6.666667%);fill-opacity:1;" />
<path d="M 196.265625 349.867188 L 213.332031 349.867188 L 213.332031 384 L 196.265625 384 Z M 196.265625 349.867188 " style=" stroke:none;fill-rule:nonzero;fill:rgb(100%,85.490196%,26.666667%);fill-opacity:1;" />
<path d="M 230.398438 349.867188 L 247.46875 349.867188 L 247.46875 384 L 230.398438 384 Z M 230.398438 349.867188 " style=" stroke:none;fill-rule:nonzero;fill:rgb(100%,85.490196%,26.666667%);fill-opacity:1;" />
<path d="M 264.53125 349.867188 L 281.601562 349.867188 L 281.601562 384 L 264.53125 384 Z M 264.53125 349.867188 " style=" stroke:none;fill-rule:nonzero;fill:rgb(100%,85.490196%,26.666667%);fill-opacity:1;" />
<path d="M 298.667969 349.867188 L 315.734375 349.867188 L 315.734375 384 L 298.667969 384 Z M 298.667969 349.867188 " style=" stroke:none;fill-rule:nonzero;fill:rgb(100%,85.490196%,26.666667%);fill-opacity:1;" />
<path d="M 332.800781 349.867188 L 349.867188 349.867188 L 349.867188 384 L 332.800781 384 Z M 332.800781 349.867188 " style=" stroke:none;fill-rule:nonzero;fill:rgb(100%,85.490196%,26.666667%);fill-opacity:1;" />
<path d="M 162.132812 349.867188 L 179.199219 349.867188 L 179.199219 384 L 162.132812 384 Z M 162.132812 349.867188 " style=" stroke:none;fill-rule:nonzero;fill:rgb(100%,85.490196%,26.666667%);fill-opacity:1;" />
<path d="M 221.867188 460.800781 L 238.933594 460.800781 L 238.933594 512 L 221.867188 512 Z M 221.867188 460.800781 " style=" stroke:none;fill-rule:nonzero;fill:rgb(100%,59.607843%,6.666667%);fill-opacity:1;" />
<path d="M 273.066406 460.800781 L 290.132812 460.800781 L 290.132812 512 L 273.066406 512 Z M 273.066406 460.800781 " style=" stroke:none;fill-rule:nonzero;fill:rgb(100%,59.607843%,6.666667%);fill-opacity:1;" />
<path d="M 324.265625 460.800781 L 341.332031 460.800781 L 341.332031 512 L 324.265625 512 Z M 324.265625 460.800781 " style=" stroke:none;fill-rule:nonzero;fill:rgb(100%,59.607843%,6.666667%);fill-opacity:1;" />
<path d="M 375.46875 460.800781 L 392.535156 460.800781 L 392.535156 512 L 375.46875 512 Z M 375.46875 460.800781 " style=" stroke:none;fill-rule:nonzero;fill:rgb(100%,59.607843%,6.666667%);fill-opacity:1;" />
<path d="M 119.46875 460.800781 L 136.535156 460.800781 L 136.535156 512 L 119.46875 512 Z M 119.46875 460.800781 " style=" stroke:none;fill-rule:nonzero;fill:rgb(100%,59.607843%,6.666667%);fill-opacity:1;" />
<path d="M 170.667969 460.800781 L 187.734375 460.800781 L 187.734375 512 L 170.667969 512 Z M 170.667969 460.800781 " style=" stroke:none;fill-rule:nonzero;fill:rgb(100%,59.607843%,6.666667%);fill-opacity:1;" />
<path d="M 0 221.867188 L 51.199219 221.867188 L 51.199219 238.933594 L 0 238.933594 Z M 0 221.867188 " style=" stroke:none;fill-rule:nonzero;fill:rgb(100%,59.607843%,6.666667%);fill-opacity:1;" />
<path d="M 0 170.667969 L 51.199219 170.667969 L 51.199219 187.734375 L 0 187.734375 Z M 0 170.667969 " style=" stroke:none;fill-rule:nonzero;fill:rgb(100%,59.607843%,6.666667%);fill-opacity:1;" />
<path d="M 0 119.46875 L 51.199219 119.46875 L 51.199219 136.535156 L 0 136.535156 Z M 0 119.46875 " style=" stroke:none;fill-rule:nonzero;fill:rgb(100%,59.607843%,6.666667%);fill-opacity:1;" />
<path d="M 0 375.46875 L 51.199219 375.46875 L 51.199219 392.535156 L 0 392.535156 Z M 0 375.46875 " style=" stroke:none;fill-rule:nonzero;fill:rgb(100%,59.607843%,6.666667%);fill-opacity:1;" />
<path d="M 0 324.265625 L 51.199219 324.265625 L 51.199219 341.332031 L 0 341.332031 Z M 0 324.265625 " style=" stroke:none;fill-rule:nonzero;fill:rgb(100%,59.607843%,6.666667%);fill-opacity:1;" />
<path d="M 0 273.066406 L 51.199219 273.066406 L 51.199219 290.132812 L 0 290.132812 Z M 0 273.066406 " style=" stroke:none;fill-rule:nonzero;fill:rgb(100%,59.607843%,6.666667%);fill-opacity:1;" />
<path d="M 460.800781 221.867188 L 512 221.867188 L 512 238.933594 L 460.800781 238.933594 Z M 460.800781 221.867188 " style=" stroke:none;fill-rule:nonzero;fill:rgb(100%,59.607843%,6.666667%);fill-opacity:1;" />
<path d="M 460.800781 170.667969 L 512 170.667969 L 512 187.734375 L 460.800781 187.734375 Z M 460.800781 170.667969 " style=" stroke:none;fill-rule:nonzero;fill:rgb(100%,59.607843%,6.666667%);fill-opacity:1;" />
<path d="M 460.800781 119.46875 L 512 119.46875 L 512 136.535156 L 460.800781 136.535156 Z M 460.800781 119.46875 " style=" stroke:none;fill-rule:nonzero;fill:rgb(100%,59.607843%,6.666667%);fill-opacity:1;" />
<path d="M 460.800781 375.46875 L 512 375.46875 L 512 392.535156 L 460.800781 392.535156 Z M 460.800781 375.46875 " style=" stroke:none;fill-rule:nonzero;fill:rgb(100%,59.607843%,6.666667%);fill-opacity:1;" />
<path d="M 460.800781 324.265625 L 512 324.265625 L 512 341.332031 L 460.800781 341.332031 Z M 460.800781 324.265625 " style=" stroke:none;fill-rule:nonzero;fill:rgb(100%,59.607843%,6.666667%);fill-opacity:1;" />
<path d="M 460.800781 273.066406 L 512 273.066406 L 512 290.132812 L 460.800781 290.132812 Z M 460.800781 273.066406 " style=" stroke:none;fill-rule:nonzero;fill:rgb(100%,59.607843%,6.666667%);fill-opacity:1;" />
<path d="M 170.667969 213.332031 L 358.398438 213.332031 L 358.398438 230.398438 L 170.667969 230.398438 Z M 170.667969 213.332031 " style=" stroke:none;fill-rule:nonzero;fill:rgb(100%,85.490196%,26.666667%);fill-opacity:1;" />
<path d="M 170.667969 247.46875 L 324.265625 247.46875 L 324.265625 264.535156 L 170.667969 264.535156 Z M 170.667969 247.46875 " style=" stroke:none;fill-rule:nonzero;fill:rgb(100%,85.490196%,26.666667%);fill-opacity:1;" />
<path d="M 170.667969 281.601562 L 238.933594 281.601562 L 238.933594 298.667969 L 170.667969 298.667969 Z M 170.667969 281.601562 " style=" stroke:none;fill-rule:nonzero;fill:rgb(100%,85.490196%,26.666667%);fill-opacity:1;" />
<path d="M 256 281.601562 L 273.066406 281.601562 L 273.066406 298.667969 L 256 298.667969 Z M 256 281.601562 " style=" stroke:none;fill-rule:nonzero;fill:rgb(100%,85.490196%,26.666667%);fill-opacity:1;" />
<path d="M 341.332031 247.46875 L 358.398438 247.46875 L 358.398438 264.535156 L 341.332031 264.535156 Z M 341.332031 247.46875 " style=" stroke:none;fill-rule:nonzero;fill:rgb(100%,85.490196%,26.666667%);fill-opacity:1;" />
</g>
</svg>