<svg xmlns="http://www.w3.org/2000/svg" height="464pt" version="1.1" viewBox="0 0 464 464" width="464pt">
<g id="surface1">
<path d="M 232 32 L 58 128 L 40 137.921875 L 40 464 L 424 464 L 424 137.921875 L 406 128 Z M 392 224 C 392 241.671875 377.671875 256 360 256 C 377.671875 256 392 270.328125 392 288 L 392 304 C 392 321.671875 377.671875 336 360 336 C 377.671875 336 392 350.328125 392 368 L 392 384 C 392 401.671875 377.671875 416 360 416 L 104 416 C 86.328125 416 72 401.671875 72 384 L 72 368 C 72 350.328125 86.328125 336 104 336 C 86.328125 336 72 321.671875 72 304 L 72 288 C 72 270.328125 86.328125 256 104 256 C 86.328125 256 72 241.671875 72 224 L 72 208 C 72 190.328125 86.328125 176 104 176 L 360 176 C 377.671875 176 392 190.328125 392 208 Z M 392 224 " style=" stroke:none;fill-rule:nonzero;fill:rgb(74.117647%,85.882353%,100%);fill-opacity:1;" />
<path d="M 0 128 L 0 160 L 40 137.921875 L 58 128 L 232 32 L 406 128 L 424 137.921875 L 464 160 L 464 128 L 232 0 Z M 0 128 " style=" stroke:none;fill-rule:nonzero;fill:rgb(14.117647%,53.333333%,100%);fill-opacity:1;" />
<path d="M 360 176 L 104 176 C 86.328125 176 72 190.328125 72 208 L 72 224 C 72 241.671875 86.328125 256 104 256 L 360 256 C 377.671875 256 392 241.671875 392 224 L 392 208 C 392 190.328125 377.671875 176 360 176 Z M 136 216 C 136 224.835938 128.835938 232 120 232 C 111.164062 232 104 224.835938 104 216 C 104 207.164062 111.164062 200 120 200 C 128.835938 200 136 207.164062 136 216 Z M 264 224 Z M 296 224 Z M 328 224 Z M 360 224 Z M 360 224 " style=" stroke:none;fill-rule:nonzero;fill:rgb(87.843137%,87.843137%,88.627451%);fill-opacity:1;" />
<path d="M 136 216 C 136 224.835938 128.835938 232 120 232 C 111.164062 232 104 224.835938 104 216 C 104 207.164062 111.164062 200 120 200 C 128.835938 200 136 207.164062 136 216 Z M 136 216 " style=" stroke:none;fill-rule:nonzero;fill:rgb(14.117647%,53.333333%,100%);fill-opacity:1;" />
<path d="M 72 288 L 72 304 C 72 321.671875 86.328125 336 104 336 L 360 336 C 377.671875 336 392 321.671875 392 304 L 392 288 C 392 270.328125 377.671875 256 360 256 L 104 256 C 86.328125 256 72 270.328125 72 288 Z M 360 288 Z M 328 288 Z M 296 288 Z M 264 288 Z M 120 280 C 128.835938 280 136 287.164062 136 296 C 136 304.835938 128.835938 312 120 312 C 111.164062 312 104 304.835938 104 296 C 104 287.164062 111.164062 280 120 280 Z M 120 280 " style=" stroke:none;fill-rule:nonzero;fill:rgb(84.705882%,84.313725%,85.490196%);fill-opacity:1;" />
<path d="M 136 296 C 136 304.835938 128.835938 312 120 312 C 111.164062 312 104 304.835938 104 296 C 104 287.164062 111.164062 280 120 280 C 128.835938 280 136 287.164062 136 296 Z M 136 296 " style=" stroke:none;fill-rule:nonzero;fill:rgb(14.117647%,53.333333%,100%);fill-opacity:1;" />
<path d="M 72 368 L 72 384 C 72 401.671875 86.328125 416 104 416 L 360 416 C 377.671875 416 392 401.671875 392 384 L 392 368 C 392 350.328125 377.671875 336 360 336 L 104 336 C 86.328125 336 72 350.328125 72 368 Z M 360 368 Z M 328 368 Z M 296 368 Z M 264 368 Z M 120 360 C 128.835938 360 136 367.164062 136 376 C 136 384.835938 128.835938 392 120 392 C 111.164062 392 104 384.835938 104 376 C 104 367.164062 111.164062 360 120 360 Z M 120 360 " style=" stroke:none;fill-rule:nonzero;fill:rgb(77.647059%,77.254902%,79.215686%);fill-opacity:1;" />
<path d="M 136 376 C 136 384.835938 128.835938 392 120 392 C 111.164062 392 104 384.835938 104 376 C 104 367.164062 111.164062 360 120 360 C 128.835938 360 136 367.164062 136 376 Z M 136 376 " style=" stroke:none;fill-rule:nonzero;fill:rgb(14.117647%,53.333333%,100%);fill-opacity:1;" />
<path d="M 216 224 L 160 224 C 155.582031 224 152 220.417969 152 216 C 152 211.582031 155.582031 208 160 208 L 216 208 C 220.417969 208 224 211.582031 224 216 C 224 220.417969 220.417969 224 216 224 Z M 216 224 " style=" stroke:none;fill-rule:nonzero;fill:rgb(34.117647%,64.313725%,100%);fill-opacity:1;" />
<path d="M 256 208 L 272 208 L 272 224 L 256 224 Z M 256 208 " style=" stroke:none;fill-rule:nonzero;fill:rgb(12.941176%,25.098039%,60.392157%);fill-opacity:1;" />
<path d="M 288 208 L 304 208 L 304 224 L 288 224 Z M 288 208 " style=" stroke:none;fill-rule:nonzero;fill:rgb(12.941176%,25.098039%,60.392157%);fill-opacity:1;" />
<path d="M 320 208 L 336 208 L 336 224 L 320 224 Z M 320 208 " style=" stroke:none;fill-rule:nonzero;fill:rgb(12.941176%,25.098039%,60.392157%);fill-opacity:1;" />
<path d="M 216 304 L 160 304 C 155.582031 304 152 300.417969 152 296 C 152 291.582031 155.582031 288 160 288 L 216 288 C 220.417969 288 224 291.582031 224 296 C 224 300.417969 220.417969 304 216 304 Z M 216 304 " style=" stroke:none;fill-rule:nonzero;fill:rgb(34.117647%,64.313725%,100%);fill-opacity:1;" />
<path d="M 256 288 L 272 288 L 272 304 L 256 304 Z M 256 288 " style=" stroke:none;fill-rule:nonzero;fill:rgb(12.941176%,25.098039%,60.392157%);fill-opacity:1;" />
<path d="M 288 288 L 304 288 L 304 304 L 288 304 Z M 288 288 " style=" stroke:none;fill-rule:nonzero;fill:rgb(12.941176%,25.098039%,60.392157%);fill-opacity:1;" />
<path d="M 320 288 L 336 288 L 336 304 L 320 304 Z M 320 288 " style=" stroke:none;fill-rule:nonzero;fill:rgb(12.941176%,25.098039%,60.392157%);fill-opacity:1;" />
<path d="M 352 288 L 368 288 L 368 304 L 352 304 Z M 352 288 " style=" stroke:none;fill-rule:nonzero;fill:rgb(12.941176%,25.098039%,60.392157%);fill-opacity:1;" />
<path d="M 216 384 L 160 384 C 155.582031 384 152 380.417969 152 376 C 152 371.582031 155.582031 368 160 368 L 216 368 C 220.417969 368 224 371.582031 224 376 C 224 380.417969 220.417969 384 216 384 Z M 216 384 " style=" stroke:none;fill-rule:nonzero;fill:rgb(34.117647%,64.313725%,100%);fill-opacity:1;" />
<path d="M 256 368 L 272 368 L 272 384 L 256 384 Z M 256 368 " style=" stroke:none;fill-rule:nonzero;fill:rgb(12.941176%,25.098039%,60.392157%);fill-opacity:1;" />
<path d="M 288 368 L 304 368 L 304 384 L 288 384 Z M 288 368 " style=" stroke:none;fill-rule:nonzero;fill:rgb(12.941176%,25.098039%,60.392157%);fill-opacity:1;" />
<path d="M 320 368 L 336 368 L 336 384 L 320 384 Z M 320 368 " style=" stroke:none;fill-rule:nonzero;fill:rgb(12.941176%,25.098039%,60.392157%);fill-opacity:1;" />
<path d="M 352 368 L 368 368 L 368 384 L 352 384 Z M 352 368 " style=" stroke:none;fill-rule:nonzero;fill:rgb(12.941176%,25.098039%,60.392157%);fill-opacity:1;" />
<path d="M 352 208 L 368 208 L 368 224 L 352 224 Z M 352 208 " style=" stroke:none;fill-rule:nonzero;fill:rgb(12.941176%,25.098039%,60.392157%);fill-opacity:1;" />
</g>
</svg>