<svg xmlns="http://www.w3.org/2000/svg" height="511pt" version="1.1" viewBox="1 0 511.99994 511" width="511pt">
<g id="surface1">
<path d="M 0 475.867188 C 0 495.367188 15.808594 511.175781 35.308594 511.175781 L 476.691406 511.175781 C 496.191406 511.175781 512 495.367188 512 475.867188 L 512 387.589844 L 0 387.589844 Z M 61.792969 422.898438 C 76.417969 422.898438 88.277344 434.757812 88.277344 449.382812 C 88.277344 464.007812 76.417969 475.867188 61.792969 475.867188 C 47.167969 475.867188 35.308594 464.007812 35.308594 449.382812 C 35.308594 434.757812 47.167969 422.898438 61.792969 422.898438 Z M 61.792969 422.898438 " style=" stroke:none;fill-rule:nonzero;fill:rgb(77.647059%,77.254902%,79.215686%);fill-opacity:1;" />
<path d="M 88.277344 449.382812 C 88.277344 464.007812 76.417969 475.867188 61.792969 475.867188 C 47.167969 475.867188 35.308594 464.007812 35.308594 449.382812 C 35.308594 434.757812 47.167969 422.898438 61.792969 422.898438 C 76.417969 422.898438 88.277344 434.757812 88.277344 449.382812 Z M 88.277344 449.382812 " style=" stroke:none;fill-rule:nonzero;fill:rgb(14.117647%,53.333333%,100%);fill-opacity:1;" />
<path d="M 37.339844 9.328125 C 34.191406 3.871094 28.371094 0.507812 22.070312 0.5 C 18.96875 0.519531 15.929688 1.339844 13.242188 2.882812 C 4.8125 7.765625 1.929688 18.546875 6.796875 26.984375 L 123.234375 228.695312 L 164.015625 228.695312 Z M 37.339844 9.328125 " style=" stroke:none;fill-rule:nonzero;fill:rgb(53.72549%,53.333333%,56.470588%);fill-opacity:1;" />
<path d="M 505.203125 26.984375 C 510.070312 18.546875 507.1875 7.765625 498.757812 2.882812 C 496.070312 1.339844 493.03125 0.519531 489.933594 0.5 C 483.628906 0.507812 477.8125 3.871094 474.660156 9.328125 L 347.984375 228.695312 L 388.765625 228.695312 Z M 505.203125 26.984375 " style=" stroke:none;fill-rule:nonzero;fill:rgb(53.72549%,53.333333%,56.470588%);fill-opacity:1;" />
<path d="M 448.351562 228.695312 L 63.648438 228.695312 C 47.085938 228.667969 32.734375 240.160156 29.132812 256.324219 L 0 387.589844 L 512 387.589844 L 482.867188 256.324219 C 479.265625 240.160156 464.914062 228.667969 448.351562 228.695312 Z M 448.351562 228.695312 " style=" stroke:none;fill-rule:nonzero;fill:rgb(84.705882%,84.313725%,85.490196%);fill-opacity:1;" />
<path d="M 229.519531 458.210938 L 123.585938 458.210938 C 118.710938 458.210938 114.757812 454.257812 114.757812 449.382812 C 114.757812 444.507812 118.710938 440.554688 123.585938 440.554688 L 229.519531 440.554688 C 234.394531 440.554688 238.34375 444.507812 238.34375 449.382812 C 238.34375 454.257812 234.390625 458.210938 229.519531 458.210938 Z M 229.519531 458.210938 " style=" stroke:none;fill-rule:nonzero;fill:rgb(34.117647%,64.313725%,100%);fill-opacity:1;" />
<path d="M 379.585938 272.832031 L 61.792969 272.832031 C 56.917969 272.832031 52.964844 268.878906 52.964844 264.003906 C 52.964844 259.128906 56.917969 255.175781 61.792969 255.175781 L 379.585938 255.175781 C 384.460938 255.175781 388.414062 259.128906 388.414062 264.003906 C 388.414062 268.878906 384.460938 272.832031 379.585938 272.832031 Z M 379.585938 272.832031 " style=" stroke:none;fill-rule:nonzero;fill:rgb(94.509804%,94.901961%,94.901961%);fill-opacity:1;" />
<path d="M 450.207031 272.832031 L 414.898438 272.832031 C 410.019531 272.832031 406.070312 268.878906 406.070312 264.003906 C 406.070312 259.128906 410.023438 255.175781 414.898438 255.175781 L 450.207031 255.175781 C 455.082031 255.175781 459.035156 259.128906 459.035156 264.003906 C 459.035156 268.878906 455.082031 272.832031 450.207031 272.832031 Z M 450.207031 272.832031 " style=" stroke:none;fill-rule:nonzero;fill:rgb(94.509804%,94.901961%,94.901961%);fill-opacity:1;" />
<path d="M 273.65625 431.726562 L 291.308594 431.726562 L 291.308594 467.039062 L 273.65625 467.039062 Z M 273.65625 431.726562 " style=" stroke:none;fill-rule:nonzero;fill:rgb(12.941176%,25.098039%,60.392157%);fill-opacity:1;" />
<path d="M 308.964844 431.726562 L 326.621094 431.726562 L 326.621094 467.039062 L 308.964844 467.039062 Z M 308.964844 431.726562 " style=" stroke:none;fill-rule:nonzero;fill:rgb(12.941176%,25.098039%,60.392157%);fill-opacity:1;" />
<path d="M 344.277344 431.726562 L 361.929688 431.726562 L 361.929688 467.039062 L 344.277344 467.039062 Z M 344.277344 431.726562 " style=" stroke:none;fill-rule:nonzero;fill:rgb(12.941176%,25.098039%,60.392157%);fill-opacity:1;" />
<path d="M 379.585938 431.726562 L 397.242188 431.726562 L 397.242188 467.039062 L 379.585938 467.039062 Z M 379.585938 431.726562 " style=" stroke:none;fill-rule:nonzero;fill:rgb(12.941176%,25.098039%,60.392157%);fill-opacity:1;" />
<path d="M 414.898438 431.726562 L 432.550781 431.726562 L 432.550781 467.039062 L 414.898438 467.039062 Z M 414.898438 431.726562 " style=" stroke:none;fill-rule:nonzero;fill:rgb(12.941176%,25.098039%,60.392157%);fill-opacity:1;" />
<path d="M 450.207031 431.726562 L 467.863281 431.726562 L 467.863281 467.039062 L 450.207031 467.039062 Z M 450.207031 431.726562 " style=" stroke:none;fill-rule:nonzero;fill:rgb(12.941176%,25.098039%,60.392157%);fill-opacity:1;" />
</g>
</svg>