<svg xmlns="http://www.w3.org/2000/svg" height="512pt" version="1.1" viewBox="-22 0 511 512" width="512pt">
<g id="surface1">
<path d="M 18.464844 512 L 449.625 512 L 449.625 440.140625 L 18.464844 440.140625 Z M 18.464844 512 " style=" stroke:none;fill-rule:nonzero;fill:rgb(34.117647%,33.72549%,36.078431%);fill-opacity:1;" />
<path d="M 18.464844 440.140625 L 449.625 440.140625 L 395.726562 116.773438 L 72.359375 116.773438 Z M 365.285156 152.703125 L 407.207031 404.210938 L 60.878906 404.210938 L 102.800781 152.703125 Z M 365.285156 152.703125 " style=" stroke:none;fill-rule:nonzero;fill:rgb(67.45098%,67.058824%,69.411765%);fill-opacity:1;" />
<path d="M 407.207031 404.210938 L 365.285156 152.703125 L 102.800781 152.703125 L 60.878906 404.210938 Z M 407.207031 404.210938 " style=" stroke:none;fill-rule:nonzero;fill:rgb(87.843137%,87.843137%,88.627451%);fill-opacity:1;" />
<path d="M 0.5 0 L 72.359375 116.773438 L 395.726562 116.773438 L 467.589844 0 Z M 0.5 0 " style=" stroke:none;fill-rule:nonzero;fill:rgb(47.058824%,46.27451%,50.196078%);fill-opacity:1;" />
<path d="M 225.0625 458.105469 L 243.027344 458.105469 L 243.027344 494.035156 L 225.0625 494.035156 Z M 225.0625 458.105469 " style=" stroke:none;fill-rule:nonzero;fill:rgb(90.196078%,90.588235%,90.980392%);fill-opacity:1;" />
<path d="M 260.992188 458.105469 L 278.957031 458.105469 L 278.957031 494.035156 L 260.992188 494.035156 Z M 260.992188 458.105469 " style=" stroke:none;fill-rule:nonzero;fill:rgb(90.196078%,90.588235%,90.980392%);fill-opacity:1;" />
<path d="M 296.921875 458.105469 L 314.886719 458.105469 L 314.886719 494.035156 L 296.921875 494.035156 Z M 296.921875 458.105469 " style=" stroke:none;fill-rule:nonzero;fill:rgb(90.196078%,90.588235%,90.980392%);fill-opacity:1;" />
<path d="M 332.851562 458.105469 L 350.816406 458.105469 L 350.816406 494.035156 L 332.851562 494.035156 Z M 332.851562 458.105469 " style=" stroke:none;fill-rule:nonzero;fill:rgb(90.196078%,90.588235%,90.980392%);fill-opacity:1;" />
<path d="M 368.78125 458.105469 L 386.746094 458.105469 L 386.746094 494.035156 L 368.78125 494.035156 Z M 368.78125 458.105469 " style=" stroke:none;fill-rule:nonzero;fill:rgb(90.196078%,90.588235%,90.980392%);fill-opacity:1;" />
<path d="M 404.710938 458.105469 L 422.675781 458.105469 L 422.675781 494.035156 L 404.710938 494.035156 Z M 404.710938 458.105469 " style=" stroke:none;fill-rule:nonzero;fill:rgb(90.196078%,90.588235%,90.980392%);fill-opacity:1;" />
<path d="M 117.273438 458.105469 L 135.238281 458.105469 L 135.238281 494.035156 L 117.273438 494.035156 Z M 117.273438 458.105469 " style=" stroke:none;fill-rule:nonzero;fill:rgb(90.196078%,90.588235%,90.980392%);fill-opacity:1;" />
<path d="M 153.203125 458.105469 L 171.167969 458.105469 L 171.167969 494.035156 L 153.203125 494.035156 Z M 153.203125 458.105469 " style=" stroke:none;fill-rule:nonzero;fill:rgb(90.196078%,90.588235%,90.980392%);fill-opacity:1;" />
<path d="M 189.132812 458.105469 L 207.097656 458.105469 L 207.097656 494.035156 L 189.132812 494.035156 Z M 189.132812 458.105469 " style=" stroke:none;fill-rule:nonzero;fill:rgb(90.196078%,90.588235%,90.980392%);fill-opacity:1;" />
<path d="M 45.414062 458.105469 L 63.378906 458.105469 L 63.378906 494.035156 L 45.414062 494.035156 Z M 45.414062 458.105469 " style=" stroke:none;fill-rule:nonzero;fill:rgb(90.196078%,90.588235%,90.980392%);fill-opacity:1;" />
<path d="M 81.34375 458.105469 L 99.308594 458.105469 L 99.308594 494.035156 L 81.34375 494.035156 Z M 81.34375 458.105469 " style=" stroke:none;fill-rule:nonzero;fill:rgb(90.196078%,90.588235%,90.980392%);fill-opacity:1;" />
<path d="M 269.972656 35.929688 L 198.113281 35.929688 C 193.152344 35.929688 189.132812 31.90625 189.132812 26.949219 C 189.132812 21.988281 193.152344 17.964844 198.113281 17.964844 L 269.972656 17.964844 C 274.933594 17.964844 278.957031 21.988281 278.957031 26.949219 C 278.957031 31.90625 274.933594 35.929688 269.972656 35.929688 Z M 269.972656 35.929688 " style=" stroke:none;fill-rule:nonzero;fill:rgb(94.509804%,94.901961%,94.901961%);fill-opacity:1;" />
</g>
</svg>