<svg xmlns="http://www.w3.org/2000/svg" height="512pt" version="1.1" viewBox="-62 0 512 512.00085" width="512pt">
<g id="surface1">
<path d="M 370.757812 512 C 380.511719 512 388.414062 504.09375 388.414062 494.34375 L 388.414062 17.65625 C 388.414062 7.90625 380.511719 0 370.757812 0 L 17.65625 0 C 7.90625 0 0 7.90625 0 17.65625 L 0 494.34375 C 0 504.097656 7.90625 512 17.65625 512 Z M 194.207031 459.035156 C 179.582031 459.035156 167.726562 447.179688 167.726562 432.550781 C 167.726562 417.925781 179.582031 406.070312 194.207031 406.070312 C 208.835938 406.070312 220.691406 417.925781 220.691406 432.550781 C 220.691406 447.179688 208.832031 459.035156 194.207031 459.035156 Z M 35.3125 176.550781 L 35.3125 35.308594 L 353.105469 35.308594 L 353.105469 247.171875 L 35.3125 247.171875 Z M 35.3125 176.550781 " style=" stroke:none;fill-rule:nonzero;fill:rgb(14.117647%,53.333333%,100%);fill-opacity:1;" />
<path d="M 353.105469 35.308594 L 35.3125 35.308594 L 35.3125 105.929688 L 353.105469 105.929688 Z M 353.105469 35.308594 " style=" stroke:none;fill-rule:nonzero;fill:rgb(87.843137%,87.843137%,88.627451%);fill-opacity:1;" />
<path d="M 353.105469 105.929688 L 35.3125 105.929688 L 35.3125 176.550781 L 353.105469 176.550781 Z M 353.105469 105.929688 " style=" stroke:none;fill-rule:nonzero;fill:rgb(84.705882%,84.313725%,85.490196%);fill-opacity:1;" />
<path d="M 353.105469 176.550781 L 35.3125 176.550781 L 35.3125 247.171875 L 353.105469 247.171875 Z M 353.105469 176.550781 " style=" stroke:none;fill-rule:nonzero;fill:rgb(77.647059%,77.254902%,79.215686%);fill-opacity:1;" />
<path d="M 220.691406 432.550781 C 220.691406 447.175781 208.835938 459.035156 194.207031 459.035156 C 179.582031 459.035156 167.726562 447.175781 167.726562 432.550781 C 167.726562 417.925781 179.582031 406.070312 194.207031 406.070312 C 208.835938 406.070312 220.691406 417.925781 220.691406 432.550781 Z M 220.691406 432.550781 " style=" stroke:none;fill-rule:nonzero;fill:rgb(87.843137%,87.843137%,88.627451%);fill-opacity:1;" />
<path d="M 317.792969 79.449219 L 300.136719 79.449219 C 295.261719 79.449219 291.3125 75.496094 291.3125 70.621094 C 291.3125 65.746094 295.261719 61.792969 300.136719 61.792969 L 317.792969 61.792969 C 322.667969 61.792969 326.621094 65.746094 326.621094 70.621094 C 326.621094 75.496094 322.667969 79.449219 317.792969 79.449219 Z M 317.792969 79.449219 " style=" stroke:none;fill-rule:nonzero;fill:rgb(12.941176%,25.098039%,60.392157%);fill-opacity:1;" />
<path d="M 317.792969 150.070312 L 300.136719 150.070312 C 295.261719 150.070312 291.3125 146.117188 291.3125 141.242188 C 291.3125 136.367188 295.261719 132.414062 300.136719 132.414062 L 317.792969 132.414062 C 322.667969 132.414062 326.621094 136.367188 326.621094 141.242188 C 326.621094 146.117188 322.667969 150.070312 317.792969 150.070312 Z M 317.792969 150.070312 " style=" stroke:none;fill-rule:nonzero;fill:rgb(12.941176%,25.098039%,60.392157%);fill-opacity:1;" />
<path d="M 317.792969 220.691406 L 300.136719 220.691406 C 295.261719 220.691406 291.3125 216.738281 291.3125 211.863281 C 291.3125 206.988281 295.261719 203.035156 300.136719 203.035156 L 317.792969 203.035156 C 322.667969 203.035156 326.621094 206.988281 326.621094 211.863281 C 326.621094 216.738281 322.667969 220.691406 317.792969 220.691406 Z M 317.792969 220.691406 " style=" stroke:none;fill-rule:nonzero;fill:rgb(12.941176%,25.098039%,60.392157%);fill-opacity:1;" />
</g>
</svg>