<svg xmlns="http://www.w3.org/2000/svg" height="511.99994pt" version="1.1" viewBox="1 1 511.99994 511.99994" width="511.99994pt">
<g id="surface1">
<path d="M 0 229.519531 C 0 249.019531 15.808594 264.828125 35.308594 264.828125 L 476.691406 264.828125 C 496.191406 264.828125 512 249.019531 512 229.519531 L 512 141.242188 L 0 141.242188 Z M 61.792969 176.550781 C 76.417969 176.550781 88.277344 188.410156 88.277344 203.035156 C 88.277344 217.660156 76.417969 229.519531 61.792969 229.519531 C 47.167969 229.519531 35.308594 217.660156 35.308594 203.035156 C 35.308594 188.410156 47.167969 176.550781 61.792969 176.550781 Z M 61.792969 176.550781 " style=" stroke:none;fill-rule:nonzero;fill:rgb(87.843137%,87.843137%,88.627451%);fill-opacity:1;" />
<path d="M 88.277344 203.035156 C 88.277344 217.660156 76.417969 229.519531 61.792969 229.519531 C 47.167969 229.519531 35.308594 217.660156 35.308594 203.035156 C 35.308594 188.410156 47.167969 176.550781 61.792969 176.550781 C 76.417969 176.550781 88.277344 188.410156 88.277344 203.035156 Z M 88.277344 203.035156 " style=" stroke:none;fill-rule:nonzero;fill:rgb(14.117647%,53.333333%,100%);fill-opacity:1;" />
<path d="M 0 300.136719 L 0 353.101562 C 0 372.605469 15.808594 388.414062 35.308594 388.414062 L 476.691406 388.414062 C 496.191406 388.414062 512 372.605469 512 353.101562 L 512 300.136719 C 512 280.636719 496.191406 264.828125 476.691406 264.828125 L 35.308594 264.828125 C 15.808594 264.828125 0 280.636719 0 300.136719 Z M 61.792969 300.136719 C 76.417969 300.136719 88.277344 311.996094 88.277344 326.621094 C 88.277344 341.246094 76.417969 353.101562 61.792969 353.101562 C 47.167969 353.101562 35.308594 341.246094 35.308594 326.621094 C 35.308594 311.996094 47.167969 300.136719 61.792969 300.136719 Z M 61.792969 300.136719 " style=" stroke:none;fill-rule:nonzero;fill:rgb(84.705882%,84.313725%,85.490196%);fill-opacity:1;" />
<path d="M 88.277344 326.621094 C 88.277344 341.246094 76.417969 353.101562 61.792969 353.101562 C 47.167969 353.101562 35.308594 341.246094 35.308594 326.621094 C 35.308594 311.996094 47.167969 300.136719 61.792969 300.136719 C 76.417969 300.136719 88.277344 311.996094 88.277344 326.621094 Z M 88.277344 326.621094 " style=" stroke:none;fill-rule:nonzero;fill:rgb(14.117647%,53.333333%,100%);fill-opacity:1;" />
<path d="M 0 423.722656 L 0 476.691406 C 0 496.191406 15.808594 512 35.308594 512 L 476.691406 512 C 496.191406 512 512 496.191406 512 476.691406 L 512 423.722656 C 512 404.222656 496.191406 388.414062 476.691406 388.414062 L 35.308594 388.414062 C 15.808594 388.414062 0 404.222656 0 423.722656 Z M 61.792969 423.722656 C 76.417969 423.722656 88.277344 435.582031 88.277344 450.207031 C 88.277344 464.832031 76.417969 476.691406 61.792969 476.691406 C 47.167969 476.691406 35.308594 464.832031 35.308594 450.207031 C 35.308594 435.582031 47.167969 423.722656 61.792969 423.722656 Z M 61.792969 423.722656 " style=" stroke:none;fill-rule:nonzero;fill:rgb(77.647059%,77.254902%,79.215686%);fill-opacity:1;" />
<path d="M 88.277344 450.207031 C 88.277344 464.832031 76.417969 476.691406 61.792969 476.691406 C 47.167969 476.691406 35.308594 464.832031 35.308594 450.207031 C 35.308594 435.582031 47.167969 423.722656 61.792969 423.722656 C 76.417969 423.722656 88.277344 435.582031 88.277344 450.207031 Z M 88.277344 450.207031 " style=" stroke:none;fill-rule:nonzero;fill:rgb(14.117647%,53.333333%,100%);fill-opacity:1;" />
<path d="M 462.902344 0 L 49.097656 0 C 40.996094 -0.00390625 33.929688 5.511719 31.964844 13.375 L 0 141.242188 L 512 141.242188 L 480.035156 13.375 C 478.070312 5.511719 471.003906 -0.00390625 462.902344 0 Z M 462.902344 0 " style=" stroke:none;fill-rule:nonzero;fill:rgb(94.509804%,94.901961%,94.901961%);fill-opacity:1;" />
<path d="M 229.519531 211.863281 L 123.585938 211.863281 C 118.710938 211.863281 114.757812 207.910156 114.757812 203.035156 C 114.757812 198.160156 118.710938 194.207031 123.585938 194.207031 L 229.519531 194.207031 C 234.394531 194.207031 238.34375 198.160156 238.34375 203.035156 C 238.34375 207.910156 234.390625 211.863281 229.519531 211.863281 Z M 229.519531 211.863281 " style=" stroke:none;fill-rule:nonzero;fill:rgb(34.117647%,64.313725%,100%);fill-opacity:1;" />
<path d="M 229.519531 335.449219 L 123.585938 335.449219 C 118.710938 335.449219 114.757812 331.496094 114.757812 326.621094 C 114.757812 321.746094 118.710938 317.792969 123.585938 317.792969 L 229.519531 317.792969 C 234.394531 317.792969 238.34375 321.746094 238.34375 326.621094 C 238.34375 331.496094 234.390625 335.449219 229.519531 335.449219 Z M 229.519531 335.449219 " style=" stroke:none;fill-rule:nonzero;fill:rgb(34.117647%,64.313725%,100%);fill-opacity:1;" />
<path d="M 229.519531 459.035156 L 123.585938 459.035156 C 118.710938 459.035156 114.757812 455.082031 114.757812 450.207031 C 114.757812 445.332031 118.710938 441.378906 123.585938 441.378906 L 229.519531 441.378906 C 234.394531 441.378906 238.34375 445.332031 238.34375 450.207031 C 238.34375 455.082031 234.390625 459.035156 229.519531 459.035156 Z M 229.519531 459.035156 " style=" stroke:none;fill-rule:nonzero;fill:rgb(34.117647%,64.313725%,100%);fill-opacity:1;" />
<path d="M 388.414062 44.136719 L 52.964844 44.136719 C 48.089844 44.136719 44.136719 40.1875 44.136719 35.3125 C 44.136719 30.4375 48.089844 26.484375 52.964844 26.484375 L 388.414062 26.484375 C 393.289062 26.484375 397.242188 30.433594 397.242188 35.308594 C 397.242188 40.183594 393.289062 44.136719 388.414062 44.136719 Z M 388.414062 44.136719 " style=" stroke:none;fill-rule:nonzero;fill:rgb(90.196078%,90.588235%,90.980392%);fill-opacity:1;" />
<path d="M 459.035156 44.136719 L 423.722656 44.136719 C 418.847656 44.136719 414.898438 40.1875 414.898438 35.3125 C 414.898438 30.4375 418.847656 26.484375 423.722656 26.484375 L 459.035156 26.484375 C 463.910156 26.484375 467.863281 30.4375 467.863281 35.3125 C 467.863281 40.1875 463.910156 44.136719 459.035156 44.136719 Z M 459.035156 44.136719 " style=" stroke:none;fill-rule:nonzero;fill:rgb(90.196078%,90.588235%,90.980392%);fill-opacity:1;" />
<path d="M 273.65625 185.378906 L 291.308594 185.378906 L 291.308594 220.691406 L 273.65625 220.691406 Z M 273.65625 185.378906 " style=" stroke:none;fill-rule:nonzero;fill:rgb(12.941176%,25.098039%,60.392157%);fill-opacity:1;" />
<path d="M 308.964844 185.378906 L 326.621094 185.378906 L 326.621094 220.691406 L 308.964844 220.691406 Z M 308.964844 185.378906 " style=" stroke:none;fill-rule:nonzero;fill:rgb(12.941176%,25.098039%,60.392157%);fill-opacity:1;" />
<path d="M 344.277344 185.378906 L 361.929688 185.378906 L 361.929688 220.691406 L 344.277344 220.691406 Z M 344.277344 185.378906 " style=" stroke:none;fill-rule:nonzero;fill:rgb(12.941176%,25.098039%,60.392157%);fill-opacity:1;" />
<path d="M 379.585938 185.378906 L 397.242188 185.378906 L 397.242188 220.691406 L 379.585938 220.691406 Z M 379.585938 185.378906 " style=" stroke:none;fill-rule:nonzero;fill:rgb(12.941176%,25.098039%,60.392157%);fill-opacity:1;" />
<path d="M 414.898438 185.378906 L 432.550781 185.378906 L 432.550781 220.691406 L 414.898438 220.691406 Z M 414.898438 185.378906 " style=" stroke:none;fill-rule:nonzero;fill:rgb(12.941176%,25.098039%,60.392157%);fill-opacity:1;" />
<path d="M 450.207031 185.378906 L 467.863281 185.378906 L 467.863281 220.691406 L 450.207031 220.691406 Z M 450.207031 185.378906 " style=" stroke:none;fill-rule:nonzero;fill:rgb(12.941176%,25.098039%,60.392157%);fill-opacity:1;" />
<path d="M 273.65625 308.964844 L 291.308594 308.964844 L 291.308594 344.277344 L 273.65625 344.277344 Z M 273.65625 308.964844 " style=" stroke:none;fill-rule:nonzero;fill:rgb(12.941176%,25.098039%,60.392157%);fill-opacity:1;" />
<path d="M 308.964844 308.964844 L 326.621094 308.964844 L 326.621094 344.277344 L 308.964844 344.277344 Z M 308.964844 308.964844 " style=" stroke:none;fill-rule:nonzero;fill:rgb(12.941176%,25.098039%,60.392157%);fill-opacity:1;" />
<path d="M 344.277344 308.964844 L 361.929688 308.964844 L 361.929688 344.277344 L 344.277344 344.277344 Z M 344.277344 308.964844 " style=" stroke:none;fill-rule:nonzero;fill:rgb(12.941176%,25.098039%,60.392157%);fill-opacity:1;" />
<path d="M 379.585938 308.964844 L 397.242188 308.964844 L 397.242188 344.277344 L 379.585938 344.277344 Z M 379.585938 308.964844 " style=" stroke:none;fill-rule:nonzero;fill:rgb(12.941176%,25.098039%,60.392157%);fill-opacity:1;" />
<path d="M 414.898438 308.964844 L 432.550781 308.964844 L 432.550781 344.277344 L 414.898438 344.277344 Z M 414.898438 308.964844 " style=" stroke:none;fill-rule:nonzero;fill:rgb(12.941176%,25.098039%,60.392157%);fill-opacity:1;" />
<path d="M 450.207031 308.964844 L 467.863281 308.964844 L 467.863281 344.277344 L 450.207031 344.277344 Z M 450.207031 308.964844 " style=" stroke:none;fill-rule:nonzero;fill:rgb(12.941176%,25.098039%,60.392157%);fill-opacity:1;" />
<path d="M 273.65625 432.550781 L 291.308594 432.550781 L 291.308594 467.863281 L 273.65625 467.863281 Z M 273.65625 432.550781 " style=" stroke:none;fill-rule:nonzero;fill:rgb(12.941176%,25.098039%,60.392157%);fill-opacity:1;" />
<path d="M 308.964844 432.550781 L 326.621094 432.550781 L 326.621094 467.863281 L 308.964844 467.863281 Z M 308.964844 432.550781 " style=" stroke:none;fill-rule:nonzero;fill:rgb(12.941176%,25.098039%,60.392157%);fill-opacity:1;" />
<path d="M 344.277344 432.550781 L 361.929688 432.550781 L 361.929688 467.863281 L 344.277344 467.863281 Z M 344.277344 432.550781 " style=" stroke:none;fill-rule:nonzero;fill:rgb(12.941176%,25.098039%,60.392157%);fill-opacity:1;" />
<path d="M 379.585938 432.550781 L 397.242188 432.550781 L 397.242188 467.863281 L 379.585938 467.863281 Z M 379.585938 432.550781 " style=" stroke:none;fill-rule:nonzero;fill:rgb(12.941176%,25.098039%,60.392157%);fill-opacity:1;" />
<path d="M 414.898438 432.550781 L 432.550781 432.550781 L 432.550781 467.863281 L 414.898438 467.863281 Z M 414.898438 432.550781 " style=" stroke:none;fill-rule:nonzero;fill:rgb(12.941176%,25.098039%,60.392157%);fill-opacity:1;" />
<path d="M 450.207031 432.550781 L 467.863281 432.550781 L 467.863281 467.863281 L 450.207031 467.863281 Z M 450.207031 432.550781 " style=" stroke:none;fill-rule:nonzero;fill:rgb(12.941176%,25.098039%,60.392157%);fill-opacity:1;" />
</g>
</svg>