<svg xmlns="http://www.w3.org/2000/svg" height="511pt" version="1.1" viewBox="-44 1 511 511.99994" width="511pt">
<g id="surface1">
<path d="M 424.222656 423.722656 L 0.5 423.722656 L 0.5 512 L 424.222656 512 Z M 247.671875 476.691406 L 53.464844 476.691406 Z M 247.671875 476.691406 " style=" stroke:none;fill-rule:nonzero;fill:rgb(34.117647%,64.313725%,100%);fill-opacity:1;" />
<path d="M 424.222656 406.070312 L 388.914062 0 L 35.808594 0 L 0.5 406.070312 L 0.5 423.722656 L 424.222656 423.722656 Z M 424.222656 406.070312 " style=" stroke:none;fill-rule:nonzero;fill:rgb(87.843137%,87.843137%,88.627451%);fill-opacity:1;" />
<path d="M 256.5 485.515625 L 44.636719 485.515625 L 44.636719 450.207031 L 62.292969 450.207031 L 62.292969 467.863281 L 238.84375 467.863281 L 238.84375 450.207031 L 256.5 450.207031 Z M 256.5 485.515625 " style=" stroke:none;fill-rule:nonzero;fill:rgb(12.941176%,25.098039%,60.392157%);fill-opacity:1;" />
<path d="M 353.601562 459.035156 L 388.914062 459.035156 L 388.914062 476.691406 L 353.601562 476.691406 Z M 353.601562 459.035156 " style=" stroke:none;fill-rule:nonzero;fill:rgb(12.941176%,25.098039%,60.392157%);fill-opacity:1;" />
<path d="M 309.464844 459.035156 L 344.773438 459.035156 L 344.773438 476.691406 L 309.464844 476.691406 Z M 309.464844 459.035156 " style=" stroke:none;fill-rule:nonzero;fill:rgb(12.941176%,25.098039%,60.392157%);fill-opacity:1;" />
</g>
</svg>