<svg xmlns="http://www.w3.org/2000/svg" height="464pt" version="1.1" viewBox="-76 0 464 464.07997" width="464pt">
<g id="surface1">
<path d="M 0.0390625 224 L 256.039062 224 L 200.039062 416 L 48.039062 416 Z M 0.0390625 224 " style=" stroke:none;fill-rule:nonzero;fill:rgb(50.196078%,50.980392%,52.156863%);fill-opacity:1;" />
<path d="M 224.039062 0 L 32.039062 0 L 32.039062 144 L 224.039062 144 Z M 96.039062 80 L 64.039062 80 L 64.039062 48 L 96.039062 48 Z M 192.039062 80 L 160.039062 80 L 160.039062 48 L 192.039062 48 Z M 192.039062 80 " style=" stroke:none;fill-rule:nonzero;fill:rgb(94.509804%,94.901961%,94.901961%);fill-opacity:1;" />
<path d="M 256.039062 144 L 0.0390625 144 L 0.0390625 224 L 256.039062 224 Z M 32.039062 200 Z M 64.039062 200 Z M 96.039062 200 Z M 128.039062 200 Z M 160.039062 200 Z M 192.039062 200 Z M 224.039062 200 Z M 224.039062 200 " style=" stroke:none;fill-rule:nonzero;fill:rgb(73.72549%,74.509804%,75.294118%);fill-opacity:1;" />
<path d="M 64.039062 48 L 96.039062 48 L 96.039062 80 L 64.039062 80 Z M 64.039062 48 " style=" stroke:none;fill-rule:nonzero;fill:rgb(50.196078%,50.980392%,52.156863%);fill-opacity:1;" />
<path d="M 160.039062 48 L 192.039062 48 L 192.039062 80 L 160.039062 80 Z M 160.039062 48 " style=" stroke:none;fill-rule:nonzero;fill:rgb(50.196078%,50.980392%,52.156863%);fill-opacity:1;" />
<path d="M 280.039062 320.078125 C 255.824219 301.84375 223.375 298.875 196.253906 312.417969 C 169.132812 325.964844 152.007812 353.683594 152.039062 384 C 152.003906 421.628906 178.195312 454.199219 214.960938 462.234375 C 251.722656 470.269531 289.113281 451.597656 304.78125 417.382812 C 320.445312 383.164062 310.144531 342.660156 280.039062 320.078125 Z M 216.039062 416 L 190.097656 390.054688 L 216.039062 416 L 275.921875 356.121094 Z M 216.039062 416 " style=" stroke:none;fill-rule:nonzero;fill:rgb(36.862745%,67.45098%,14.117647%);fill-opacity:1;" />
<path d="M 152.039062 464 L 136.039062 464 L 136.039062 416 L 120.039062 416 L 120.039062 464 L 104.039062 464 L 104.039062 400 L 152.039062 400 Z M 152.039062 464 " style=" stroke:none;fill-rule:nonzero;fill:rgb(50.196078%,50.980392%,52.156863%);fill-opacity:1;" />
<path d="M 24.039062 168 L 40.039062 168 L 40.039062 200 L 24.039062 200 Z M 24.039062 168 " style=" stroke:none;fill-rule:nonzero;fill:rgb(94.509804%,94.901961%,94.901961%);fill-opacity:1;" />
<path d="M 56.039062 168 L 72.039062 168 L 72.039062 200 L 56.039062 200 Z M 56.039062 168 " style=" stroke:none;fill-rule:nonzero;fill:rgb(94.509804%,94.901961%,94.901961%);fill-opacity:1;" />
<path d="M 88.039062 168 L 104.039062 168 L 104.039062 200 L 88.039062 200 Z M 88.039062 168 " style=" stroke:none;fill-rule:nonzero;fill:rgb(94.509804%,94.901961%,94.901961%);fill-opacity:1;" />
<path d="M 120.039062 168 L 136.039062 168 L 136.039062 200 L 120.039062 200 Z M 120.039062 168 " style=" stroke:none;fill-rule:nonzero;fill:rgb(94.509804%,94.901961%,94.901961%);fill-opacity:1;" />
<path d="M 152.039062 168 L 168.039062 168 L 168.039062 200 L 152.039062 200 Z M 152.039062 168 " style=" stroke:none;fill-rule:nonzero;fill:rgb(94.509804%,94.901961%,94.901961%);fill-opacity:1;" />
<path d="M 184.039062 168 L 200.039062 168 L 200.039062 200 L 184.039062 200 Z M 184.039062 168 " style=" stroke:none;fill-rule:nonzero;fill:rgb(94.509804%,94.901961%,94.901961%);fill-opacity:1;" />
<path d="M 216.039062 168 L 232.039062 168 L 232.039062 200 L 216.039062 200 Z M 216.039062 168 " style=" stroke:none;fill-rule:nonzero;fill:rgb(94.509804%,94.901961%,94.901961%);fill-opacity:1;" />
<path d="M 221.695312 421.65625 C 218.570312 424.777344 213.507812 424.777344 210.382812 421.65625 L 184.441406 395.71875 C 181.410156 392.582031 181.453125 387.589844 184.539062 384.503906 C 187.625 381.417969 192.613281 381.375 195.753906 384.40625 L 216.039062 404.6875 L 270.265625 350.464844 C 273.402344 347.433594 278.394531 347.476562 281.480469 350.5625 C 284.5625 353.648438 284.609375 358.636719 281.574219 361.777344 " style=" stroke:none;fill-rule:nonzero;fill:rgb(94.509804%,94.901961%,94.901961%);fill-opacity:1;" />
</g>
</svg>