<svg xmlns="http://www.w3.org/2000/svg" height="464pt" version="1.1" viewBox="-76 0 464 464.07997" width="464pt">
<g id="surface1">
<path d="M 0.0390625 224 L 256.039062 224 L 200.039062 416 L 48.039062 416 Z M 0.0390625 224 " style=" stroke:none;fill-rule:nonzero;fill:rgb(50.196078%,50.980392%,52.156863%);fill-opacity:1;" />
<path d="M 224.039062 0 L 32.039062 0 L 32.039062 144 L 224.039062 144 Z M 96.039062 80 L 64.039062 80 L 64.039062 48 L 96.039062 48 Z M 192.039062 80 L 160.039062 80 L 160.039062 48 L 192.039062 48 Z M 192.039062 80 " style=" stroke:none;fill-rule:nonzero;fill:rgb(94.509804%,94.901961%,94.901961%);fill-opacity:1;" />
<path d="M 256.039062 144 L 0.0390625 144 L 0.0390625 224 L 256.039062 224 Z M 32.039062 200 Z M 64.039062 200 Z M 96.039062 200 Z M 128.039062 200 Z M 160.039062 200 Z M 192.039062 200 Z M 224.039062 200 Z M 224.039062 200 " style=" stroke:none;fill-rule:nonzero;fill:rgb(73.72549%,74.509804%,75.294118%);fill-opacity:1;" />
<path d="M 64.039062 48 L 96.039062 48 L 96.039062 80 L 64.039062 80 Z M 64.039062 48 " style=" stroke:none;fill-rule:nonzero;fill:rgb(50.196078%,50.980392%,52.156863%);fill-opacity:1;" />
<path d="M 160.039062 48 L 192.039062 48 L 192.039062 80 L 160.039062 80 Z M 160.039062 48 " style=" stroke:none;fill-rule:nonzero;fill:rgb(50.196078%,50.980392%,52.156863%);fill-opacity:1;" />
<path d="M 280.039062 320.078125 C 255.824219 301.84375 223.375 298.875 196.253906 312.417969 C 169.132812 325.964844 152.007812 353.683594 152.039062 384 C 152.003906 421.628906 178.195312 454.199219 214.960938 462.234375 C 251.722656 470.269531 289.113281 451.597656 304.78125 417.382812 C 320.445312 383.164062 310.144531 342.660156 280.039062 320.078125 Z M 263.640625 415.601562 L 232.039062 384 L 200.441406 415.601562 L 232.039062 384 L 200.441406 352.398438 L 232.039062 384 L 263.640625 352.398438 L 232.039062 384 Z M 263.640625 415.601562 " style=" stroke:none;fill-rule:nonzero;fill:rgb(100%,31.372549%,13.72549%);fill-opacity:1;" />
<path d="M 152.039062 464 L 136.039062 464 L 136.039062 416 L 120.039062 416 L 120.039062 464 L 104.039062 464 L 104.039062 400 L 152.039062 400 Z M 152.039062 464 " style=" stroke:none;fill-rule:nonzero;fill:rgb(50.196078%,50.980392%,52.156863%);fill-opacity:1;" />
<path d="M 24.039062 168 L 40.039062 168 L 40.039062 200 L 24.039062 200 Z M 24.039062 168 " style=" stroke:none;fill-rule:nonzero;fill:rgb(94.509804%,94.901961%,94.901961%);fill-opacity:1;" />
<path d="M 56.039062 168 L 72.039062 168 L 72.039062 200 L 56.039062 200 Z M 56.039062 168 " style=" stroke:none;fill-rule:nonzero;fill:rgb(94.509804%,94.901961%,94.901961%);fill-opacity:1;" />
<path d="M 88.039062 168 L 104.039062 168 L 104.039062 200 L 88.039062 200 Z M 88.039062 168 " style=" stroke:none;fill-rule:nonzero;fill:rgb(94.509804%,94.901961%,94.901961%);fill-opacity:1;" />
<path d="M 120.039062 168 L 136.039062 168 L 136.039062 200 L 120.039062 200 Z M 120.039062 168 " style=" stroke:none;fill-rule:nonzero;fill:rgb(94.509804%,94.901961%,94.901961%);fill-opacity:1;" />
<path d="M 152.039062 168 L 168.039062 168 L 168.039062 200 L 152.039062 200 Z M 152.039062 168 " style=" stroke:none;fill-rule:nonzero;fill:rgb(94.509804%,94.901961%,94.901961%);fill-opacity:1;" />
<path d="M 184.039062 168 L 200.039062 168 L 200.039062 200 L 184.039062 200 Z M 184.039062 168 " style=" stroke:none;fill-rule:nonzero;fill:rgb(94.509804%,94.901961%,94.901961%);fill-opacity:1;" />
<path d="M 216.039062 168 L 232.039062 168 L 232.039062 200 L 216.039062 200 Z M 216.039062 168 " style=" stroke:none;fill-rule:nonzero;fill:rgb(94.509804%,94.901961%,94.901961%);fill-opacity:1;" />
<path d="M 263.640625 423.601562 C 261.515625 423.605469 259.480469 422.761719 257.984375 421.257812 L 194.785156 358.054688 C 192.703125 356.046875 191.871094 353.074219 192.601562 350.277344 C 193.335938 347.480469 195.519531 345.292969 198.316406 344.5625 C 201.113281 343.832031 204.085938 344.664062 206.097656 346.742188 L 269.296875 409.945312 C 271.582031 412.230469 272.265625 415.671875 271.03125 418.660156 C 269.792969 421.648438 266.875 423.597656 263.640625 423.601562 Z M 263.640625 423.601562 " style=" stroke:none;fill-rule:nonzero;fill:rgb(94.509804%,94.901961%,94.901961%);fill-opacity:1;" />
<path d="M 200.441406 423.601562 C 197.203125 423.597656 194.289062 421.648438 193.050781 418.660156 C 191.8125 415.671875 192.496094 412.230469 194.785156 409.945312 L 257.984375 346.742188 C 259.992188 344.664062 262.96875 343.832031 265.765625 344.5625 C 268.5625 345.292969 270.746094 347.480469 271.476562 350.277344 C 272.210938 353.074219 271.375 356.046875 269.296875 358.054688 L 206.097656 421.257812 C 204.597656 422.761719 202.5625 423.605469 200.441406 423.601562 Z M 200.441406 423.601562 " style=" stroke:none;fill-rule:nonzero;fill:rgb(94.509804%,94.901961%,94.901961%);fill-opacity:1;" />
</g>
</svg>