<svg xmlns="http://www.w3.org/2000/svg" height="456pt" version="1.1" viewBox="4 -36 456 456" width="456pt">
<g id="surface1">
<path d="M 128 352 L 224 352 L 224 344 C 224 335.164062 231.164062 328 240 328 C 248.835938 328 256 335.164062 256 344 L 256 352 L 416 352 L 416 304 L 128 304 Z M 128 352 " style=" stroke:none;fill-rule:nonzero;fill:rgb(100%,59.607843%,6.666667%);fill-opacity:1;" />
<path d="M 72 0 C 72 -8.835938 64.835938 -16 56 -16 L -8 -16 L -8 16 L 40 16 L 40 368 L 72 368 Z M 72 0 " style=" stroke:none;fill-rule:nonzero;fill:rgb(47.058824%,46.27451%,50.196078%);fill-opacity:1;" />
<path d="M 8 104 L 40 104 L 40 216 L 8 216 Z M 8 104 " style=" stroke:none;fill-rule:nonzero;fill:rgb(87.843137%,87.843137%,88.627451%);fill-opacity:1;" />
<path d="M 72 304 L 456 304 L 456 48 L 72 48 Z M 136 248 Z M 160 248 Z M 228.863281 128 L 228.9375 128 C 237.367188 113.429688 249.476562 101.324219 264.046875 92.894531 L 264 92.863281 L 264.046875 92.921875 C 293.699219 75.683594 330.324219 75.683594 359.976562 92.921875 L 359.976562 92.847656 L 359.976562 92.921875 C 374.546875 101.351562 386.648438 113.460938 395.078125 128.03125 L 395.136719 128 L 395.078125 128.046875 C 412.316406 157.699219 412.316406 194.324219 395.078125 223.976562 L 395.152344 223.976562 L 395.078125 223.976562 C 386.648438 238.546875 374.539062 250.648438 359.96875 259.078125 L 360.015625 259.136719 L 359.96875 259.078125 C 330.316406 276.316406 293.691406 276.316406 264.039062 259.078125 L 264.039062 259.152344 L 264.039062 259.078125 C 249.472656 250.644531 237.367188 238.539062 228.9375 223.96875 L 228.863281 224 L 228.921875 223.953125 C 211.683594 194.300781 211.683594 157.675781 228.921875 128.023438 Z M 120 104 L 168 104 L 168 152 L 120 152 Z M 176 184 Z M 176 216 Z M 128 248 Z M 128 248 " style=" stroke:none;fill-rule:nonzero;fill:rgb(86.27451%,95.686275%,79.215686%);fill-opacity:1;" />
<path d="M 353.289062 180.414062 L 336 176 C 336 189.253906 325.253906 200 312 200 L 307.585938 217.289062 C 305.222656 226.507812 304.949219 236.140625 306.785156 245.480469 L 312 272 C 328.84375 272 345.386719 267.542969 359.953125 259.078125 L 342.222656 238.777344 C 335.96875 231.609375 331.386719 223.136719 328.816406 213.976562 L 324 196.800781 L 328.800781 213.984375 C 331.371094 223.144531 335.949219 231.617188 342.207031 238.785156 L 359.9375 259.089844 C 374.511719 250.664062 386.625 238.566406 395.0625 224 L 369.601562 215.257812 C 360.601562 212.171875 352.402344 207.121094 345.601562 200.472656 L 332.800781 188 L 345.558594 200.472656 C 352.363281 207.121094 360.5625 212.171875 369.558594 215.257812 L 395.0625 224 C 403.542969 209.425781 408.007812 192.863281 408 176 L 381.480469 181.207031 C 372.140625 183.046875 362.507812 182.777344 353.289062 180.414062 Z M 353.289062 180.414062 " style=" stroke:none;fill-rule:nonzero;fill:rgb(14.117647%,53.333333%,100%);fill-opacity:1;" />
<path d="M 316.414062 134.710938 L 312 152 C 325.253906 152 336 162.746094 336 176 L 353.289062 180.414062 C 362.507812 182.777344 372.140625 183.050781 381.480469 181.214844 L 408 176 C 408 159.15625 403.542969 142.613281 395.078125 128.046875 L 374.777344 145.777344 C 367.609375 152.03125 359.136719 156.613281 349.976562 159.183594 L 332.792969 163.984375 L 349.976562 159.183594 C 359.136719 156.613281 367.609375 152.03125 374.777344 145.777344 L 395.078125 128.046875 C 386.65625 113.480469 374.5625 101.371094 360 92.9375 L 351.257812 118.398438 C 348.171875 127.398438 343.121094 135.597656 336.472656 142.398438 L 324 155.199219 L 336.472656 142.398438 C 343.121094 135.597656 348.171875 127.398438 351.257812 118.398438 L 360 92.9375 C 345.425781 84.457031 328.863281 79.992188 312 80 L 317.207031 106.519531 C 319.046875 115.859375 318.777344 125.492188 316.414062 134.710938 Z M 316.414062 134.710938 " style=" stroke:none;fill-rule:nonzero;fill:rgb(14.117647%,53.333333%,100%);fill-opacity:1;" />
<path d="M 307.585938 217.289062 L 312 200 C 298.746094 200 288 189.253906 288 176 L 270.710938 171.585938 C 261.492188 169.222656 251.859375 168.949219 242.519531 170.785156 L 216 176 C 216 192.84375 220.457031 209.386719 228.921875 223.953125 L 249.222656 206.222656 C 256.390625 199.96875 264.863281 195.386719 274.023438 192.816406 L 291.207031 188.015625 L 274.023438 192.816406 C 264.863281 195.386719 256.390625 199.96875 249.222656 206.222656 L 228.921875 223.953125 C 237.34375 238.519531 249.441406 250.625 264 259.0625 L 272.71875 233.566406 C 275.804688 224.570312 280.855469 216.371094 287.503906 209.566406 L 300 196.800781 L 287.527344 209.558594 C 280.878906 216.363281 275.828125 224.5625 272.742188 233.558594 L 264 259.0625 C 278.574219 267.542969 295.136719 272.007812 312 272 L 306.792969 245.480469 C 304.953125 236.140625 305.222656 226.507812 307.585938 217.289062 Z M 307.585938 217.289062 " style=" stroke:none;fill-rule:nonzero;fill:rgb(14.117647%,53.333333%,100%);fill-opacity:1;" />
<path d="M 242.519531 170.792969 C 251.859375 168.957031 261.492188 169.230469 270.710938 171.59375 L 288 176 C 288 162.746094 298.746094 152 312 152 L 316.414062 134.710938 C 318.777344 125.492188 319.050781 115.859375 317.214844 106.519531 L 312 80 C 295.15625 80 278.613281 84.457031 264.046875 92.921875 L 281.777344 113.222656 C 288.03125 120.390625 292.613281 128.863281 295.183594 138.023438 L 299.984375 155.207031 L 295.183594 138.023438 C 292.613281 128.863281 288.03125 120.390625 281.777344 113.222656 L 264.046875 92.921875 C 249.480469 101.34375 237.371094 113.4375 228.9375 128 L 254.433594 136.71875 C 263.429688 139.804688 271.628906 144.855469 278.433594 151.503906 L 291.199219 164 L 278.441406 151.527344 C 271.636719 144.878906 263.4375 139.828125 254.441406 136.742188 L 228.9375 128 C 220.457031 142.574219 215.992188 159.136719 216 176 Z M 242.519531 170.792969 " style=" stroke:none;fill-rule:nonzero;fill:rgb(14.117647%,53.333333%,100%);fill-opacity:1;" />
<path d="M 336 176 C 336 189.253906 325.253906 200 312 200 C 298.746094 200 288 189.253906 288 176 C 288 162.746094 298.746094 152 312 152 C 325.253906 152 336 162.746094 336 176 Z M 336 176 " style=" stroke:none;fill-rule:nonzero;fill:rgb(87.843137%,87.843137%,88.627451%);fill-opacity:1;" />
<path d="M 120 104 L 168 104 L 168 152 L 120 152 Z M 120 104 " style=" stroke:none;fill-rule:nonzero;fill:rgb(100%,59.607843%,6.666667%);fill-opacity:1;" />
<path d="M 40 88 L 8 88 C 3.582031 88 0 84.417969 0 80 C 0 75.582031 3.582031 72 8 72 L 40 72 C 44.417969 72 48 75.582031 48 80 C 48 84.417969 44.417969 88 40 88 Z M 40 88 " style=" stroke:none;fill-rule:nonzero;fill:rgb(42.745098%,43.137255%,44.313725%);fill-opacity:1;" />
<path d="M 40 248 L 8 248 C 3.582031 248 0 244.417969 0 240 C 0 235.582031 3.582031 232 8 232 L 40 232 C 44.417969 232 48 235.582031 48 240 C 48 244.417969 44.417969 248 40 248 Z M 40 248 " style=" stroke:none;fill-rule:nonzero;fill:rgb(42.745098%,43.137255%,44.313725%);fill-opacity:1;" />
<path d="M 312 280 C 254.5625 280 208 233.4375 208 176 C 208 118.5625 254.5625 72 312 72 C 369.4375 72 416 118.5625 416 176 C 415.933594 233.410156 369.410156 279.933594 312 280 Z M 312 88 C 263.398438 88 224 127.398438 224 176 C 224 224.601562 263.398438 264 312 264 C 360.601562 264 400 224.601562 400 176 C 399.941406 127.421875 360.578125 88.058594 312 88 Z M 312 88 " style=" stroke:none;fill-rule:nonzero;fill:rgb(100%,85.490196%,66.666667%);fill-opacity:1;" />
<path d="M 376 320 L 392 320 L 392 352 L 376 352 Z M 376 320 " style=" stroke:none;fill-rule:nonzero;fill:rgb(100%,87.058824%,9.019608%);fill-opacity:1;" />
<path d="M 344 320 L 360 320 L 360 352 L 344 352 Z M 344 320 " style=" stroke:none;fill-rule:nonzero;fill:rgb(100%,87.058824%,9.019608%);fill-opacity:1;" />
<path d="M 312 320 L 328 320 L 328 352 L 312 352 Z M 312 320 " style=" stroke:none;fill-rule:nonzero;fill:rgb(100%,87.058824%,9.019608%);fill-opacity:1;" />
<path d="M 280 320 L 296 320 L 296 352 L 280 352 Z M 280 320 " style=" stroke:none;fill-rule:nonzero;fill:rgb(100%,87.058824%,9.019608%);fill-opacity:1;" />
<path d="M 184 320 L 200 320 L 200 352 L 184 352 Z M 184 320 " style=" stroke:none;fill-rule:nonzero;fill:rgb(100%,87.058824%,9.019608%);fill-opacity:1;" />
<path d="M 152 320 L 168 320 L 168 352 L 152 352 Z M 152 320 " style=" stroke:none;fill-rule:nonzero;fill:rgb(100%,87.058824%,9.019608%);fill-opacity:1;" />
<path d="M 312 208 C 294.328125 208 280 193.671875 280 176 C 280 158.328125 294.328125 144 312 144 C 329.671875 144 344 158.328125 344 176 C 344 193.671875 329.671875 208 312 208 Z M 312 160 C 303.164062 160 296 167.164062 296 176 C 296 184.835938 303.164062 192 312 192 C 320.835938 192 328 184.835938 328 176 C 328 167.164062 320.835938 160 312 160 Z M 312 160 " style=" stroke:none;fill-rule:nonzero;fill:rgb(100%,85.490196%,66.666667%);fill-opacity:1;" />
<path d="M 312 160 C 311.332031 160 310.664062 159.917969 310.015625 159.753906 C 305.734375 158.65625 303.152344 154.296875 304.246094 150.015625 L 308.664062 132.726562 C 310.722656 124.660156 310.957031 116.234375 309.359375 108.0625 L 304.152344 81.542969 C 303.394531 77.253906 306.210938 73.148438 310.484375 72.304688 C 314.761719 71.464844 318.921875 74.199219 319.847656 78.457031 L 325.0625 104.976562 C 327.113281 115.484375 326.808594 126.320312 324.167969 136.695312 L 319.753906 153.984375 C 318.84375 157.523438 315.65625 160 312 160 Z M 312 160 " style=" stroke:none;fill-rule:nonzero;fill:rgb(100%,85.490196%,66.666667%);fill-opacity:1;" />
<path d="M 300 163.199219 C 296.414062 163.199219 293.265625 160.8125 292.296875 157.359375 L 287.496094 140.175781 C 285.234375 132.164062 281.226562 124.75 275.761719 118.472656 L 257.992188 98.113281 C 256.09375 95.960938 255.492188 92.960938 256.414062 90.246094 C 257.335938 87.527344 259.640625 85.515625 262.457031 84.964844 C 265.269531 84.414062 268.164062 85.414062 270.039062 87.585938 L 287.800781 108 C 294.828125 116.074219 299.984375 125.609375 302.886719 135.910156 L 307.6875 153.097656 C 308.34375 155.496094 307.84375 158.0625 306.335938 160.042969 C 304.828125 162.023438 302.488281 163.191406 300 163.199219 Z M 300 163.199219 " style=" stroke:none;fill-rule:nonzero;fill:rgb(100%,85.490196%,66.666667%);fill-opacity:1;" />
<path d="M 291.199219 172 C 289.105469 172 287.097656 171.183594 285.601562 169.71875 L 272.800781 157.246094 C 266.835938 151.4375 259.660156 147.023438 251.785156 144.320312 L 226.183594 135.566406 C 222.050781 134.105469 219.863281 129.585938 221.285156 125.433594 C 222.707031 121.285156 227.203125 119.054688 231.367188 120.433594 L 256.96875 129.175781 C 267.09375 132.652344 276.320312 138.332031 283.984375 145.808594 L 296.785156 158.28125 C 299.109375 160.554688 299.828125 164.011719 298.597656 167.023438 C 297.367188 170.035156 294.4375 172.003906 291.183594 172 Z M 291.199219 172 " style=" stroke:none;fill-rule:nonzero;fill:rgb(100%,85.490196%,66.666667%);fill-opacity:1;" />
<path d="M 288 184 C 287.332031 184 286.664062 183.917969 286.015625 183.753906 L 268.726562 179.335938 C 260.660156 177.273438 252.234375 177.035156 244.0625 178.640625 L 217.542969 183.847656 C 213.253906 184.605469 209.148438 181.789062 208.304688 177.515625 C 207.464844 173.238281 210.199219 169.078125 214.457031 168.152344 L 240.976562 162.9375 C 251.484375 160.882812 262.320312 161.1875 272.695312 163.832031 L 289.984375 168.246094 C 293.894531 169.246094 296.449219 172.996094 295.945312 177 C 295.441406 181.003906 292.035156 184.003906 288 184 Z M 288 184 " style=" stroke:none;fill-rule:nonzero;fill:rgb(100%,85.490196%,66.666667%);fill-opacity:1;" />
<path d="M 228.863281 232 C 225.53125 232 222.546875 229.933594 221.375 226.8125 C 220.203125 223.691406 221.089844 220.167969 223.601562 217.976562 L 243.960938 200.199219 C 252.035156 193.171875 261.566406 188.015625 271.871094 185.113281 L 289.054688 180.3125 C 293.3125 179.117188 297.726562 181.601562 298.921875 185.855469 C 300.113281 190.109375 297.628906 194.527344 293.375 195.71875 L 276.191406 200.519531 C 268.179688 202.78125 260.765625 206.789062 254.488281 212.257812 L 234.128906 230.023438 C 232.671875 231.296875 230.800781 232 228.863281 232 Z M 228.863281 232 " style=" stroke:none;fill-rule:nonzero;fill:rgb(100%,85.490196%,66.666667%);fill-opacity:1;" />
<path d="M 264 267.144531 C 261.414062 267.144531 258.988281 265.894531 257.488281 263.792969 C 255.984375 261.6875 255.59375 258.988281 256.433594 256.542969 L 265.175781 230.945312 C 268.652344 220.820312 274.332031 211.59375 281.808594 203.929688 L 294.28125 191.128906 C 297.371094 187.96875 302.441406 187.914062 305.601562 191.007812 C 308.757812 194.101562 308.8125 199.167969 305.71875 202.328125 L 293.246094 215.128906 C 287.4375 221.089844 283.023438 228.269531 280.320312 236.144531 L 271.566406 261.742188 C 270.457031 264.976562 267.417969 267.144531 264 267.144531 Z M 264 267.144531 " style=" stroke:none;fill-rule:nonzero;fill:rgb(100%,85.490196%,66.666667%);fill-opacity:1;" />
<path d="M 312 280 C 308.179688 279.996094 304.898438 277.292969 304.160156 273.542969 L 298.945312 247.023438 C 296.894531 236.515625 297.199219 225.679688 299.839844 215.304688 L 304.257812 198.015625 C 305.359375 193.734375 309.726562 191.160156 314.007812 192.265625 C 318.289062 193.367188 320.863281 197.734375 319.761719 202.015625 L 315.34375 219.304688 C 313.285156 227.371094 313.050781 235.796875 314.648438 243.96875 L 319.855469 270.488281 C 320.707031 274.820312 317.886719 279.027344 313.550781 279.878906 C 313.039062 279.972656 312.519531 280.011719 312 280 Z M 312 280 " style=" stroke:none;fill-rule:nonzero;fill:rgb(100%,85.490196%,66.666667%);fill-opacity:1;" />
<path d="M 360 267.136719 C 357.691406 267.136719 355.496094 266.136719 353.976562 264.398438 L 336.199219 244.039062 C 329.171875 235.964844 324.015625 226.433594 321.113281 216.128906 L 316.3125 198.945312 C 315.117188 194.6875 317.601562 190.273438 321.855469 189.078125 C 326.109375 187.886719 330.527344 190.371094 331.71875 194.625 L 336.519531 211.808594 C 338.78125 219.820312 342.789062 227.234375 348.257812 233.511719 L 366.023438 253.871094 C 368.089844 256.234375 368.582031 259.585938 367.285156 262.445312 C 365.984375 265.300781 363.136719 267.136719 360 267.136719 Z M 360 267.136719 " style=" stroke:none;fill-rule:nonzero;fill:rgb(100%,85.490196%,66.666667%);fill-opacity:1;" />
<path d="M 395.136719 232 C 394.253906 232 393.378906 231.855469 392.542969 231.566406 L 366.945312 222.824219 C 356.84375 219.335938 347.644531 213.65625 340 206.191406 L 327.199219 193.71875 C 324.039062 190.628906 323.988281 185.558594 327.078125 182.398438 C 330.171875 179.242188 335.242188 179.1875 338.398438 182.28125 L 351.199219 194.753906 C 357.164062 200.5625 364.339844 204.976562 372.214844 207.679688 L 397.816406 216.433594 C 401.53125 217.703125 403.773438 221.488281 403.109375 225.359375 C 402.441406 229.230469 399.0625 232.042969 395.136719 232 Z M 395.136719 232 " style=" stroke:none;fill-rule:nonzero;fill:rgb(100%,85.490196%,66.666667%);fill-opacity:1;" />
<path d="M 369.160156 190.398438 C 363.136719 190.402344 357.140625 189.652344 351.304688 188.167969 L 334.015625 183.753906 C 329.734375 182.648438 327.160156 178.28125 328.265625 174 C 329.367188 169.71875 333.734375 167.144531 338.015625 168.246094 L 355.304688 172.664062 C 363.371094 174.71875 371.796875 174.953125 379.96875 173.359375 L 406.488281 168.152344 C 409.316406 167.535156 412.257812 168.5 414.179688 170.667969 C 416.097656 172.835938 416.695312 175.871094 415.738281 178.605469 C 414.785156 181.339844 412.429688 183.34375 409.574219 183.847656 L 383.054688 189.0625 C 378.476562 189.960938 373.824219 190.40625 369.160156 190.398438 Z M 369.160156 190.398438 " style=" stroke:none;fill-rule:nonzero;fill:rgb(100%,85.490196%,66.666667%);fill-opacity:1;" />
<path d="M 332.800781 172 C 328.800781 172.003906 325.414062 169.050781 324.871094 165.089844 C 324.324219 161.128906 326.789062 157.375 330.640625 156.296875 L 347.824219 151.496094 C 355.835938 149.234375 363.25 145.226562 369.527344 139.761719 L 389.886719 121.992188 C 392.039062 120.09375 395.039062 119.492188 397.753906 120.414062 C 400.472656 121.335938 402.484375 123.640625 403.035156 126.457031 C 403.585938 129.269531 402.585938 132.164062 400.414062 134.039062 L 380.054688 151.816406 C 371.980469 158.847656 362.449219 164 352.144531 166.902344 L 334.960938 171.703125 C 334.257812 171.898438 333.53125 172 332.800781 172 Z M 332.800781 172 " style=" stroke:none;fill-rule:nonzero;fill:rgb(100%,85.490196%,66.666667%);fill-opacity:1;" />
<path d="M 324 163.199219 C 320.777344 163.203125 317.867188 161.273438 316.617188 158.300781 C 315.371094 155.332031 316.023438 151.902344 318.28125 149.601562 L 330.753906 136.839844 C 336.5625 130.875 340.976562 123.699219 343.679688 115.824219 L 352.433594 90.222656 C 353.894531 86.089844 358.414062 83.90625 362.566406 85.328125 C 366.714844 86.746094 368.945312 91.246094 367.566406 95.40625 L 358.824219 121.007812 C 355.347656 131.132812 349.667969 140.359375 342.191406 148.023438 L 329.71875 160.824219 C 328.210938 162.351562 326.148438 163.207031 324 163.199219 Z M 324 163.199219 " style=" stroke:none;fill-rule:nonzero;fill:rgb(100%,85.490196%,66.666667%);fill-opacity:1;" />
<path d="M 112 176 L 176 176 L 176 192 L 112 192 Z M 112 176 " style=" stroke:none;fill-rule:nonzero;fill:rgb(100%,87.058824%,9.019608%);fill-opacity:1;" />
<path d="M 112 208 L 176 208 L 176 224 L 112 224 Z M 112 208 " style=" stroke:none;fill-rule:nonzero;fill:rgb(100%,87.058824%,9.019608%);fill-opacity:1;" />
<path d="M 112 240 L 128 240 L 128 256 L 112 256 Z M 112 240 " style=" stroke:none;fill-rule:nonzero;fill:rgb(100%,87.058824%,9.019608%);fill-opacity:1;" />
<path d="M 136 240 L 152 240 L 152 256 L 136 256 Z M 136 240 " style=" stroke:none;fill-rule:nonzero;fill:rgb(100%,87.058824%,9.019608%);fill-opacity:1;" />
<path d="M 160 240 L 176 240 L 176 256 L 160 256 Z M 160 240 " style=" stroke:none;fill-rule:nonzero;fill:rgb(100%,87.058824%,9.019608%);fill-opacity:1;" />
</g>
</svg>