<svg xmlns="http://www.w3.org/2000/svg" height="512pt" version="1.1" viewBox="0 0 512 512.00031" width="512pt">
<g id="surface1">
<path d="M 255.984375 476.691406 C 197.078125 476.769531 140.25 454.945312 96.53125 415.46875 L 0 512 L 511.96875 512 L 415.4375 415.46875 C 371.71875 454.945312 314.890625 476.769531 255.984375 476.691406 Z M 255.984375 476.691406 " style=" stroke:none;fill-rule:nonzero;fill:rgb(14.117647%,53.333333%,100%);fill-opacity:1;" />
<path d="M 415.4375 415.46875 C 513.265625 327.40625 521.179688 176.710938 433.117188 78.878906 C 345.054688 -18.949219 194.359375 -26.863281 96.53125 61.199219 C -1.296875 149.261719 -9.214844 299.957031 78.851562 397.785156 C 84.429688 403.984375 90.332031 409.886719 96.53125 415.46875 C 187.164062 497.097656 324.808594 497.097656 415.4375 415.46875 Z M 432.527344 229.535156 C 437.402344 229.535156 441.351562 233.488281 441.351562 238.359375 C 441.351562 243.234375 437.398438 247.1875 432.527344 247.1875 C 427.648438 247.1875 423.699219 243.234375 423.699219 238.359375 C 423.699219 233.488281 427.648438 229.535156 432.527344 229.535156 Z M 79.445312 247.1875 C 74.566406 247.1875 70.617188 243.234375 70.617188 238.363281 C 70.617188 233.488281 74.570312 229.535156 79.445312 229.535156 C 84.320312 229.535156 88.269531 233.488281 88.269531 238.363281 C 88.269531 243.234375 84.316406 247.1875 79.445312 247.1875 Z M 294.824219 383.308594 L 303.960938 417.410156 Z M 331.015625 368.304688 L 348.667969 398.890625 Z M 362.09375 344.472656 L 387.058594 369.433594 Z M 255.984375 52.992188 C 260.859375 52.992188 264.8125 56.945312 264.8125 61.820312 C 264.8125 66.695312 260.859375 70.644531 255.984375 70.644531 C 251.109375 70.644531 247.15625 66.695312 247.15625 61.820312 C 247.15625 56.945312 251.109375 52.992188 255.984375 52.992188 Z M 255.984375 123.609375 C 319.359375 123.609375 370.734375 174.984375 370.734375 238.359375 C 370.734375 301.734375 319.359375 353.113281 255.984375 353.113281 C 192.609375 353.113281 141.234375 301.738281 141.234375 238.359375 C 141.304688 175.015625 192.640625 123.683594 255.984375 123.609375 Z M 124.910156 369.433594 L 149.875 344.472656 Z M 163.300781 398.898438 L 180.953125 368.3125 Z M 208.011719 417.433594 L 217.144531 383.308594 Z M 208.011719 417.433594 " style=" stroke:none;fill-rule:nonzero;fill:rgb(67.45098%,67.058824%,69.411765%);fill-opacity:1;" />
<path d="M 255.984375 353.113281 C 319.359375 353.113281 370.734375 301.738281 370.734375 238.363281 C 370.734375 174.988281 319.359375 123.609375 255.984375 123.609375 C 192.609375 123.609375 141.234375 174.984375 141.234375 238.359375 C 141.304688 301.707031 192.640625 353.039062 255.984375 353.113281 Z M 255.984375 158.917969 C 299.859375 158.917969 335.429688 194.484375 335.429688 238.359375 C 335.429688 282.234375 299.859375 317.804688 255.984375 317.804688 C 212.109375 317.804688 176.539062 282.234375 176.539062 238.359375 C 176.589844 194.503906 212.128906 158.964844 255.984375 158.917969 Z M 255.984375 158.917969 " style=" stroke:none;fill-rule:nonzero;fill:rgb(87.843137%,87.843137%,88.627451%);fill-opacity:1;" />
<path d="M 255.984375 317.804688 C 299.859375 317.804688 335.429688 282.234375 335.429688 238.359375 C 335.429688 194.484375 299.859375 158.917969 255.984375 158.917969 C 212.109375 158.917969 176.539062 194.484375 176.539062 238.359375 C 176.589844 282.214844 212.128906 317.757812 255.984375 317.804688 Z M 300.121094 238.359375 C 300.089844 213.996094 280.347656 194.253906 255.984375 194.226562 C 280.347656 194.253906 300.089844 214 300.121094 238.359375 Z M 300.121094 238.359375 " style=" stroke:none;fill-rule:nonzero;fill:rgb(87.843137%,87.843137%,88.627451%);fill-opacity:1;" />
<path d="M 264.8125 61.820312 C 264.8125 66.695312 260.859375 70.648438 255.984375 70.648438 C 251.109375 70.648438 247.15625 66.695312 247.15625 61.820312 C 247.15625 56.945312 251.109375 52.992188 255.984375 52.992188 C 260.859375 52.992188 264.8125 56.945312 264.8125 61.820312 Z M 264.8125 61.820312 " style=" stroke:none;fill-rule:nonzero;fill:rgb(87.843137%,87.843137%,88.627451%);fill-opacity:1;" />
<path d="M 88.269531 238.359375 C 88.269531 243.234375 84.320312 247.1875 79.445312 247.1875 C 74.570312 247.1875 70.617188 243.234375 70.617188 238.359375 C 70.617188 233.484375 74.570312 229.535156 79.445312 229.535156 C 84.320312 229.535156 88.269531 233.484375 88.269531 238.359375 Z M 88.269531 238.359375 " style=" stroke:none;fill-rule:nonzero;fill:rgb(87.843137%,87.843137%,88.627451%);fill-opacity:1;" />
<path d="M 441.351562 238.359375 C 441.351562 243.234375 437.402344 247.1875 432.527344 247.1875 C 427.652344 247.1875 423.699219 243.234375 423.699219 238.359375 C 423.699219 233.484375 427.652344 229.535156 432.527344 229.535156 C 437.402344 229.535156 441.351562 233.484375 441.351562 238.359375 Z M 441.351562 238.359375 " style=" stroke:none;fill-rule:nonzero;fill:rgb(87.843137%,87.843137%,88.627451%);fill-opacity:1;" />
<path d="M 255.984375 326.632812 C 207.234375 326.632812 167.714844 287.113281 167.714844 238.363281 C 167.714844 189.613281 207.234375 150.089844 255.984375 150.089844 C 304.734375 150.089844 344.253906 189.613281 344.253906 238.363281 C 344.203125 287.089844 304.714844 326.578125 255.984375 326.632812 Z M 255.984375 167.746094 C 216.984375 167.746094 185.367188 199.359375 185.367188 238.363281 C 185.367188 277.363281 216.984375 308.980469 255.984375 308.980469 C 294.984375 308.980469 326.601562 277.363281 326.601562 238.363281 C 326.558594 199.378906 294.96875 167.789062 255.984375 167.746094 Z M 255.984375 167.746094 " style=" stroke:none;fill-rule:nonzero;fill:rgb(94.509804%,94.901961%,94.901961%);fill-opacity:1;" />
<path d="M 300.121094 247.1875 C 295.246094 247.1875 291.292969 243.234375 291.292969 238.363281 C 291.292969 218.863281 275.484375 203.054688 255.984375 203.054688 C 251.109375 203.054688 247.160156 199.101562 247.160156 194.226562 C 247.160156 189.351562 251.109375 185.398438 255.984375 185.398438 C 285.222656 185.429688 308.917969 209.125 308.949219 238.363281 C 308.945312 243.234375 304.996094 247.1875 300.121094 247.1875 Z M 300.121094 247.1875 " style=" stroke:none;fill-rule:nonzero;fill:rgb(94.509804%,94.901961%,94.901961%);fill-opacity:1;" />
<path d="M 255.984375 79.472656 C 246.234375 79.472656 238.328125 71.570312 238.328125 61.820312 C 238.328125 52.070312 246.234375 44.164062 255.984375 44.164062 C 265.734375 44.164062 273.640625 52.070312 273.640625 61.820312 C 273.640625 71.570312 265.734375 79.472656 255.984375 79.472656 Z M 255.984375 79.472656 " style=" stroke:none;fill-rule:nonzero;fill:rgb(34.509804%,34.901961%,35.686275%);fill-opacity:1;" />
<path d="M 97.097656 238.359375 C 97.097656 248.109375 89.195312 256.015625 79.445312 256.015625 C 69.695312 256.015625 61.789062 248.109375 61.789062 238.359375 C 61.789062 228.609375 69.695312 220.707031 79.445312 220.707031 C 89.195312 220.707031 97.097656 228.609375 97.097656 238.359375 Z M 97.097656 238.359375 " style=" stroke:none;fill-rule:nonzero;fill:rgb(34.509804%,34.901961%,35.686275%);fill-opacity:1;" />
<path d="M 450.179688 238.359375 C 450.179688 248.109375 442.277344 256.015625 432.527344 256.015625 C 422.777344 256.015625 414.871094 248.109375 414.871094 238.359375 C 414.871094 228.609375 422.777344 220.707031 432.527344 220.707031 C 442.277344 220.707031 450.179688 228.609375 450.179688 238.359375 Z M 450.179688 238.359375 " style=" stroke:none;fill-rule:nonzero;fill:rgb(34.509804%,34.901961%,35.686275%);fill-opacity:1;" />
<path d="M 255.984375 432.558594 C 251.109375 432.558594 247.15625 428.605469 247.15625 423.730469 L 247.15625 388.421875 C 247.15625 383.546875 251.109375 379.59375 255.984375 379.59375 C 260.859375 379.59375 264.8125 383.546875 264.8125 388.421875 L 264.8125 423.730469 C 264.8125 428.605469 260.859375 432.558594 255.984375 432.558594 Z M 255.984375 432.558594 " style=" stroke:none;fill-rule:nonzero;fill:rgb(12.941176%,25.098039%,60.392157%);fill-opacity:1;" />
<path d="M 208.011719 426.238281 C 207.238281 426.234375 206.46875 426.136719 205.722656 425.9375 C 201.015625 424.675781 198.21875 419.835938 199.480469 415.125 C 199.480469 415.125 199.480469 415.125 199.484375 415.125 L 208.621094 381.023438 C 209.882812 376.316406 214.722656 373.519531 219.433594 374.785156 C 224.140625 376.046875 226.9375 380.886719 225.671875 385.597656 L 216.535156 419.695312 C 215.5 423.554688 212.003906 426.238281 208.011719 426.238281 Z M 208.011719 426.238281 " style=" stroke:none;fill-rule:nonzero;fill:rgb(12.941176%,25.098039%,60.392157%);fill-opacity:1;" />
<path d="M 163.300781 407.726562 C 158.425781 407.722656 154.476562 403.765625 154.484375 398.890625 C 154.484375 397.34375 154.890625 395.824219 155.664062 394.484375 L 173.320312 363.910156 C 175.730469 359.671875 181.117188 358.1875 185.355469 360.597656 C 189.59375 363.007812 191.074219 368.398438 188.664062 372.636719 C 188.648438 372.667969 188.625 372.703125 188.609375 372.734375 L 170.953125 403.3125 C 169.375 406.046875 166.457031 407.730469 163.300781 407.726562 Z M 163.300781 407.726562 " style=" stroke:none;fill-rule:nonzero;fill:rgb(12.941176%,25.098039%,60.392157%);fill-opacity:1;" />
<path d="M 124.910156 378.269531 C 120.035156 378.269531 116.085938 374.316406 116.085938 369.441406 C 116.085938 367.101562 117.015625 364.859375 118.671875 363.203125 L 143.632812 338.222656 C 147.082031 334.777344 152.671875 334.777344 156.121094 338.226562 C 159.566406 341.675781 159.566406 347.265625 156.117188 350.714844 L 131.152344 375.6875 C 129.496094 377.339844 127.253906 378.269531 124.910156 378.269531 Z M 124.910156 378.269531 " style=" stroke:none;fill-rule:nonzero;fill:rgb(12.941176%,25.098039%,60.392157%);fill-opacity:1;" />
<path d="M 303.960938 426.238281 C 299.964844 426.238281 296.46875 423.554688 295.433594 419.695312 L 286.296875 385.597656 C 285.035156 380.886719 287.828125 376.046875 292.539062 374.785156 C 297.246094 373.523438 302.085938 376.316406 303.351562 381.023438 L 312.476562 415.125 C 313.742188 419.832031 310.945312 424.671875 306.238281 425.9375 C 305.492188 426.132812 304.730469 426.234375 303.960938 426.238281 Z M 303.960938 426.238281 " style=" stroke:none;fill-rule:nonzero;fill:rgb(12.941176%,25.098039%,60.392157%);fill-opacity:1;" />
<path d="M 348.667969 407.726562 C 345.511719 407.730469 342.59375 406.046875 341.015625 403.3125 L 323.359375 372.734375 C 320.894531 368.53125 322.304688 363.121094 326.511719 360.65625 C 330.714844 358.191406 336.125 359.601562 338.589844 363.804688 C 338.609375 363.839844 338.628906 363.875 338.648438 363.910156 L 356.304688 394.484375 C 358.742188 398.707031 357.296875 404.105469 353.074219 406.542969 C 351.734375 407.316406 350.214844 407.722656 348.667969 407.726562 Z M 348.667969 407.726562 " style=" stroke:none;fill-rule:nonzero;fill:rgb(12.941176%,25.098039%,60.392157%);fill-opacity:1;" />
<path d="M 387.058594 378.269531 C 384.71875 378.269531 382.472656 377.339844 380.816406 375.683594 L 355.855469 350.710938 C 352.40625 347.265625 352.402344 341.675781 355.847656 338.226562 C 359.296875 334.777344 364.886719 334.773438 368.335938 338.222656 L 393.296875 363.203125 C 396.746094 366.648438 396.746094 372.238281 393.296875 375.683594 C 391.640625 377.339844 389.398438 378.269531 387.058594 378.269531 Z M 387.058594 378.269531 " style=" stroke:none;fill-rule:nonzero;fill:rgb(12.941176%,25.098039%,60.392157%);fill-opacity:1;" />
</g>
</svg>