<svg xmlns="http://www.w3.org/2000/svg" height="512pt" version="1.1" viewBox="0 0 512.00085 512" width="512pt">
<g id="surface1">
<path d="M 229.519531 512 L 406.070312 512 L 361.929688 467.863281 L 264.828125 467.863281 L 291.308594 467.863281 L 291.308594 406.070312 L 229.519531 406.070312 Z M 229.519531 512 " style=" stroke:none;fill-rule:nonzero;fill:rgb(53.72549%,53.333333%,56.470588%);fill-opacity:1;" />
<path d="M 229.519531 370.757812 L 229.519531 0 L 0 0 L 0 512 L 229.519531 512 Z M 70.621094 406.070312 C 60.871094 406.070312 52.964844 398.164062 52.964844 388.414062 C 52.964844 378.664062 60.871094 370.757812 70.621094 370.757812 C 80.371094 370.757812 88.277344 378.664062 88.277344 388.414062 C 88.277344 398.164062 80.371094 406.070312 70.621094 406.070312 Z M 158.898438 406.070312 C 149.144531 406.070312 141.242188 398.164062 141.242188 388.414062 C 141.242188 378.664062 149.144531 370.757812 158.898438 370.757812 C 168.648438 370.757812 176.550781 378.664062 176.550781 388.414062 C 176.550781 398.164062 168.648438 406.070312 158.898438 406.070312 Z M 158.898438 406.070312 " style=" stroke:none;fill-rule:nonzero;fill:rgb(87.843137%,87.843137%,88.627451%);fill-opacity:1;" />
<path d="M 494.34375 105.929688 L 229.519531 105.929688 L 229.519531 406.070312 L 494.34375 406.070312 C 504.097656 406.070312 512 398.164062 512 388.414062 L 512 123.585938 C 512 113.835938 504.097656 105.929688 494.34375 105.929688 Z M 476.691406 370.757812 L 476.691406 141.242188 Z M 476.691406 370.757812 " style=" stroke:none;fill-rule:nonzero;fill:rgb(73.72549%,74.509804%,75.294118%);fill-opacity:1;" />
<path d="M 88.277344 388.414062 C 88.277344 398.164062 80.371094 406.070312 70.621094 406.070312 C 60.871094 406.070312 52.964844 398.164062 52.964844 388.414062 C 52.964844 378.664062 60.871094 370.757812 70.621094 370.757812 C 80.371094 370.757812 88.277344 378.664062 88.277344 388.414062 Z M 88.277344 388.414062 " style=" stroke:none;fill-rule:nonzero;fill:rgb(14.117647%,53.333333%,100%);fill-opacity:1;" />
<path d="M 176.550781 388.414062 C 176.550781 398.164062 168.648438 406.070312 158.898438 406.070312 C 149.144531 406.070312 141.242188 398.164062 141.242188 388.414062 C 141.242188 378.664062 149.144531 370.757812 158.898438 370.757812 C 168.648438 370.757812 176.550781 378.664062 176.550781 388.414062 Z M 176.550781 388.414062 " style=" stroke:none;fill-rule:nonzero;fill:rgb(14.117647%,53.333333%,100%);fill-opacity:1;" />
<path d="M 229.519531 141.242188 L 476.691406 141.242188 L 476.691406 370.757812 L 229.519531 370.757812 Z M 229.519531 141.242188 " style=" stroke:none;fill-rule:nonzero;fill:rgb(14.117647%,53.333333%,100%);fill-opacity:1;" />
<path d="M 326.621094 361.933594 L 344.277344 361.933594 L 344.277344 379.585938 L 326.621094 379.585938 Z M 326.621094 361.933594 " style=" stroke:none;fill-rule:nonzero;fill:rgb(81.960784%,82.745098%,83.137255%);fill-opacity:1;" />
<path d="M 291.308594 361.933594 L 308.964844 361.933594 L 308.964844 379.585938 L 291.308594 379.585938 Z M 291.308594 361.933594 " style=" stroke:none;fill-rule:nonzero;fill:rgb(81.960784%,82.745098%,83.137255%);fill-opacity:1;" />
<path d="M 35.308594 132.414062 L 194.207031 132.414062 L 194.207031 150.070312 L 35.308594 150.070312 Z M 35.308594 132.414062 " style=" stroke:none;fill-rule:nonzero;fill:rgb(12.941176%,25.098039%,60.392157%);fill-opacity:1;" />
<path d="M 35.308594 167.722656 L 194.207031 167.722656 L 194.207031 185.378906 L 35.308594 185.378906 Z M 35.308594 167.722656 " style=" stroke:none;fill-rule:nonzero;fill:rgb(12.941176%,25.098039%,60.392157%);fill-opacity:1;" />
<path d="M 35.308594 441.378906 L 52.964844 441.378906 L 52.964844 476.691406 L 35.308594 476.691406 Z M 35.308594 441.378906 " style=" stroke:none;fill-rule:nonzero;fill:rgb(12.941176%,25.098039%,60.392157%);fill-opacity:1;" />
<path d="M 70.621094 441.378906 L 88.277344 441.378906 L 88.277344 476.691406 L 70.621094 476.691406 Z M 70.621094 441.378906 " style=" stroke:none;fill-rule:nonzero;fill:rgb(12.941176%,25.098039%,60.392157%);fill-opacity:1;" />
<path d="M 105.929688 441.378906 L 123.585938 441.378906 L 123.585938 476.691406 L 105.929688 476.691406 Z M 105.929688 441.378906 " style=" stroke:none;fill-rule:nonzero;fill:rgb(12.941176%,25.098039%,60.392157%);fill-opacity:1;" />
<path d="M 141.242188 441.378906 L 158.898438 441.378906 L 158.898438 476.691406 L 141.242188 476.691406 Z M 141.242188 441.378906 " style=" stroke:none;fill-rule:nonzero;fill:rgb(12.941176%,25.098039%,60.392157%);fill-opacity:1;" />
<path d="M 176.550781 441.378906 L 194.207031 441.378906 L 194.207031 476.691406 L 176.550781 476.691406 Z M 176.550781 441.378906 " style=" stroke:none;fill-rule:nonzero;fill:rgb(12.941176%,25.098039%,60.392157%);fill-opacity:1;" />
<path d="M 229.519531 361.933594 L 273.65625 361.933594 L 273.65625 379.585938 L 229.519531 379.585938 Z M 229.519531 361.933594 " style=" stroke:none;fill-rule:nonzero;fill:rgb(81.960784%,82.745098%,83.137255%);fill-opacity:1;" />
</g>
</svg>